{"glyphs":{"0":{"ha":917,"x_min":44,"x_max":873,"o":"m 461 962 q 679 907 587 962 q 821 748 770 852 q 873 485 873 645 q 825 207 873 304 q 681 40 772 96 q 456 -16 589 -16 q 238 38 327 -16 q 96 200 149 93 q 44 472 44 307 q 96 744 44 638 q 240 906 148 849 q 461 962 332 962 m 637 473 q 583 742 637 659 q 454 814 534 814 q 331 738 381 814 q 281 473 281 661 q 332 208 281 284 q 458 132 382 132 q 586 210 534 132 q 637 473 637 288 z "},"1":{"ha":917,"x_min":197,"x_max":781,"o":"m 602 962 l 602 220 q 606 162 602 172 q 628 138 612 145 q 686 131 644 131 l 781 131 l 781 0 l 197 0 l 197 131 l 293 131 q 358 137 344 131 q 379 158 372 144 q 387 220 387 173 l 387 749 l 197 749 l 197 881 q 321 898 278 889 q 460 933 387 911 q 536 962 500 945 l 602 962 z "},"2":{"ha":917,"x_min":58,"x_max":850,"o":"m 203 571 l 66 559 q 58 626 58 594 q 104 796 58 724 q 247 915 151 868 q 460 962 342 962 q 655 921 568 962 q 786 815 742 880 q 830 678 830 750 q 799 543 830 606 q 686 406 764 472 q 370 195 608 340 l 598 195 q 669 201 654 195 q 694 224 684 207 q 713 282 705 241 l 718 313 l 850 313 l 788 -33 l 699 -33 l 690 0 l 66 0 l 66 131 q 415 395 203 220 q 559 550 524 485 q 586 650 586 597 q 536 752 586 710 q 403 793 486 793 q 296 771 341 793 q 224 706 250 748 q 199 617 199 664 q 203 571 199 600 z "},"3":{"ha":917,"x_min":61,"x_max":848,"o":"m 242 642 l 102 642 q 102 667 102 657 q 141 818 102 755 q 266 922 181 882 q 458 962 350 962 q 644 926 562 962 q 766 833 726 890 q 806 715 806 776 q 781 622 806 668 q 713 545 756 576 q 629 502 685 524 q 720 477 680 496 q 789 428 760 458 q 833 361 819 399 q 848 281 848 324 q 802 135 848 203 q 665 25 755 67 q 454 -16 574 -16 q 245 23 336 -16 q 107 123 153 62 q 61 243 61 183 q 94 321 61 288 q 172 353 126 353 q 250 323 216 353 q 288 256 272 303 q 323 174 307 194 q 375 138 339 154 q 448 123 411 123 q 532 144 492 123 q 591 197 572 165 q 610 275 610 229 q 546 397 610 358 q 392 428 496 428 l 348 428 l 348 559 l 392 559 q 510 571 475 559 q 566 612 546 583 q 587 674 587 641 q 553 752 587 720 q 422 793 510 793 q 327 776 364 793 q 268 726 289 758 q 242 642 246 694 z "},"4":{"ha":917,"x_min":44,"x_max":884,"o":"m 490 946 l 705 946 l 705 433 l 884 433 l 884 261 l 705 261 l 705 0 l 490 0 l 490 261 l 44 261 l 44 473 l 490 946 m 490 728 l 210 433 l 490 433 l 490 728 z "},"5":{"ha":917,"x_min":83,"x_max":864,"o":"m 135 427 l 160 946 l 637 946 q 695 953 682 946 q 709 979 707 960 l 800 979 l 800 743 l 306 743 l 300 621 q 450 630 382 630 q 682 589 589 630 q 819 480 774 549 q 864 320 864 412 q 735 67 864 161 q 455 -16 620 -16 q 257 21 345 -16 q 126 115 169 59 q 83 229 83 172 q 114 305 83 274 q 189 336 144 336 q 248 318 221 336 q 294 259 274 300 q 345 177 321 202 q 401 138 369 151 q 472 124 433 124 q 566 145 524 124 q 628 201 607 165 q 649 283 649 237 q 583 410 649 361 q 376 458 517 458 q 135 427 250 458 z "},"6":{"ha":917,"x_min":59,"x_max":872,"o":"m 771 962 l 771 829 q 564 805 642 825 q 435 751 486 785 q 351 671 383 718 q 307 565 319 625 q 419 624 366 606 q 535 641 473 641 q 712 600 634 641 q 831 490 790 559 q 872 330 872 421 q 765 81 872 179 q 477 -16 659 -16 q 183 84 289 -16 q 59 406 59 201 q 101 643 59 545 q 232 815 142 740 q 442 925 321 890 q 771 962 562 961 m 473 487 q 386 465 424 487 q 327 402 348 443 q 306 308 306 361 q 352 181 306 231 q 469 132 399 132 q 589 181 542 132 q 636 310 636 231 q 590 438 636 390 q 473 487 545 487 z "},"7":{"ha":917,"x_min":54,"x_max":881,"o":"m 149 975 l 239 975 l 248 946 l 881 946 l 881 815 q 735 650 791 728 q 633 470 680 573 q 563 276 586 366 q 522 0 540 185 l 278 0 q 333 279 294 168 q 457 520 372 391 q 637 742 543 650 l 329 742 q 252 735 270 742 q 222 713 233 728 q 198 646 212 699 l 184 591 l 54 622 l 149 975 z "},"8":{"ha":917,"x_min":71,"x_max":852,"o":"m 645 526 q 807 413 750 484 q 852 277 852 358 q 754 73 852 153 q 461 -16 645 -16 q 249 21 338 -16 q 115 117 159 58 q 71 238 71 176 q 120 362 71 303 q 271 463 168 421 q 142 562 185 501 q 99 696 99 623 q 139 828 99 769 q 265 925 180 887 q 460 962 350 962 q 700 902 600 962 q 800 736 800 841 q 766 625 800 675 q 645 526 732 574 m 516 583 l 541 611 q 574 651 566 637 q 591 687 586 671 q 596 721 596 704 q 558 786 596 758 q 451 814 519 814 q 349 788 385 814 q 313 727 313 762 q 334 675 313 696 q 441 614 363 646 l 516 583 m 403 399 q 307 327 338 366 q 276 252 276 288 q 297 195 276 223 q 361 150 318 167 q 461 132 404 132 q 562 148 518 132 q 623 188 605 164 q 642 238 642 211 q 618 294 642 272 q 504 359 585 327 l 403 399 z "},"9":{"ha":917,"x_min":45,"x_max":858,"o":"m 145 -16 l 145 116 q 353 141 275 121 q 482 194 430 160 q 566 274 534 228 q 610 381 597 321 q 497 322 551 339 q 382 304 444 304 q 204 346 283 304 q 85 455 126 387 q 45 616 45 524 q 151 865 45 767 q 440 962 258 962 q 734 862 628 962 q 858 539 858 745 q 816 303 858 401 q 685 131 774 205 q 475 20 595 56 q 145 -16 355 -16 m 443 459 q 530 481 492 459 q 589 544 568 503 q 610 638 610 585 q 564 764 610 715 q 447 813 517 813 q 328 764 375 813 q 281 636 281 715 q 327 508 281 556 q 443 459 372 459 z "}," ":{"ha":472,"x_min":0,"x_max":0,"o":""},"!":{"ha":500,"x_min":122,"x_max":378,"o":"m 317 288 l 186 288 q 168 505 175 451 l 126 779 q 122 833 122 812 q 139 897 122 867 q 187 945 157 927 q 250 962 217 962 q 313 944 282 962 q 361 896 344 926 q 378 831 378 865 q 372 764 378 805 q 327 464 338 567 q 317 288 319 387 m 250 241 q 339 204 302 241 q 376 115 376 168 q 339 26 376 63 q 250 -11 302 -11 q 160 26 197 -11 q 123 115 123 63 q 160 204 123 168 q 250 241 197 241 z "},"\"":{"ha":583,"x_min":88,"x_max":495,"o":"m 140 574 l 97 801 q 88 864 88 846 q 111 935 88 907 q 167 962 134 962 q 222 934 199 962 q 245 863 245 906 q 239 817 245 840 q 236 801 237 808 l 193 574 l 140 574 m 390 574 l 347 801 q 338 864 338 846 q 361 935 338 907 q 416 962 385 962 q 472 934 449 962 q 495 863 495 906 q 490 817 495 840 q 486 801 488 808 l 443 574 l 390 574 z "},"#":{"ha":833,"x_min":78,"x_max":754,"o":"m 720 415 l 720 293 l 579 293 l 536 0 l 412 0 l 455 293 l 338 293 l 295 0 l 173 0 l 216 293 l 78 293 l 78 415 l 235 415 l 253 530 l 117 530 l 117 653 l 270 653 l 311 926 l 430 926 l 391 653 l 508 653 l 549 926 l 671 926 l 631 653 l 754 653 l 754 530 l 614 530 l 597 415 l 720 415 m 491 530 l 373 530 l 357 415 l 473 415 l 491 530 z "},"$":{"ha":917,"x_min":73,"x_max":860,"o":"m 409 1097 l 540 1097 l 540 929 q 589 911 569 920 q 643 881 609 902 l 669 929 l 743 929 l 822 622 l 697 586 q 540 772 648 713 l 540 577 q 734 499 673 539 q 828 402 795 460 q 860 281 860 344 q 822 152 860 214 q 709 48 783 90 q 540 0 634 7 l 540 -164 l 409 -164 l 409 12 q 246 92 331 30 l 214 12 l 140 12 l 73 369 l 203 400 q 271 278 238 323 q 344 201 303 234 q 409 165 374 177 l 409 391 q 209 476 263 439 q 123 568 155 512 q 92 682 92 625 q 131 809 92 748 q 239 906 170 870 q 409 946 309 942 l 409 1097 m 409 796 q 330 772 353 789 q 297 715 297 749 q 321 662 297 688 q 409 614 345 636 l 409 796 m 540 148 q 624 178 593 155 q 656 240 656 201 q 632 300 656 275 q 540 351 600 333 l 540 148 z "},"%":{"ha":1305,"x_min":42,"x_max":1264,"o":"m 296 962 q 432 932 377 962 q 517 849 488 903 q 547 716 547 796 q 518 574 547 627 q 433 490 488 520 q 294 459 377 459 q 157 489 212 459 q 72 573 102 519 q 42 710 42 628 q 73 847 42 792 q 159 932 103 901 q 296 962 214 962 m 392 711 q 365 833 392 795 q 294 870 338 870 q 225 834 251 870 q 199 711 199 798 q 225 587 199 623 q 294 551 251 551 q 365 588 338 551 q 392 711 392 625 m 1002 962 l 413 -16 l 304 -16 l 889 962 l 1002 962 m 1013 487 q 1148 457 1093 487 q 1234 374 1204 427 q 1264 241 1264 321 q 1235 98 1264 152 q 1149 14 1205 45 q 1010 -16 1094 -16 q 874 14 928 -16 q 789 98 819 43 q 759 235 759 153 q 789 372 759 317 q 876 457 820 427 q 1013 487 931 487 m 1109 235 q 1082 358 1109 321 q 1011 395 1055 395 q 941 359 967 395 q 915 235 915 323 q 941 112 915 149 q 1010 76 967 76 q 1082 113 1055 76 q 1109 235 1109 151 z "},"&":{"ha":1111,"x_min":50,"x_max":1110,"o":"m 686 623 l 1019 623 l 1019 493 l 978 493 q 930 486 943 493 q 907 463 916 479 q 885 387 902 454 q 849 292 873 345 q 795 197 825 239 q 845 137 825 151 q 885 123 865 123 q 925 139 909 123 q 941 180 941 155 q 921 239 941 204 q 901 293 901 270 q 928 354 901 328 q 994 380 956 380 q 1077 340 1043 380 q 1110 228 1110 300 q 1035 53 1110 122 q 837 -16 960 -16 q 734 -1 775 -16 q 646 59 694 15 q 394 -16 538 -16 q 145 72 241 -16 q 50 288 50 160 q 111 473 50 394 q 272 598 159 535 q 200 669 224 629 q 176 759 176 709 q 242 903 176 844 q 415 962 309 962 q 585 908 524 962 q 646 770 646 853 q 611 652 646 701 q 529 587 584 614 q 589 551 567 570 q 649 478 618 524 q 726 333 669 449 q 765 461 765 422 q 758 480 765 472 q 740 491 751 489 q 686 493 732 493 l 686 623 m 414 837 q 363 812 382 837 q 343 740 343 787 q 363 673 343 698 q 412 648 384 648 q 447 660 429 648 q 472 689 465 671 q 483 743 483 713 q 463 814 483 791 q 414 837 442 837 m 412 516 q 312 432 346 482 q 278 323 278 381 q 329 197 278 249 q 450 145 379 145 q 561 170 505 145 q 535 227 545 196 l 498 353 q 467 446 479 420 q 443 487 454 473 q 412 516 431 501 z "},"'":{"ha":333,"x_min":88,"x_max":245,"o":"m 140 574 l 97 801 q 88 865 88 846 q 112 935 88 907 q 167 962 135 962 q 222 935 199 962 q 245 864 245 907 q 239 817 245 843 l 236 801 l 193 574 l 140 574 z "},"(":{"ha":444,"x_min":73,"x_max":381,"o":"m 284 987 l 381 903 q 314 728 333 827 q 286 320 286 579 q 313 -61 286 78 q 381 -238 332 -160 l 284 -321 q 222 -256 245 -286 q 134 -99 169 -185 q 86 86 99 -12 q 73 355 73 184 q 97 645 73 536 q 168 840 120 754 q 284 987 216 926 z "},")":{"ha":444,"x_min":64,"x_max":372,"o":"m 161 -321 l 64 -237 q 131 -62 112 -161 q 159 346 159 87 q 132 727 159 588 q 64 904 113 826 l 161 987 q 223 922 199 952 q 311 765 275 851 q 359 580 346 678 q 372 311 372 482 q 348 21 372 130 q 276 -174 324 -88 q 161 -321 228 -260 z "},"*":{"ha":639,"x_min":30,"x_max":609,"o":"m 290 737 q 253 831 260 805 q 245 879 245 858 q 268 939 245 915 q 323 964 291 964 q 376 941 354 964 q 398 884 398 918 q 391 840 398 863 q 350 737 378 799 q 379 716 366 729 q 406 739 385 721 q 480 794 454 781 q 530 807 507 807 q 586 785 564 807 q 609 732 609 763 q 582 675 609 699 q 504 652 555 652 q 398 659 480 652 q 387 625 395 642 q 498 547 473 578 q 524 484 524 517 q 503 430 524 452 q 452 408 481 408 q 406 424 428 408 q 370 471 384 439 q 339 590 356 503 q 320 588 326 588 q 302 589 315 588 q 269 472 283 503 q 233 426 255 441 q 187 411 211 411 q 135 432 156 411 q 113 484 113 454 q 136 543 113 516 q 254 625 159 570 q 240 659 246 641 q 152 653 172 653 q 60 677 90 653 q 30 738 30 702 q 52 790 30 768 q 107 811 74 811 q 160 797 133 811 q 261 715 186 782 q 290 737 274 729 z "},"+":{"ha":833,"x_min":81,"x_max":753,"o":"m 753 409 l 485 409 l 485 141 l 349 141 l 349 409 l 81 409 l 81 536 l 349 536 l 349 805 l 485 805 l 485 536 l 753 536 l 753 409 z "},",":{"ha":472,"x_min":104,"x_max":389,"o":"m 182 -256 l 105 -172 q 218 -59 195 -90 q 256 19 241 -27 q 230 5 243 9 q 203 0 216 0 q 134 33 164 0 q 104 111 104 65 q 142 202 104 165 q 234 239 180 239 q 311 217 274 239 q 369 154 349 194 q 389 62 389 115 q 332 -105 389 -24 q 182 -256 275 -187 z "},"-":{"ha":500,"x_min":66,"x_max":434,"o":"m 66 426 l 434 426 l 434 264 l 66 264 l 66 426 z "},"­":{"ha":500,"x_min":66,"x_max":434,"o":"m 66 426 l 434 426 l 434 264 l 66 264 l 66 426 z "},".":{"ha":472,"x_min":110,"x_max":363,"o":"m 237 241 q 326 204 289 241 q 363 115 363 168 q 326 26 363 63 q 237 -11 289 -11 q 147 26 184 -11 q 110 115 110 63 q 147 204 110 168 q 237 241 184 241 z "},"/":{"ha":833,"x_min":99,"x_max":692,"o":"m 692 1000 l 281 -192 l 99 -192 l 511 1000 l 692 1000 z "},":":{"ha":472,"x_min":110,"x_max":363,"o":"m 237 693 q 326 656 288 693 q 363 566 363 618 q 326 476 363 513 q 236 439 289 439 q 147 476 184 439 q 110 566 110 513 q 148 655 110 618 q 237 693 185 693 m 237 241 q 326 204 289 241 q 363 115 363 168 q 326 26 363 63 q 237 -11 289 -11 q 147 26 184 -11 q 110 115 110 63 q 147 204 110 168 q 237 241 184 241 z "},";":{"ha":472,"x_min":109,"x_max":395,"o":"m 236 693 q 325 656 288 693 q 362 566 362 618 q 325 476 362 513 q 235 439 288 439 q 146 476 183 439 q 109 566 109 513 q 147 655 109 618 q 236 693 184 693 m 186 -257 l 111 -172 q 222 -61 199 -92 q 262 16 245 -31 q 235 4 248 8 q 209 0 222 0 q 140 32 169 0 q 111 111 111 64 q 150 202 111 167 q 240 237 189 237 q 340 197 294 237 q 395 61 395 148 q 348 -93 395 -18 q 186 -257 288 -189 z "},";":{"ha":472,"x_min":109,"x_max":395,"o":"m 236 693 q 325 656 288 693 q 362 566 362 618 q 325 476 362 513 q 235 439 288 439 q 146 476 183 439 q 109 566 109 513 q 147 655 109 618 q 236 693 184 693 m 186 -257 l 111 -172 q 222 -61 199 -92 q 262 16 245 -31 q 235 4 248 8 q 209 0 222 0 q 140 32 169 0 q 111 111 111 64 q 150 202 111 167 q 240 237 189 237 q 340 197 294 237 q 395 61 395 148 q 348 -93 395 -18 q 186 -257 288 -189 z "},"<":{"ha":833,"x_min":81,"x_max":753,"o":"m 753 230 l 753 100 l 81 415 l 81 530 l 753 846 l 753 715 l 249 473 l 753 230 z "},"=":{"ha":833,"x_min":81,"x_max":753,"o":"m 753 538 l 81 538 l 81 666 l 753 666 l 753 538 m 753 279 l 81 279 l 81 408 l 753 408 l 753 279 z "},">":{"ha":833,"x_min":81,"x_max":753,"o":"m 81 715 l 81 846 l 753 530 l 753 415 l 81 100 l 81 230 l 585 473 l 81 715 z "},"?":{"ha":917,"x_min":71,"x_max":833,"o":"m 413 288 l 283 288 l 283 546 l 326 546 q 507 559 454 546 q 584 598 561 572 q 608 659 608 625 q 538 774 608 729 q 407 814 477 814 q 342 798 371 814 q 279 734 313 781 q 230 681 250 693 q 173 666 203 666 q 100 695 130 666 q 71 766 71 724 q 172 907 71 852 q 406 962 273 962 q 632 915 530 962 q 784 795 734 867 q 833 640 833 722 q 778 484 833 550 q 626 389 723 418 q 413 366 562 370 l 413 288 m 348 241 q 438 204 401 241 q 475 115 475 168 q 438 26 475 63 q 348 -11 401 -11 q 259 26 296 -11 q 222 115 222 63 q 259 204 222 168 q 348 241 296 241 z "},"@":{"ha":1139,"x_min":-12,"x_max":1187,"o":"m 725 627 l 890 634 l 766 208 q 745 104 745 138 q 761 65 745 81 q 801 49 777 49 q 925 106 850 49 q 1046 261 1000 163 q 1093 470 1093 360 q 1037 692 1093 593 q 884 845 981 791 q 659 898 788 898 q 355 819 490 898 q 140 593 220 741 q 59 272 59 446 q 218 -122 59 28 q 589 -262 367 -262 q 848 -206 726 -262 q 1051 -52 969 -150 q 1145 112 1109 16 l 1187 112 q 1045 -114 1132 -24 q 841 -252 958 -203 q 588 -300 725 -300 q 166 -140 335 -300 q -12 296 -12 28 q 73 626 -12 478 q 306 858 157 774 q 644 941 454 941 q 901 883 793 941 q 1070 721 1010 826 q 1131 482 1131 615 q 1073 232 1131 347 q 924 58 1015 117 q 725 0 833 0 q 650 14 679 0 q 604 58 621 28 q 587 121 587 87 q 603 214 587 155 q 522 93 550 126 q 437 18 482 45 q 369 0 407 0 q 287 39 319 0 q 255 153 255 79 q 289 335 255 242 q 382 503 322 427 q 518 625 441 578 q 605 653 564 653 q 676 621 650 653 q 702 547 694 600 l 725 627 m 625 604 q 585 588 608 604 q 526 504 563 572 q 459 341 488 437 q 430 188 430 245 q 442 141 430 157 q 469 124 454 124 q 503 140 481 124 q 580 231 538 165 q 646 374 621 296 q 671 513 671 452 q 656 581 671 558 q 625 604 642 604 z "},"A":{"ha":1000,"x_min":1,"x_max":999,"o":"m 395 946 l 608 946 l 892 216 q 933 144 915 157 q 999 131 951 130 l 999 0 l 551 0 l 551 131 l 578 132 q 631 141 616 132 q 646 165 646 151 q 633 216 646 178 l 605 302 l 317 302 l 281 206 q 271 166 271 176 q 278 146 271 155 q 304 134 286 138 q 368 131 315 131 l 368 0 l 1 0 l 1 131 q 53 137 37 131 q 80 155 69 143 q 103 201 90 168 l 395 946 m 366 437 l 555 437 l 463 697 l 366 437 z "},"B":{"ha":1000,"x_min":54,"x_max":967,"o":"m 54 815 l 54 946 l 591 946 q 785 917 715 946 q 894 834 856 888 q 932 716 932 781 q 912 627 932 669 q 854 553 892 585 q 755 500 817 521 q 857 463 821 483 q 937 383 907 434 q 967 269 967 332 q 922 130 967 193 q 793 33 876 66 q 550 0 710 0 l 54 0 l 54 131 l 91 131 q 141 137 128 131 q 160 156 155 144 q 165 209 165 168 l 165 736 q 160 790 165 779 q 141 808 155 802 q 91 815 128 815 l 54 815 m 400 563 l 504 563 q 624 576 585 563 q 683 617 663 590 q 703 681 703 645 q 684 745 703 718 q 630 782 665 771 q 504 793 595 793 l 400 793 l 400 563 m 400 424 l 400 219 q 404 168 401 176 q 415 155 407 159 q 457 151 422 151 l 526 151 q 626 162 587 151 q 694 209 666 174 q 722 294 722 244 q 702 365 722 336 q 643 409 682 394 q 523 424 604 424 l 400 424 z "},"C":{"ha":1027,"x_min":48,"x_max":1006,"o":"m 782 946 l 878 946 l 971 606 l 845 570 q 726 742 782 691 q 559 812 649 812 q 436 775 493 812 q 345 667 378 739 q 311 500 311 596 q 388 250 311 355 q 590 144 465 144 q 743 190 669 144 q 901 341 834 246 l 1006 263 q 819 68 903 123 q 527 -16 688 -16 q 285 48 393 -16 q 113 227 177 112 q 48 479 48 342 q 111 726 48 614 q 282 900 174 838 q 523 962 390 962 q 760 905 658 962 l 782 946 z "},"D":{"ha":1083,"x_min":52,"x_max":1034,"o":"m 52 946 l 547 946 q 816 892 716 946 q 975 734 916 839 q 1034 481 1034 629 q 1004 298 1034 379 q 914 153 974 218 q 786 56 854 88 q 640 16 734 31 q 488 0 545 0 l 52 0 l 52 131 l 84 131 q 138 138 125 131 q 159 161 151 144 q 165 217 165 174 l 165 734 q 159 790 165 777 q 140 809 153 802 q 84 815 127 815 l 52 815 l 52 946 m 397 794 l 397 206 q 401 170 397 176 q 417 156 406 159 q 467 152 427 152 q 641 186 578 152 q 743 296 704 220 q 781 476 781 372 q 745 655 781 579 q 655 763 709 732 q 502 794 602 794 l 397 794 z "},"E":{"ha":1000,"x_min":53,"x_max":995,"o":"m 53 946 l 842 946 l 950 647 l 827 603 q 754 721 796 676 q 662 780 713 766 q 545 795 612 795 l 400 795 l 400 559 l 448 559 q 520 567 501 559 q 547 591 538 574 q 555 657 555 608 l 555 693 l 675 693 l 675 293 l 555 293 l 555 334 q 545 394 555 375 q 518 420 535 413 q 443 427 501 427 l 400 427 l 400 210 q 404 168 400 175 q 417 156 407 160 q 459 152 427 152 l 538 152 q 688 177 627 152 q 797 259 749 203 q 871 394 845 316 l 995 351 l 871 0 l 53 0 l 53 131 l 77 131 q 140 138 124 131 q 163 161 157 144 q 167 219 167 172 l 167 734 q 161 789 167 777 q 143 809 155 802 q 95 815 131 815 l 53 815 l 53 946 z "},"F":{"ha":945,"x_min":54,"x_max":943,"o":"m 54 946 l 836 946 l 943 644 l 821 602 q 764 701 791 667 q 699 757 736 734 q 618 787 662 779 q 515 791 589 791 l 399 791 l 399 541 l 458 541 q 512 551 492 541 q 539 577 531 561 q 548 631 548 593 l 548 682 l 670 682 l 670 258 l 548 258 l 548 319 q 543 358 548 346 q 526 385 537 374 q 502 399 515 395 q 451 403 488 403 l 399 403 l 399 204 q 405 156 399 168 q 425 137 411 143 q 477 131 438 131 l 515 131 l 515 0 l 54 0 l 54 131 l 85 131 q 152 144 136 131 q 168 197 168 157 l 168 741 q 161 791 168 779 q 141 809 155 803 q 85 815 127 815 l 54 815 l 54 946 z "},"G":{"ha":1083,"x_min":50,"x_max":1072,"o":"m 610 505 l 1072 505 l 1072 372 l 1037 372 q 990 366 1003 372 q 972 347 978 360 q 966 296 966 334 l 966 0 l 827 0 l 791 68 q 659 5 727 26 q 516 -16 590 -16 q 280 47 387 -16 q 112 223 174 110 q 50 477 50 336 q 111 726 50 616 q 282 899 172 836 q 522 962 393 962 q 646 946 584 962 q 752 904 708 930 l 777 946 l 872 946 l 958 633 l 833 592 q 732 732 769 695 q 647 791 695 770 q 554 812 600 812 q 434 774 490 812 q 345 666 378 737 q 313 492 313 594 q 348 298 313 380 q 441 177 384 216 q 568 137 499 137 q 661 157 617 137 q 721 201 705 176 q 737 267 737 225 l 737 301 q 732 347 737 337 q 712 366 725 360 q 663 372 700 372 l 610 372 l 610 505 z "},"H":{"ha":1139,"x_min":50,"x_max":1089,"o":"m 50 946 l 511 946 l 511 815 l 469 815 q 420 808 433 815 q 402 788 408 801 q 397 730 397 774 l 397 566 l 741 566 l 741 743 q 737 787 741 775 q 719 809 732 803 q 662 815 706 815 l 626 815 l 626 946 l 1089 946 l 1089 815 l 1050 815 q 998 809 1011 815 q 980 790 985 802 q 975 730 975 777 l 975 218 q 982 156 975 170 q 1001 137 988 142 q 1062 131 1015 131 l 1089 131 l 1089 0 l 626 0 l 626 131 l 656 131 q 714 138 699 131 q 735 157 730 144 q 741 218 741 170 l 741 418 l 397 418 l 397 218 q 401 159 397 170 q 422 136 408 142 q 479 131 436 131 l 511 131 l 511 0 l 50 0 l 50 131 l 81 131 q 136 138 120 131 q 157 157 151 144 q 163 210 163 169 l 163 724 q 157 787 163 772 q 139 808 151 802 q 92 815 127 815 l 50 815 l 50 946 z "},"I":{"ha":555,"x_min":47,"x_max":509,"o":"m 47 946 l 509 946 l 509 815 l 467 815 q 418 809 430 815 q 400 788 406 802 q 395 735 395 774 l 395 212 q 399 157 395 169 q 416 139 404 144 q 458 131 430 131 l 509 131 l 509 0 l 47 0 l 47 131 l 85 131 q 137 137 125 131 q 155 155 149 142 q 161 205 161 168 l 161 730 q 155 788 161 774 q 136 810 149 802 q 90 815 126 815 l 47 815 l 47 946 z "},"J":{"ha":889,"x_min":2,"x_max":857,"o":"m 397 946 l 857 946 l 857 815 l 819 815 q 767 809 779 815 q 749 789 755 802 q 744 727 744 775 l 744 348 q 734 218 744 259 q 673 103 722 160 q 548 15 624 46 q 366 -16 471 -16 q 173 22 252 -16 q 47 129 93 61 q 2 269 2 197 q 41 376 2 334 q 136 418 79 418 q 195 405 171 418 q 234 365 219 392 q 248 308 248 338 l 248 264 q 266 193 248 227 q 308 152 279 168 q 375 136 338 136 q 458 165 424 136 q 503 240 492 193 q 509 353 509 267 l 509 745 q 507 784 509 775 q 488 808 501 801 q 442 815 475 815 l 397 815 l 397 946 z "},"K":{"ha":1111,"x_min":52,"x_max":1112,"o":"m 52 946 l 513 946 l 513 815 l 482 815 q 428 810 438 815 q 405 789 412 803 q 397 739 397 776 l 397 487 l 692 760 q 716 785 712 779 q 720 796 720 791 q 712 810 720 806 q 673 815 705 815 l 635 815 l 635 946 l 1063 946 l 1063 815 l 1048 815 q 1007 812 1019 815 q 979 799 996 809 q 936 766 962 789 l 707 568 l 980 199 q 1031 143 1015 152 q 1094 131 1053 131 l 1112 131 l 1112 0 l 635 0 l 635 131 l 654 131 q 717 136 706 131 q 728 148 728 140 q 707 186 728 156 l 541 423 l 397 300 l 397 205 q 404 156 397 170 q 424 137 411 142 q 474 131 436 131 l 513 131 l 513 0 l 52 0 l 52 131 l 86 131 q 140 137 126 131 q 159 158 153 144 q 165 214 165 170 l 165 730 q 159 787 165 772 q 139 808 153 801 q 90 815 125 815 l 52 815 l 52 946 z "},"L":{"ha":889,"x_min":56,"x_max":903,"o":"m 56 946 l 518 946 l 518 815 l 477 815 q 435 812 444 815 q 411 791 418 805 q 404 747 404 777 l 404 206 q 407 166 404 174 q 419 154 410 159 q 456 150 429 150 q 602 174 547 150 q 702 250 657 197 q 778 393 746 302 l 903 350 l 778 0 l 56 0 l 56 131 l 101 131 q 143 138 129 131 q 164 158 157 146 q 170 202 170 171 l 170 738 q 164 787 170 772 q 145 808 157 802 q 106 815 134 815 l 56 815 l 56 946 z "},"M":{"ha":1305,"x_min":54,"x_max":1252,"o":"m 54 946 l 482 946 l 646 370 l 817 946 l 1252 946 l 1252 815 l 1205 815 q 1153 799 1167 815 q 1138 739 1138 783 l 1138 202 q 1142 158 1138 167 q 1159 139 1148 144 q 1198 131 1174 131 l 1252 131 l 1252 0 l 797 0 l 797 131 l 832 131 q 884 137 871 131 q 904 156 898 143 q 911 202 911 168 l 911 784 l 680 0 l 549 0 l 326 759 l 326 184 q 333 153 326 164 q 354 137 340 142 q 396 131 367 131 l 441 131 l 441 0 l 54 0 l 54 131 l 92 131 q 141 137 128 131 q 161 158 155 144 q 168 209 168 172 l 168 739 q 163 787 168 776 q 144 808 157 802 q 106 815 132 815 l 54 815 l 54 946 z "},"N":{"ha":1027,"x_min":53,"x_max":991,"o":"m 53 946 l 437 946 l 715 394 l 715 732 q 710 786 715 775 q 692 809 703 802 q 647 815 680 815 l 601 815 l 601 946 l 991 946 l 991 815 l 948 815 q 902 808 916 815 q 882 787 888 800 q 877 732 877 774 l 877 0 l 682 0 l 331 697 l 331 210 q 336 156 331 168 q 354 138 341 144 q 400 131 368 131 l 446 131 l 446 0 l 53 0 l 53 131 l 94 131 q 140 137 127 131 q 160 157 153 142 q 168 199 168 171 l 168 742 q 161 788 168 773 q 142 809 154 802 q 104 815 131 815 l 53 815 l 53 946 z "},"O":{"ha":1111,"x_min":48,"x_max":1063,"o":"m 559 962 q 924 825 785 962 q 1063 473 1063 688 q 1000 217 1063 329 q 824 44 936 105 q 553 -16 711 -16 q 210 99 343 -16 q 48 471 48 238 q 190 825 48 687 q 559 962 331 962 m 562 812 q 391 731 454 812 q 311 469 311 629 q 385 214 311 308 q 555 134 450 134 q 726 214 662 134 q 801 470 801 310 q 769 659 801 583 q 682 774 736 736 q 562 812 627 812 z "},"P":{"ha":917,"x_min":56,"x_max":915,"o":"m 56 946 l 555 946 q 713 927 650 946 q 821 868 776 907 q 890 775 866 829 q 915 661 915 721 q 822 457 915 539 q 564 375 728 375 l 403 375 l 403 198 q 408 156 403 165 q 426 137 414 143 q 469 131 439 131 l 517 131 l 517 0 l 56 0 l 56 131 l 87 131 q 143 137 130 131 q 163 156 157 143 q 169 211 169 170 l 169 731 q 163 788 169 774 q 146 809 158 802 q 101 815 134 815 l 56 815 l 56 946 m 403 791 l 403 523 l 484 523 q 592 538 557 523 q 648 585 627 553 q 669 660 669 616 q 618 763 669 725 q 508 791 581 791 l 403 791 z "},"Q":{"ha":1111,"x_min":48,"x_max":1063,"o":"m 435 -6 q 175 132 282 18 q 48 471 48 266 q 189 825 48 687 q 558 962 330 962 q 924 825 785 962 q 1063 473 1063 688 q 1015 246 1063 347 q 879 80 966 144 q 667 -7 792 16 q 710 -98 669 -67 q 809 -128 751 -128 q 900 -114 853 -128 q 984 -75 947 -100 l 1050 -190 q 904 -258 975 -237 q 752 -279 833 -279 q 578 -245 652 -279 q 467 -142 505 -210 q 435 -6 437 -88 m 562 812 q 391 731 454 812 q 311 469 311 629 q 385 214 311 308 q 555 134 450 134 q 726 214 662 134 q 801 470 801 310 q 769 659 801 583 q 682 774 736 736 q 562 812 627 812 z "},"R":{"ha":1083,"x_min":50,"x_max":1084,"o":"m 50 946 l 633 946 q 756 936 690 946 q 877 891 823 926 q 961 804 931 857 q 991 684 991 751 q 914 510 991 576 q 732 422 837 443 l 926 196 l 935 186 q 969 152 954 163 q 1000 136 985 140 q 1044 131 1016 131 l 1084 131 l 1084 0 l 781 0 l 477 408 l 399 408 l 399 219 q 404 157 399 170 q 421 137 410 144 q 469 131 433 131 l 513 131 l 513 0 l 50 0 l 50 131 l 92 131 q 139 138 125 131 q 160 159 153 145 q 163 210 163 168 l 163 743 q 158 787 163 774 q 142 804 153 800 q 104 812 125 812 l 85 811 l 50 811 l 50 946 m 399 791 l 399 546 l 539 546 q 663 561 622 546 q 725 605 704 576 q 745 674 745 633 q 726 738 745 711 q 671 778 707 765 q 555 791 635 791 l 399 791 z "},"S":{"ha":917,"x_min":47,"x_max":884,"o":"m 766 946 l 847 629 l 721 593 q 578 759 658 706 q 408 811 498 811 q 316 787 349 811 q 282 734 282 764 q 313 673 282 701 q 422 622 342 644 l 604 569 q 820 454 755 526 q 884 285 884 381 q 786 77 884 162 q 515 -16 677 -16 q 376 3 439 -16 q 245 68 313 22 l 215 0 l 114 0 l 47 367 l 174 397 q 313 211 218 286 q 521 136 408 136 q 605 149 572 136 q 656 184 639 161 q 673 232 673 208 q 633 302 673 273 q 494 359 593 331 l 336 406 q 238 444 300 416 q 144 503 177 472 q 90 581 111 533 q 68 682 68 629 q 110 820 68 757 q 235 923 151 884 q 420 962 319 962 q 642 899 543 962 l 669 946 l 766 946 z "},"T":{"ha":972,"x_min":2,"x_max":970,"o":"m 119 978 l 208 978 l 218 946 l 751 946 l 763 978 l 853 978 l 970 646 l 844 602 q 784 710 802 685 q 701 788 748 760 q 631 810 666 810 q 609 802 615 810 q 603 766 603 794 l 603 222 q 606 162 603 174 q 618 143 610 150 q 640 133 626 136 q 716 131 654 131 l 716 0 l 255 0 l 255 131 l 283 131 q 342 137 329 131 q 361 157 355 142 q 368 218 368 172 l 368 774 q 363 804 368 798 q 340 810 357 810 q 261 783 304 810 q 184 709 218 757 q 126 602 170 690 l 2 646 l 119 978 z "},"U":{"ha":1027,"x_min":25,"x_max":1002,"o":"m 25 946 l 487 946 l 487 815 l 441 815 q 397 808 410 815 q 378 786 384 800 q 372 730 372 772 l 372 385 q 391 241 372 289 q 449 169 410 194 q 544 144 488 144 q 643 172 600 144 q 705 240 686 199 q 724 378 724 282 l 724 758 q 718 792 724 782 q 696 811 709 806 q 648 815 686 815 l 611 815 l 611 946 l 1002 946 l 1002 815 l 972 815 q 916 810 926 815 q 892 786 899 802 q 886 730 886 776 l 886 357 q 857 184 886 254 q 725 36 815 89 q 510 -16 634 -16 q 353 11 422 -16 q 232 87 284 37 q 160 193 180 137 q 139 357 139 248 l 139 722 q 134 787 139 772 q 116 808 128 802 q 68 815 104 815 l 25 815 l 25 946 z "},"V":{"ha":1000,"x_min":1,"x_max":999,"o":"m 1 946 l 451 946 l 451 815 l 437 815 q 382 812 394 815 q 362 798 370 808 q 354 775 354 787 q 370 717 354 761 l 537 245 l 715 729 q 728 779 728 765 q 716 806 728 798 q 662 815 703 815 l 633 815 l 633 946 l 999 946 l 999 815 q 938 805 954 815 q 890 729 914 789 l 607 0 l 394 0 l 106 734 q 79 790 88 778 q 52 809 69 802 q 1 815 35 816 l 1 946 z "},"W":{"ha":1305,"x_min":11,"x_max":1295,"o":"m 11 946 l 427 946 l 427 815 q 377 812 387 815 q 360 801 368 810 q 353 780 353 791 q 362 736 353 770 l 489 245 l 600 594 l 556 736 q 551 753 554 741 q 524 800 542 786 q 473 815 507 814 l 473 946 l 869 946 l 869 815 l 837 815 q 792 807 802 815 q 778 778 778 795 q 788 726 778 765 l 900 290 l 1015 726 q 1028 782 1028 773 q 1016 807 1028 798 q 970 815 1004 815 l 935 815 l 935 946 l 1295 946 l 1295 815 q 1239 807 1256 815 q 1212 783 1223 800 q 1185 715 1200 767 l 975 0 l 770 0 l 661 379 l 543 0 l 330 0 l 118 726 q 94 787 104 773 q 66 808 84 801 q 11 815 48 816 l 11 946 z "},"X":{"ha":1083,"x_min":-1,"x_max":1085,"o":"m 35 946 l 545 946 l 545 815 l 505 815 q 466 810 474 815 q 457 793 457 805 q 460 781 457 787 q 480 755 464 774 l 581 634 l 693 759 q 715 793 715 783 q 706 810 715 804 q 664 815 696 815 l 629 815 l 629 946 l 1054 946 l 1054 815 q 988 808 1007 814 q 943 787 968 803 q 903 751 925 774 l 652 503 l 928 208 q 1004 145 974 159 q 1085 131 1034 131 l 1085 0 l 567 0 l 567 131 l 614 131 q 656 136 648 131 q 664 150 664 140 q 642 189 664 163 l 505 345 l 359 189 q 340 152 340 168 q 351 137 340 142 q 392 131 361 131 l 429 131 l 429 0 l -1 0 l -1 131 q 62 136 43 131 q 96 151 81 140 q 161 208 123 170 l 432 477 l 174 755 q 114 805 137 794 q 35 815 90 815 l 35 946 z "},"Y":{"ha":972,"x_min":1,"x_max":971,"o":"m 1 946 l 471 946 l 471 815 l 435 815 q 389 809 398 815 q 379 791 379 804 q 401 738 379 773 l 525 532 l 663 747 q 684 778 682 774 q 686 793 686 785 q 679 810 686 804 q 642 815 671 815 l 594 815 l 594 946 l 971 946 l 971 815 q 902 804 922 814 q 854 751 882 793 l 602 384 l 602 215 q 607 157 602 170 q 627 137 613 144 q 682 131 641 131 l 715 131 l 715 0 l 254 0 l 254 131 l 279 131 q 341 137 328 131 q 362 159 355 144 q 369 220 369 174 l 369 368 l 117 751 q 65 808 87 796 q 1 815 49 815 l 1 946 z "},"Z":{"ha":889,"x_min":22,"x_max":880,"o":"m 824 946 l 824 815 l 323 147 l 382 147 q 565 170 505 147 q 676 250 625 193 q 756 392 728 308 l 880 350 l 756 0 l 34 0 l 34 131 l 536 797 l 458 797 q 329 778 378 797 q 244 722 280 759 q 141 565 208 684 l 22 618 l 165 946 l 824 946 z "},"[":{"ha":416,"x_min":81,"x_max":403,"o":"m 81 987 l 403 987 l 403 855 l 271 855 l 271 -189 l 403 -189 l 403 -321 l 81 -321 l 81 987 z "},"\\":{"ha":833,"x_min":99,"x_max":683,"o":"m 99 1000 l 281 1000 l 683 -192 l 511 -192 l 99 1000 z "},"]":{"ha":416,"x_min":14,"x_max":336,"o":"m 336 -321 l 14 -321 l 14 -189 l 146 -189 l 146 855 l 14 855 l 14 987 l 336 987 l 336 -321 z "},"^":{"ha":833,"x_min":71,"x_max":763,"o":"m 220 393 l 71 393 l 346 946 l 488 946 l 763 393 l 614 393 l 417 777 l 220 393 z "},"_":{"ha":694,"x_min":-8,"x_max":703,"o":"m -8 -104 l 703 -104 l 703 -174 l -8 -174 l -8 -104 z "},"`":{"ha":555,"x_min":98,"x_max":458,"o":"m 430 766 l 209 814 q 125 854 151 826 q 98 920 98 882 q 111 970 98 947 q 148 1007 124 994 q 193 1021 171 1021 q 312 965 249 1021 l 458 835 l 430 766 z "},"a":{"ha":806,"x_min":44,"x_max":781,"o":"m 462 410 l 462 460 q 454 522 462 505 q 427 550 447 539 q 378 562 408 562 q 338 554 356 562 q 309 535 319 547 q 283 490 298 524 q 240 430 265 448 q 180 412 214 412 q 109 439 136 412 q 81 506 81 466 q 109 587 81 551 q 222 663 147 633 q 392 693 298 693 q 552 663 486 693 q 645 590 618 632 q 671 460 671 547 l 671 218 q 675 160 671 173 q 696 138 680 148 q 730 129 711 129 q 781 140 749 129 l 781 7 q 671 -11 724 -11 q 564 9 608 -11 q 490 71 520 30 q 367 8 422 26 q 260 -11 312 -11 q 104 44 163 -11 q 44 178 44 98 q 65 262 44 224 q 126 328 85 300 q 253 379 168 357 q 462 410 339 401 m 462 298 q 336 272 373 285 q 284 238 300 258 q 269 197 269 218 q 289 152 269 170 q 344 134 309 134 q 396 145 366 134 q 462 179 425 157 l 462 298 z "},"b":{"ha":833,"x_min":0,"x_max":781,"o":"m 315 996 l 315 630 q 415 679 371 665 q 503 693 458 693 q 693 609 618 693 q 781 349 781 511 q 693 84 781 184 q 480 -16 605 -16 q 382 1 429 -16 q 285 57 336 18 l 248 0 l 99 0 l 99 807 l 0 807 l 0 939 q 248 996 134 948 l 315 996 m 315 483 l 315 277 q 325 191 315 214 q 359 152 334 168 q 417 136 384 136 q 507 182 473 136 q 549 342 549 240 q 513 490 549 437 q 436 532 484 532 q 379 519 410 532 q 315 483 349 507 z "},"c":{"ha":806,"x_min":51,"x_max":770,"o":"m 670 256 l 770 169 q 604 28 690 72 q 419 -16 517 -16 q 156 86 262 -16 q 51 336 51 189 q 100 518 51 435 q 235 647 149 601 q 437 693 321 693 q 666 628 577 693 q 754 492 754 564 q 740 437 754 461 q 698 398 726 413 q 637 383 669 383 q 591 393 612 383 q 557 419 571 404 q 534 461 551 426 q 499 519 511 505 q 470 542 487 534 q 431 549 453 549 q 364 527 396 549 q 311 458 332 504 q 290 355 290 412 q 315 242 290 292 q 380 167 339 193 q 471 141 421 141 q 566 167 518 141 q 670 256 614 193 z "},"d":{"ha":889,"x_min":62,"x_max":857,"o":"m 755 996 l 755 207 q 759 150 755 160 q 773 136 763 140 q 825 131 783 131 l 857 131 l 857 0 l 562 -10 l 562 60 q 450 0 498 17 q 354 -16 402 -16 q 211 26 276 -16 q 103 152 145 68 q 62 337 62 235 q 104 524 62 440 q 215 650 146 608 q 367 693 283 693 q 450 683 410 693 q 538 646 490 672 l 538 806 l 439 806 l 439 938 q 575 959 523 946 q 689 996 628 971 l 755 996 m 538 194 l 538 421 q 532 481 538 464 q 495 526 524 507 q 431 545 466 545 q 363 523 394 545 q 313 455 332 500 q 295 342 295 410 q 336 191 295 248 q 421 146 368 146 q 465 154 444 146 q 538 194 486 161 z "},"e":{"ha":806,"x_min":50,"x_max":758,"o":"m 665 251 l 758 157 q 595 25 678 66 q 416 -16 512 -16 q 155 89 261 -16 q 50 342 50 193 q 97 520 50 439 q 229 647 144 602 q 419 693 313 693 q 543 673 487 693 q 640 617 598 654 q 707 529 682 581 q 742 421 732 477 q 746 333 746 393 l 290 333 q 340 194 291 247 q 460 140 389 140 q 559 168 506 140 q 665 251 613 195 m 530 447 q 510 511 525 488 q 471 548 496 534 q 419 562 446 562 q 364 548 391 562 q 322 509 338 534 q 301 447 306 485 l 530 447 z "},"f":{"ha":528,"x_min":56,"x_max":665,"o":"m 483 677 l 483 533 l 373 533 l 373 201 q 376 153 373 161 q 392 136 381 142 q 437 131 403 131 l 475 131 l 475 0 l 56 0 l 56 131 l 89 131 q 138 135 130 131 q 152 150 147 139 q 156 201 156 160 l 156 533 l 56 533 l 56 677 l 156 677 l 156 747 q 182 869 156 823 q 283 960 214 925 q 448 996 352 996 q 608 952 550 996 q 665 857 665 909 q 639 790 665 816 q 570 764 613 764 q 537 769 553 764 q 507 784 522 774 q 473 818 497 791 q 441 848 450 843 q 422 854 431 854 q 386 832 399 854 q 373 747 373 811 l 373 677 l 483 677 z "},"g":{"ha":806,"x_min":23,"x_max":808,"o":"m 574 637 q 646 710 610 688 q 722 731 682 731 q 785 708 762 731 q 808 648 808 684 q 786 592 808 614 q 732 570 764 570 l 709 571 l 686 572 q 650 558 668 572 q 687 440 687 496 q 650 324 687 380 q 548 237 613 268 q 391 205 482 205 q 337 209 364 205 q 283 218 311 212 q 256 195 265 206 q 246 175 246 184 q 290 148 246 154 l 570 108 q 751 41 696 90 q 807 -79 807 -9 q 765 -192 807 -140 q 628 -277 723 -243 q 387 -310 532 -310 q 176 -285 260 -310 q 58 -223 93 -260 q 23 -151 23 -185 q 49 -82 23 -113 q 157 -11 75 -51 q 81 34 106 7 q 47 106 47 69 q 79 186 47 147 q 174 264 111 226 q 118 312 138 286 q 86 374 98 337 q 73 449 73 410 q 156 622 73 551 q 375 693 239 693 q 485 679 435 693 q 574 637 535 665 m 382 564 q 310 532 338 564 q 282 446 282 500 q 309 366 282 395 q 379 336 336 336 q 449 367 421 336 q 477 446 477 397 q 451 532 477 500 q 382 564 424 564 m 283 -43 q 238 -86 248 -71 q 228 -118 228 -100 q 282 -170 228 -151 q 421 -189 336 -189 q 530 -178 483 -189 q 593 -151 578 -167 q 604 -123 604 -141 q 583 -91 604 -104 q 485 -68 563 -77 l 283 -43 z "},"h":{"ha":945,"x_min":57,"x_max":909,"o":"m 374 996 l 374 619 q 492 676 441 660 q 592 693 544 693 q 707 666 656 693 q 781 597 758 638 q 805 486 805 555 l 805 203 q 808 153 805 162 q 829 134 814 140 q 877 131 838 131 l 909 131 l 909 0 l 510 0 l 510 131 l 530 131 q 570 136 559 131 q 585 152 581 142 q 589 199 589 161 l 589 433 q 584 495 589 479 q 563 520 578 510 q 526 530 548 530 q 459 517 494 530 q 374 469 424 504 l 374 199 q 378 151 374 161 q 393 136 382 142 q 437 131 405 131 l 452 131 l 452 0 l 57 0 l 57 131 l 95 131 q 137 135 128 131 q 151 150 146 140 q 156 192 156 161 l 156 806 l 57 806 l 57 938 q 183 957 113 941 q 310 996 254 973 l 374 996 z "},"i":{"ha":500,"x_min":54,"x_max":473,"o":"m 260 996 q 348 959 312 996 q 385 871 385 923 q 348 783 385 819 q 260 747 312 747 q 173 783 209 747 q 136 871 136 819 q 174 959 136 922 q 260 996 211 996 m 370 693 l 370 192 q 374 148 370 156 q 389 135 378 140 q 436 131 399 131 l 473 131 l 473 0 l 54 0 l 54 131 l 90 131 q 135 135 125 131 q 149 147 144 138 q 154 182 154 156 l 154 506 l 54 506 l 54 633 q 156 645 107 636 q 244 666 205 654 q 306 693 269 674 l 370 693 z "},"j":{"ha":472,"x_min":-134,"x_max":387,"o":"m 263 996 q 351 959 315 996 q 387 871 387 923 q 351 784 387 821 q 263 747 315 747 q 176 784 212 747 q 140 871 140 820 q 176 959 140 923 q 263 996 212 996 m 372 693 l 372 -29 q 342 -186 372 -132 q 244 -275 313 -240 q 81 -310 176 -310 q -37 -290 12 -310 q -110 -237 -85 -270 q -134 -168 -134 -203 q -104 -105 -134 -131 q -37 -79 -75 -79 q 12 -93 -14 -79 q 71 -146 37 -107 q 109 -170 92 -170 q 144 -152 131 -170 q 157 -86 157 -134 l 157 506 l 57 506 l 57 635 q 188 650 127 636 q 309 693 249 664 l 372 693 z "},"k":{"ha":917,"x_min":58,"x_max":915,"o":"m 375 996 l 375 385 l 505 495 q 530 518 526 513 q 534 528 534 523 q 525 541 534 536 q 486 546 515 546 l 460 546 l 460 677 l 874 677 l 874 546 q 813 540 829 546 q 742 495 791 531 l 610 399 l 798 181 q 844 139 826 147 q 915 131 862 132 l 915 0 l 495 0 l 495 131 l 518 131 q 551 136 543 131 q 559 148 559 140 q 538 186 559 157 l 460 286 l 375 222 l 375 186 q 379 151 375 160 q 393 136 383 142 q 424 131 403 131 l 448 131 l 448 0 l 58 0 l 58 131 q 90 132 79 132 q 138 137 127 132 q 154 154 149 142 q 157 213 157 163 l 157 807 l 58 807 l 58 939 q 309 996 174 945 l 375 996 z "},"l":{"ha":472,"x_min":39,"x_max":458,"o":"m 355 996 l 355 202 q 359 155 355 162 q 380 135 363 141 q 435 131 390 131 l 458 131 l 458 0 l 39 0 l 39 131 l 64 131 q 117 136 105 131 q 134 152 128 141 q 139 202 139 163 l 139 807 l 39 807 l 39 939 q 290 996 160 947 l 355 996 z "},"m":{"ha":1389,"x_min":67,"x_max":1350,"o":"m 360 693 l 360 603 q 480 671 419 648 q 604 693 541 693 q 681 681 644 693 q 743 650 718 669 q 788 599 768 631 q 914 671 854 649 q 1037 693 975 693 q 1135 673 1091 693 q 1207 620 1179 654 q 1242 547 1234 587 q 1248 476 1248 523 l 1248 195 q 1253 151 1248 161 q 1270 135 1258 140 q 1320 131 1279 131 l 1350 131 l 1350 0 l 953 0 l 953 131 q 1008 135 997 131 q 1025 150 1020 140 q 1031 193 1031 159 l 1031 439 q 1025 495 1031 481 q 1003 519 1019 509 q 963 529 986 529 q 906 517 937 529 q 816 465 876 505 l 816 200 q 821 151 816 161 q 840 135 827 140 q 894 131 848 132 l 894 0 l 522 0 l 522 131 q 578 136 568 132 q 593 151 588 140 q 599 200 599 161 l 599 433 q 589 504 599 486 q 536 530 574 530 q 496 526 517 530 q 455 511 475 521 q 399 475 444 505 l 384 465 l 384 200 q 388 153 384 162 q 404 137 392 143 q 445 131 416 131 l 463 131 l 463 0 l 67 0 l 67 131 l 94 131 q 146 135 136 131 q 162 151 157 140 q 168 200 168 162 l 168 505 l 67 505 l 67 636 q 296 693 191 648 l 360 693 z "},"n":{"ha":945,"x_min":62,"x_max":912,"o":"m 353 693 l 353 603 q 485 674 430 655 q 596 693 539 693 q 712 665 662 693 q 786 596 763 637 q 809 477 809 554 l 809 195 q 814 149 809 159 q 830 134 819 139 q 879 131 838 131 l 912 131 l 912 0 l 514 0 l 514 131 q 565 133 559 132 q 587 149 582 138 q 593 195 593 159 l 593 444 q 583 507 593 492 q 531 530 566 530 q 469 517 502 530 q 379 465 435 505 l 379 195 q 389 141 379 151 q 434 131 398 131 l 456 131 l 456 0 l 62 0 l 62 131 l 81 131 q 139 135 128 131 q 156 149 151 139 q 162 189 162 159 l 162 505 l 62 505 l 62 636 q 290 693 184 651 l 353 693 z "},"o":{"ha":861,"x_min":52,"x_max":810,"o":"m 429 693 q 631 648 545 693 q 763 524 717 602 q 810 340 810 446 q 707 83 810 182 q 431 -16 604 -16 q 152 83 256 -16 q 52 340 52 178 q 97 524 52 447 q 230 647 143 600 q 429 693 317 693 m 431 545 q 359 522 393 545 q 306 454 325 498 q 288 340 288 409 q 306 222 288 269 q 356 153 324 175 q 427 130 389 130 q 530 181 487 130 q 572 338 572 231 q 533 493 572 441 q 431 545 493 545 z "},"p":{"ha":889,"x_min":52,"x_max":829,"o":"m 345 693 l 345 618 q 463 679 422 665 q 551 693 504 693 q 744 606 669 693 q 829 349 829 505 q 755 100 829 200 q 526 -16 669 -16 q 445 -6 479 -16 q 370 33 410 5 l 370 -104 q 374 -153 370 -144 q 389 -167 378 -163 q 441 -172 399 -172 l 473 -172 l 473 -302 l 52 -302 l 52 -172 l 75 -172 q 131 -168 121 -172 q 147 -152 141 -164 q 153 -104 153 -140 l 153 504 l 52 504 l 52 635 q 176 657 125 644 q 281 693 228 670 l 345 693 m 370 481 l 370 260 q 379 186 370 208 q 413 150 389 164 q 469 136 437 136 q 560 187 524 136 q 596 342 596 238 q 565 485 596 438 q 487 531 533 531 q 370 481 434 531 z "},"q":{"ha":861,"x_min":57,"x_max":853,"o":"m 749 677 l 749 -98 q 753 -150 749 -141 q 770 -168 758 -161 q 821 -172 779 -172 l 853 -172 l 853 -302 l 431 -302 l 431 -172 l 463 -172 q 514 -168 505 -172 q 528 -155 523 -165 q 532 -113 532 -146 l 532 43 q 433 -3 477 9 q 343 -16 390 -16 q 149 76 227 -16 q 57 334 57 182 q 99 521 57 437 q 211 649 141 605 q 363 693 281 693 q 455 678 410 693 q 567 623 501 663 l 602 677 l 749 677 m 532 191 l 532 418 q 523 492 532 472 q 486 529 513 513 q 426 545 458 545 q 357 523 389 545 q 311 462 326 500 q 291 341 291 408 q 308 234 291 279 q 355 167 326 189 q 414 145 384 145 q 471 156 439 145 q 532 191 503 168 z "},"r":{"ha":639,"x_min":59,"x_max":639,"o":"m 353 693 l 353 595 q 447 672 407 652 q 523 693 486 693 q 582 678 556 693 q 624 634 608 663 q 639 573 639 606 q 611 496 639 530 q 532 461 583 461 q 508 463 518 461 q 463 477 497 465 q 434 482 446 482 q 376 460 416 482 l 376 195 q 381 151 376 161 q 397 136 386 140 q 448 131 409 131 l 477 131 l 477 0 l 59 0 l 59 131 l 94 131 q 140 135 131 131 q 154 149 149 139 q 159 195 159 159 l 159 506 l 59 506 l 59 636 q 289 693 170 643 l 353 693 z "},"s":{"ha":722,"x_min":38,"x_max":692,"o":"m 512 677 l 601 677 l 656 488 l 528 437 q 436 529 491 496 q 326 563 380 563 q 273 551 290 563 q 255 522 255 538 q 268 495 255 507 q 319 469 280 483 l 506 403 q 601 359 555 385 q 669 294 646 332 q 692 204 692 256 q 621 53 692 112 q 415 -16 538 -16 q 231 37 309 -16 l 212 0 l 121 0 l 38 222 l 166 277 q 285 158 214 201 q 414 115 355 115 q 476 132 451 115 q 495 164 495 146 q 480 194 495 180 q 414 226 465 208 l 268 277 q 103 368 146 319 q 59 483 59 416 q 127 627 59 568 q 320 693 205 693 q 494 647 422 693 l 512 677 z "},"t":{"ha":639,"x_min":39,"x_max":606,"o":"m 357 909 l 357 677 l 575 677 l 575 532 l 357 532 l 357 296 q 365 194 357 216 q 397 157 374 171 q 467 139 427 139 q 606 184 536 139 l 606 39 q 499 0 547 12 q 395 -11 451 -11 q 284 5 332 -11 q 201 51 235 21 q 154 113 167 80 q 140 210 140 146 l 140 532 l 39 532 l 39 663 q 132 713 93 680 q 194 792 170 746 q 226 909 217 838 l 357 909 z "},"u":{"ha":917,"x_min":36,"x_max":888,"o":"m 36 677 l 353 683 l 353 243 q 358 180 353 196 q 379 155 364 165 q 418 145 395 145 q 490 161 452 145 q 569 210 505 168 l 569 474 q 564 522 569 509 q 548 540 558 534 q 509 546 538 546 l 469 546 l 469 677 l 787 683 l 787 197 q 791 150 787 159 q 805 135 795 140 q 852 131 815 131 l 888 131 l 888 0 l 591 -8 l 591 72 q 471 6 531 28 q 349 -16 410 -16 q 259 0 300 -16 q 191 42 218 16 q 149 105 163 69 q 136 197 136 141 l 136 477 q 131 526 136 515 q 117 541 127 536 q 73 546 106 546 l 36 546 l 36 677 z "},"v":{"ha":833,"x_min":2,"x_max":832,"o":"m 472 677 l 832 677 l 832 546 q 779 543 787 545 q 755 527 768 540 q 730 487 743 514 l 508 0 l 326 0 l 95 502 q 74 531 87 519 q 52 543 64 541 q 2 546 43 546 l 2 677 l 418 677 l 418 546 l 396 546 q 347 540 356 546 q 334 519 334 532 q 342 487 334 509 l 448 223 l 557 487 q 566 520 566 509 q 552 541 566 534 q 504 546 541 546 l 472 546 l 472 677 z "},"w":{"ha":1111,"x_min":11,"x_max":1101,"o":"m 11 677 l 370 677 l 370 546 l 355 546 q 321 541 329 546 q 312 522 312 534 q 318 493 312 512 l 413 200 l 495 429 l 473 493 q 450 533 464 522 q 409 546 436 545 l 409 677 l 750 677 l 750 546 l 722 546 q 690 539 699 546 q 682 519 682 532 q 690 484 682 507 l 772 241 l 854 484 q 863 520 863 508 q 853 539 863 533 q 812 546 843 546 l 796 546 l 796 677 l 1101 677 l 1101 546 q 1058 542 1068 546 q 1040 529 1048 538 q 1019 484 1031 516 l 837 0 l 657 0 l 556 273 l 453 0 l 272 0 l 94 484 q 71 527 84 510 q 53 542 62 538 q 11 546 44 545 l 11 677 z "},"x":{"ha":833,"x_min":-3,"x_max":837,"o":"m 31 677 l 443 677 l 443 546 q 401 541 410 546 q 392 524 392 535 q 410 488 392 513 l 469 408 l 528 488 q 547 526 547 514 q 539 541 547 536 q 490 546 530 546 l 490 677 l 805 677 l 805 546 q 745 537 764 546 q 702 502 726 529 l 570 349 l 713 193 q 772 142 751 153 q 837 131 794 131 l 837 0 l 403 0 l 403 131 l 427 131 q 465 136 456 131 q 474 151 474 142 q 454 186 474 159 l 363 302 l 283 193 q 258 150 258 159 q 266 136 258 141 q 301 131 274 131 l 330 131 l 330 0 l -3 0 l -3 131 q 44 135 27 130 q 75 149 62 140 q 111 186 88 159 l 264 361 l 136 502 q 91 537 111 528 q 31 546 71 546 l 31 677 z "},"y":{"ha":861,"x_min":11,"x_max":853,"o":"m 11 677 l 434 677 l 434 546 l 406 546 q 358 541 368 546 q 349 526 349 536 q 363 484 349 518 l 465 239 l 571 484 q 583 524 583 511 q 573 540 583 534 q 526 546 563 546 l 488 546 l 488 677 l 853 677 l 853 546 q 797 543 805 545 q 778 532 785 540 q 753 491 770 525 l 447 -138 q 342 -275 399 -236 q 205 -315 284 -315 q 80 -274 127 -315 q 32 -181 32 -233 q 60 -111 32 -140 q 129 -81 89 -81 q 182 -95 156 -81 q 216 -125 199 -104 q 234 -142 227 -138 q 246 -146 240 -146 q 274 -132 260 -146 q 320 -56 294 -111 l 346 0 l 115 484 q 89 530 98 520 q 68 543 80 539 q 11 546 57 546 l 11 677 z "},"z":{"ha":778,"x_min":36,"x_max":764,"o":"m 150 677 l 725 677 l 725 546 l 321 144 l 413 144 q 525 159 486 144 q 594 208 564 175 q 641 289 614 231 l 764 243 l 674 0 l 36 0 l 36 131 l 436 533 l 374 533 q 282 521 314 533 q 220 477 250 509 q 166 396 205 461 l 47 451 l 150 677 z "},"{":{"ha":444,"x_min":59,"x_max":435,"o":"m 435 962 l 435 931 q 360 905 387 922 q 318 860 333 887 q 303 804 303 832 q 319 694 303 760 q 336 575 336 623 q 304 473 336 522 q 222 393 273 424 q 115 353 188 373 q 231 304 195 328 q 310 222 283 270 q 337 127 337 174 q 321 22 337 90 q 304 -94 304 -47 q 319 -156 304 -127 q 359 -201 334 -184 q 435 -228 385 -218 l 435 -259 q 350 -254 376 -259 q 253 -211 299 -242 q 181 -134 207 -180 q 155 -41 155 -88 q 176 83 155 2 q 192 189 192 144 q 153 288 192 249 q 59 331 121 321 l 59 372 q 132 398 105 380 q 175 450 159 416 q 192 520 192 483 q 177 622 192 564 q 156 743 156 703 q 176 822 156 781 q 231 894 195 863 q 314 943 267 926 q 435 962 361 960 z "},"|":{"ha":833,"x_min":330,"x_max":503,"o":"m 330 996 l 503 996 l 503 -302 l 330 -302 l 330 996 z "},"}":{"ha":444,"x_min":9,"x_max":386,"o":"m 9 -259 l 9 -229 q 84 -201 58 -219 q 126 -157 111 -184 q 142 -100 142 -130 q 126 9 142 -56 q 109 127 109 80 q 140 230 109 181 q 222 310 172 279 q 330 350 256 330 q 214 399 250 375 q 134 480 161 433 q 107 575 107 528 q 124 681 107 612 q 140 797 140 749 q 125 859 140 830 q 85 904 111 887 q 9 930 60 920 l 9 962 q 94 956 69 962 q 192 914 146 945 q 264 837 238 883 q 290 745 290 791 q 269 619 290 701 q 253 514 253 559 q 292 414 253 454 q 386 372 323 382 l 386 330 q 313 305 339 323 q 270 253 286 287 q 253 183 253 220 q 268 81 253 138 q 288 -39 288 0 q 269 -119 288 -78 q 214 -191 250 -159 q 131 -240 178 -223 q 9 -259 84 -256 z "},"~":{"ha":833,"x_min":70,"x_max":764,"o":"m 689 601 l 764 516 q 692 416 722 446 q 632 372 663 386 q 567 358 601 358 q 518 365 543 358 q 412 406 493 372 q 307 448 322 444 q 273 453 292 453 q 213 430 240 453 q 145 334 185 408 l 70 420 q 141 524 111 492 q 204 572 171 556 q 269 587 237 587 q 328 579 298 587 q 440 536 369 568 q 533 499 514 505 q 566 493 552 493 q 623 514 595 493 q 689 601 650 534 z "},"Ä":{"ha":1000,"x_min":1,"x_max":999,"o":"m 395 946 l 608 946 l 892 216 q 933 144 915 157 q 999 131 951 130 l 999 0 l 551 0 l 551 131 l 578 132 q 631 141 616 132 q 646 165 646 151 q 633 216 646 178 l 605 302 l 317 302 l 281 206 q 271 166 271 176 q 278 146 271 155 q 304 134 286 138 q 368 131 315 131 l 368 0 l 1 0 l 1 131 q 53 137 37 131 q 80 155 69 143 q 103 201 90 168 l 395 946 m 366 437 l 555 437 l 463 697 l 366 437 m 335 1207 q 405 1177 375 1207 q 434 1107 434 1147 q 406 1042 434 1069 q 338 1014 378 1014 q 270 1042 298 1014 q 241 1112 241 1071 q 268 1180 241 1153 q 335 1207 295 1207 m 662 1207 q 731 1177 701 1207 q 760 1107 760 1147 q 732 1042 760 1069 q 665 1014 704 1014 q 596 1042 625 1014 q 567 1112 567 1071 q 594 1180 567 1153 q 662 1207 621 1207 z "},"Å":{"ha":1000,"x_min":1,"x_max":999,"o":"m 395 946 l 608 946 l 892 216 q 933 144 915 157 q 999 131 951 130 l 999 0 l 551 0 l 551 131 l 578 132 q 631 141 616 132 q 646 165 646 151 q 633 216 646 178 l 605 302 l 317 302 l 281 206 q 271 166 271 176 q 278 146 271 155 q 304 134 286 138 q 368 131 315 131 l 368 0 l 1 0 l 1 131 q 53 137 37 131 q 80 155 69 143 q 103 201 90 168 l 395 946 m 366 437 l 555 437 l 463 697 l 366 437 m 644 1164 q 602 1066 644 1107 q 500 1025 560 1025 q 399 1066 441 1025 q 357 1166 357 1107 q 399 1265 357 1224 q 500 1307 441 1307 q 602 1265 560 1307 q 644 1164 644 1223 m 452 1167 q 466 1130 452 1145 q 500 1115 480 1115 q 534 1130 519 1115 q 548 1166 548 1145 q 534 1202 548 1187 q 500 1217 519 1217 q 466 1202 479 1217 q 452 1167 452 1187 z "},"Ç":{"ha":1027,"x_min":48,"x_max":1006,"o":"m 782 946 l 878 946 l 971 606 l 845 570 q 726 742 782 691 q 559 812 649 812 q 436 775 493 812 q 345 667 378 739 q 311 500 311 596 q 388 250 311 355 q 590 144 465 144 q 743 190 669 144 q 901 341 834 246 l 1006 263 q 819 68 903 123 q 527 -16 688 -16 q 285 48 393 -16 q 113 227 177 112 q 48 479 48 342 q 111 726 48 614 q 282 900 174 838 q 523 962 390 962 q 760 905 658 962 l 782 946 m 543 0 l 543 -62 q 589 -58 573 -58 q 673 -87 640 -58 q 705 -162 705 -117 q 661 -257 705 -218 q 542 -296 617 -296 q 441 -271 477 -296 q 405 -213 405 -245 q 418 -178 405 -191 q 454 -165 431 -165 q 495 -182 473 -165 q 523 -201 513 -197 q 545 -205 534 -205 q 576 -195 566 -205 q 590 -161 590 -179 q 569 -121 590 -137 q 508 -105 549 -105 q 458 -107 488 -105 l 471 0 l 543 0 z "},"É":{"ha":1000,"x_min":53,"x_max":995,"o":"m 53 946 l 842 946 l 950 647 l 827 603 q 754 721 796 676 q 662 780 713 766 q 545 795 612 795 l 400 795 l 400 559 l 448 559 q 520 567 501 559 q 547 591 538 574 q 555 657 555 608 l 555 693 l 675 693 l 675 293 l 555 293 l 555 334 q 545 394 555 375 q 518 420 535 413 q 443 427 501 427 l 400 427 l 400 210 q 404 168 400 175 q 417 156 407 160 q 459 152 427 152 l 538 152 q 688 177 627 152 q 797 259 749 203 q 871 394 845 316 l 995 351 l 871 0 l 53 0 l 53 131 l 77 131 q 140 138 124 131 q 163 161 157 144 q 167 219 167 172 l 167 734 q 161 789 167 777 q 143 809 155 802 q 95 815 131 815 l 53 815 l 53 946 m 347 1010 l 320 1079 l 466 1209 q 582 1265 529 1265 q 651 1236 623 1265 q 680 1163 680 1206 q 655 1101 680 1131 q 569 1058 631 1072 l 347 1010 z "},"Ñ":{"ha":1027,"x_min":53,"x_max":991,"o":"m 53 946 l 437 946 l 715 394 l 715 732 q 710 786 715 775 q 692 809 703 802 q 647 815 680 815 l 601 815 l 601 946 l 991 946 l 991 815 l 948 815 q 902 808 916 815 q 882 787 888 800 q 877 732 877 774 l 877 0 l 682 0 l 331 697 l 331 210 q 336 156 331 168 q 354 138 341 144 q 400 131 368 131 l 446 131 l 446 0 l 53 0 l 53 131 l 94 131 q 140 137 127 131 q 160 157 153 142 q 168 199 168 171 l 168 742 q 161 788 168 773 q 142 809 154 802 q 104 815 131 815 l 53 815 l 53 946 m 689 1213 l 759 1179 q 690 1072 747 1119 q 573 1034 643 1034 q 435 1060 524 1034 q 387 1071 399 1071 q 371 1067 378 1071 q 345 1046 363 1063 l 269 1089 q 338 1182 288 1144 q 443 1221 389 1221 q 480 1218 463 1221 q 541 1202 498 1215 q 632 1183 606 1183 q 653 1187 644 1183 q 679 1205 663 1191 l 689 1213 z "},"Ö":{"ha":1111,"x_min":48,"x_max":1063,"o":"m 559 962 q 924 825 785 962 q 1063 473 1063 688 q 1000 217 1063 329 q 824 44 936 105 q 553 -16 711 -16 q 210 99 343 -16 q 48 471 48 238 q 190 825 48 687 q 559 962 331 962 m 562 812 q 391 731 454 812 q 311 469 311 629 q 385 214 311 308 q 555 134 450 134 q 726 214 662 134 q 801 470 801 310 q 769 659 801 583 q 682 774 736 736 q 562 812 627 812 m 390 1207 q 459 1177 430 1207 q 489 1107 489 1147 q 461 1042 489 1069 q 393 1014 433 1014 q 325 1042 353 1014 q 296 1112 296 1071 q 323 1180 296 1153 q 390 1207 350 1207 m 717 1207 q 786 1177 756 1207 q 815 1107 815 1147 q 787 1042 815 1069 q 720 1014 759 1014 q 651 1042 680 1014 q 622 1112 622 1071 q 649 1180 622 1153 q 717 1207 676 1207 z "},"Ü":{"ha":1027,"x_min":25,"x_max":1002,"o":"m 25 946 l 487 946 l 487 815 l 441 815 q 397 808 410 815 q 378 786 384 800 q 372 730 372 772 l 372 385 q 391 241 372 289 q 449 169 410 194 q 544 144 488 144 q 643 172 600 144 q 705 240 686 199 q 724 378 724 282 l 724 758 q 718 792 724 782 q 696 811 709 806 q 648 815 686 815 l 611 815 l 611 946 l 1002 946 l 1002 815 l 972 815 q 916 810 926 815 q 892 786 899 802 q 886 730 886 776 l 886 357 q 857 184 886 254 q 725 36 815 89 q 510 -16 634 -16 q 353 11 422 -16 q 232 87 284 37 q 160 193 180 137 q 139 357 139 248 l 139 722 q 134 787 139 772 q 116 808 128 802 q 68 815 104 815 l 25 815 l 25 946 m 375 1207 q 445 1177 415 1207 q 474 1107 474 1147 q 446 1042 474 1069 q 378 1014 418 1014 q 310 1042 338 1014 q 281 1112 281 1071 q 308 1180 281 1153 q 375 1207 335 1207 m 702 1207 q 771 1177 741 1207 q 800 1107 800 1147 q 772 1042 800 1069 q 705 1014 744 1014 q 636 1042 665 1014 q 607 1112 607 1071 q 634 1180 607 1153 q 702 1207 661 1207 z "},"á":{"ha":806,"x_min":44,"x_max":781,"o":"m 462 410 l 462 460 q 454 522 462 505 q 427 550 447 539 q 378 562 408 562 q 338 554 356 562 q 309 535 319 547 q 283 490 298 524 q 240 430 265 448 q 180 412 214 412 q 109 439 136 412 q 81 506 81 466 q 109 587 81 551 q 222 663 147 633 q 392 693 298 693 q 552 663 486 693 q 645 590 618 632 q 671 460 671 547 l 671 218 q 675 160 671 173 q 696 138 680 148 q 730 129 711 129 q 781 140 749 129 l 781 7 q 671 -11 724 -11 q 564 9 608 -11 q 490 71 520 30 q 367 8 422 26 q 260 -11 312 -11 q 104 44 163 -11 q 44 178 44 98 q 65 262 44 224 q 126 328 85 300 q 253 379 168 357 q 462 410 339 401 m 462 298 q 336 272 373 285 q 284 238 300 258 q 269 197 269 218 q 289 152 269 170 q 344 134 309 134 q 396 145 366 134 q 462 179 425 157 l 462 298 m 250 766 l 223 835 l 369 965 q 485 1021 432 1021 q 554 991 526 1021 q 583 919 583 962 q 558 857 583 887 q 472 814 534 827 l 250 766 z "},"à":{"ha":806,"x_min":44,"x_max":781,"o":"m 462 410 l 462 460 q 454 522 462 505 q 427 550 447 539 q 378 562 408 562 q 338 554 356 562 q 309 535 319 547 q 283 490 298 524 q 240 430 265 448 q 180 412 214 412 q 109 439 136 412 q 81 506 81 466 q 109 587 81 551 q 222 663 147 633 q 392 693 298 693 q 552 663 486 693 q 645 590 618 632 q 671 460 671 547 l 671 218 q 675 160 671 173 q 696 138 680 148 q 730 129 711 129 q 781 140 749 129 l 781 7 q 671 -11 724 -11 q 564 9 608 -11 q 490 71 520 30 q 367 8 422 26 q 260 -11 312 -11 q 104 44 163 -11 q 44 178 44 98 q 65 262 44 224 q 126 328 85 300 q 253 379 168 357 q 462 410 339 401 m 462 298 q 336 272 373 285 q 284 238 300 258 q 269 197 269 218 q 289 152 269 170 q 344 134 309 134 q 396 145 366 134 q 462 179 425 157 l 462 298 m 528 766 l 307 814 q 222 854 249 826 q 196 920 196 882 q 209 970 196 947 q 245 1007 222 994 q 291 1021 269 1021 q 410 965 347 1021 l 555 835 l 528 766 z "},"â":{"ha":806,"x_min":44,"x_max":781,"o":"m 462 410 l 462 460 q 454 522 462 505 q 427 550 447 539 q 378 562 408 562 q 338 554 356 562 q 309 535 319 547 q 283 490 298 524 q 240 430 265 448 q 180 412 214 412 q 109 439 136 412 q 81 506 81 466 q 109 587 81 551 q 222 663 147 633 q 392 693 298 693 q 552 663 486 693 q 645 590 618 632 q 671 460 671 547 l 671 218 q 675 160 671 173 q 696 138 680 148 q 730 129 711 129 q 781 140 749 129 l 781 7 q 671 -11 724 -11 q 564 9 608 -11 q 490 71 520 30 q 367 8 422 26 q 260 -11 312 -11 q 104 44 163 -11 q 44 178 44 98 q 65 262 44 224 q 126 328 85 300 q 253 379 168 357 q 462 410 339 401 m 462 298 q 336 272 373 285 q 284 238 300 258 q 269 197 269 218 q 289 152 269 170 q 344 134 309 134 q 396 145 366 134 q 462 179 425 157 l 462 298 m 627 861 l 573 769 l 374 843 l 176 769 l 122 861 l 374 1013 l 627 861 z "},"ä":{"ha":806,"x_min":44,"x_max":781,"o":"m 462 410 l 462 460 q 454 522 462 505 q 427 550 447 539 q 378 562 408 562 q 338 554 356 562 q 309 535 319 547 q 283 490 298 524 q 240 430 265 448 q 180 412 214 412 q 109 439 136 412 q 81 506 81 466 q 109 587 81 551 q 222 663 147 633 q 392 693 298 693 q 552 663 486 693 q 645 590 618 632 q 671 460 671 547 l 671 218 q 675 160 671 173 q 696 138 680 148 q 730 129 711 129 q 781 140 749 129 l 781 7 q 671 -11 724 -11 q 564 9 608 -11 q 490 71 520 30 q 367 8 422 26 q 260 -11 312 -11 q 104 44 163 -11 q 44 178 44 98 q 65 262 44 224 q 126 328 85 300 q 253 379 168 357 q 462 410 339 401 m 462 298 q 336 272 373 285 q 284 238 300 258 q 269 197 269 218 q 289 152 269 170 q 344 134 309 134 q 396 145 366 134 q 462 179 425 157 l 462 298 m 210 963 q 280 933 250 963 q 309 863 309 903 q 281 798 309 825 q 214 770 253 770 q 145 798 174 770 q 116 867 116 827 q 143 936 116 909 q 210 963 170 963 m 537 963 q 606 933 576 963 q 635 863 635 903 q 607 798 635 825 q 541 770 579 770 q 471 798 500 770 q 442 867 442 827 q 469 936 442 909 q 537 963 496 963 z "},"ã":{"ha":806,"x_min":44,"x_max":781,"o":"m 462 410 l 462 460 q 454 522 462 505 q 427 550 447 539 q 378 562 408 562 q 338 554 356 562 q 309 535 319 547 q 283 490 298 524 q 240 430 265 448 q 180 412 214 412 q 109 439 136 412 q 81 506 81 466 q 109 587 81 551 q 222 663 147 633 q 392 693 298 693 q 552 663 486 693 q 645 590 618 632 q 671 460 671 547 l 671 218 q 675 160 671 173 q 696 138 680 148 q 730 129 711 129 q 781 140 749 129 l 781 7 q 671 -11 724 -11 q 564 9 608 -11 q 490 71 520 30 q 367 8 422 26 q 260 -11 312 -11 q 104 44 163 -11 q 44 178 44 98 q 65 262 44 224 q 126 328 85 300 q 253 379 168 357 q 462 410 339 401 m 462 298 q 336 272 373 285 q 284 238 300 258 q 269 197 269 218 q 289 152 269 170 q 344 134 309 134 q 396 145 366 134 q 462 179 425 157 l 462 298 m 570 969 l 640 935 q 571 828 627 875 q 454 789 524 789 q 316 816 404 789 q 268 827 279 827 q 252 823 259 827 q 226 802 244 819 l 149 845 q 219 938 168 900 q 323 977 270 977 q 361 974 343 977 q 421 958 378 970 q 513 939 486 939 q 534 943 525 939 q 559 961 543 947 l 570 969 z "},"å":{"ha":806,"x_min":44,"x_max":781,"o":"m 462 410 l 462 460 q 454 522 462 505 q 427 550 447 539 q 378 562 408 562 q 338 554 356 562 q 309 535 319 547 q 283 490 298 524 q 240 430 265 448 q 180 412 214 412 q 109 439 136 412 q 81 506 81 466 q 109 587 81 551 q 222 663 147 633 q 392 693 298 693 q 552 663 486 693 q 645 590 618 632 q 671 460 671 547 l 671 218 q 675 160 671 173 q 696 138 680 148 q 730 129 711 129 q 781 140 749 129 l 781 7 q 671 -11 724 -11 q 564 9 608 -11 q 490 71 520 30 q 367 8 422 26 q 260 -11 312 -11 q 104 44 163 -11 q 44 178 44 98 q 65 262 44 224 q 126 328 85 300 q 253 379 168 357 q 462 410 339 401 m 462 298 q 336 272 373 285 q 284 238 300 258 q 269 197 269 218 q 289 152 269 170 q 344 134 309 134 q 396 145 366 134 q 462 179 425 157 l 462 298 m 519 920 q 477 822 519 863 q 376 781 435 781 q 275 822 317 781 q 233 922 233 863 q 275 1021 233 980 q 376 1063 317 1063 q 477 1021 435 1063 q 519 920 519 979 m 327 923 q 341 886 327 901 q 375 871 355 871 q 409 886 395 871 q 423 922 423 901 q 409 958 423 943 q 375 972 395 972 q 341 958 355 972 q 327 923 327 943 z "},"ç":{"ha":806,"x_min":51,"x_max":770,"o":"m 670 256 l 770 169 q 604 28 690 72 q 419 -16 517 -16 q 156 86 262 -16 q 51 336 51 189 q 100 518 51 435 q 235 647 149 601 q 437 693 321 693 q 666 628 577 693 q 754 492 754 564 q 740 437 754 461 q 698 398 726 413 q 637 383 669 383 q 591 393 612 383 q 557 419 571 404 q 534 461 551 426 q 499 519 511 505 q 470 542 487 534 q 431 549 453 549 q 364 527 396 549 q 311 458 332 504 q 290 355 290 412 q 315 242 290 292 q 380 167 339 193 q 471 141 421 141 q 566 167 518 141 q 670 256 614 193 m 432 0 l 432 -62 q 478 -58 462 -58 q 562 -87 529 -58 q 594 -162 594 -117 q 550 -257 594 -218 q 431 -296 506 -296 q 330 -271 366 -296 q 294 -213 294 -245 q 307 -178 294 -191 q 342 -165 319 -165 q 384 -182 361 -165 q 412 -201 401 -197 q 434 -205 422 -205 q 465 -195 454 -205 q 479 -161 479 -179 q 458 -121 479 -137 q 397 -105 437 -105 q 347 -107 376 -105 l 359 0 l 432 0 z "},"é":{"ha":806,"x_min":50,"x_max":758,"o":"m 665 251 l 758 157 q 595 25 678 66 q 416 -16 512 -16 q 155 89 261 -16 q 50 342 50 193 q 97 520 50 439 q 229 647 144 602 q 419 693 313 693 q 543 673 487 693 q 640 617 598 654 q 707 529 682 581 q 742 421 732 477 q 746 333 746 393 l 290 333 q 340 194 291 247 q 460 140 389 140 q 559 168 506 140 q 665 251 613 195 m 530 447 q 510 511 525 488 q 471 548 496 534 q 419 562 446 562 q 364 548 391 562 q 322 509 338 534 q 301 447 306 485 l 530 447 m 250 766 l 223 835 l 369 965 q 485 1021 432 1021 q 554 991 526 1021 q 583 919 583 962 q 558 857 583 887 q 472 814 534 827 l 250 766 z "},"è":{"ha":806,"x_min":50,"x_max":758,"o":"m 665 251 l 758 157 q 595 25 678 66 q 416 -16 512 -16 q 155 89 261 -16 q 50 342 50 193 q 97 520 50 439 q 229 647 144 602 q 419 693 313 693 q 543 673 487 693 q 640 617 598 654 q 707 529 682 581 q 742 421 732 477 q 746 333 746 393 l 290 333 q 340 194 291 247 q 460 140 389 140 q 559 168 506 140 q 665 251 613 195 m 530 447 q 510 511 525 488 q 471 548 496 534 q 419 562 446 562 q 364 548 391 562 q 322 509 338 534 q 301 447 306 485 l 530 447 m 555 766 l 334 814 q 250 854 276 826 q 223 920 223 882 q 236 970 223 947 q 272 1007 249 994 q 318 1021 296 1021 q 437 965 374 1021 l 583 835 l 555 766 z "},"ê":{"ha":806,"x_min":50,"x_max":758,"o":"m 665 251 l 758 157 q 595 25 678 66 q 416 -16 512 -16 q 155 89 261 -16 q 50 342 50 193 q 97 520 50 439 q 229 647 144 602 q 419 693 313 693 q 543 673 487 693 q 640 617 598 654 q 707 529 682 581 q 742 421 732 477 q 746 333 746 393 l 290 333 q 340 194 291 247 q 460 140 389 140 q 559 168 506 140 q 665 251 613 195 m 530 447 q 510 511 525 488 q 471 548 496 534 q 419 562 446 562 q 364 548 391 562 q 322 509 338 534 q 301 447 306 485 l 530 447 m 655 861 l 602 769 l 403 843 l 204 769 l 151 861 l 403 1013 l 655 861 z "},"ë":{"ha":806,"x_min":50,"x_max":758,"o":"m 665 251 l 758 157 q 595 25 678 66 q 416 -16 512 -16 q 155 89 261 -16 q 50 342 50 193 q 97 520 50 439 q 229 647 144 602 q 419 693 313 693 q 543 673 487 693 q 640 617 598 654 q 707 529 682 581 q 742 421 732 477 q 746 333 746 393 l 290 333 q 340 194 291 247 q 460 140 389 140 q 559 168 506 140 q 665 251 613 195 m 530 447 q 510 511 525 488 q 471 548 496 534 q 419 562 446 562 q 364 548 391 562 q 322 509 338 534 q 301 447 306 485 l 530 447 m 237 963 q 306 933 277 963 q 336 863 336 903 q 308 798 336 825 q 240 770 279 770 q 171 798 200 770 q 142 867 142 827 q 170 936 142 909 q 237 963 197 963 m 564 963 q 632 933 603 963 q 662 863 662 903 q 634 798 662 825 q 567 770 606 770 q 497 798 526 770 q 469 867 469 827 q 496 936 469 909 q 564 963 523 963 z "},"í":{"ha":500,"x_min":54,"x_max":473,"o":"m 370 693 l 370 192 q 374 148 370 156 q 389 135 378 140 q 436 131 399 131 l 473 131 l 473 0 l 54 0 l 54 131 l 90 131 q 135 135 125 131 q 149 147 144 138 q 154 182 154 156 l 154 506 l 54 506 l 54 633 q 156 645 107 636 q 244 666 205 654 q 306 693 269 674 l 370 693 m 98 766 l 71 835 l 216 965 q 332 1021 279 1021 q 401 991 373 1021 q 430 919 430 962 q 406 857 430 887 q 319 814 381 827 l 98 766 z "},"ì":{"ha":500,"x_min":54,"x_max":473,"o":"m 370 693 l 370 192 q 374 148 370 156 q 389 135 378 140 q 436 131 399 131 l 473 131 l 473 0 l 54 0 l 54 131 l 90 131 q 135 135 125 131 q 149 147 144 138 q 154 182 154 156 l 154 506 l 54 506 l 54 633 q 156 645 107 636 q 244 666 205 654 q 306 693 269 674 l 370 693 m 402 766 l 181 814 q 97 854 123 826 q 71 920 71 882 q 83 970 71 947 q 120 1007 96 994 q 165 1021 143 1021 q 284 965 221 1021 l 430 835 l 402 766 z "},"î":{"ha":500,"x_min":-2,"x_max":503,"o":"m 370 693 l 370 192 q 374 148 370 156 q 389 135 378 140 q 436 131 399 131 l 473 131 l 473 0 l 54 0 l 54 131 l 90 131 q 135 135 125 131 q 149 147 144 138 q 154 182 154 156 l 154 506 l 54 506 l 54 633 q 156 645 107 636 q 244 666 205 654 q 306 693 269 674 l 370 693 m 503 861 l 449 769 l 250 843 l 52 769 l -2 861 l 250 1013 l 503 861 z "},"ï":{"ha":500,"x_min":-9,"x_max":510,"o":"m 370 693 l 370 192 q 374 148 370 156 q 389 135 378 140 q 436 131 399 131 l 473 131 l 473 0 l 54 0 l 54 131 l 90 131 q 135 135 125 131 q 149 147 144 138 q 154 182 154 156 l 154 506 l 54 506 l 54 633 q 156 645 107 636 q 244 666 205 654 q 306 693 269 674 l 370 693 m 85 963 q 154 933 125 963 q 184 863 184 903 q 156 798 184 825 q 88 770 127 770 q 19 798 48 770 q -9 867 -9 827 q 18 936 -9 909 q 85 963 45 963 m 412 963 q 480 933 451 963 q 510 863 510 903 q 482 798 510 825 q 415 770 454 770 q 346 798 374 770 q 317 867 317 827 q 344 936 317 909 q 412 963 371 963 z "},"ñ":{"ha":945,"x_min":62,"x_max":912,"o":"m 353 693 l 353 603 q 485 674 430 655 q 596 693 539 693 q 712 665 662 693 q 786 596 763 637 q 809 477 809 554 l 809 195 q 814 149 809 159 q 830 134 819 139 q 879 131 838 131 l 912 131 l 912 0 l 514 0 l 514 131 q 565 133 559 132 q 587 149 582 138 q 593 195 593 159 l 593 444 q 583 507 593 492 q 531 530 566 530 q 469 517 502 530 q 379 465 435 505 l 379 195 q 389 141 379 151 q 434 131 398 131 l 456 131 l 456 0 l 62 0 l 62 131 l 81 131 q 139 135 128 131 q 156 149 151 139 q 162 189 162 159 l 162 505 l 62 505 l 62 636 q 290 693 184 651 l 353 693 m 648 969 l 718 935 q 649 828 705 875 q 532 789 602 789 q 394 816 482 789 q 346 827 357 827 q 330 823 337 827 q 304 802 322 819 l 227 845 q 297 938 246 900 q 401 977 348 977 q 439 974 421 977 q 499 958 456 970 q 591 939 564 939 q 612 943 603 939 q 637 961 621 947 l 648 969 z "},"ó":{"ha":861,"x_min":52,"x_max":810,"o":"m 429 693 q 631 648 545 693 q 763 524 717 602 q 810 340 810 446 q 707 83 810 182 q 431 -16 604 -16 q 152 83 256 -16 q 52 340 52 178 q 97 524 52 447 q 230 647 143 600 q 429 693 317 693 m 431 545 q 359 522 393 545 q 306 454 325 498 q 288 340 288 409 q 306 222 288 269 q 356 153 324 175 q 427 130 389 130 q 530 181 487 130 q 572 338 572 231 q 533 493 572 441 q 431 545 493 545 m 278 766 l 251 835 l 397 965 q 513 1021 460 1021 q 582 991 553 1021 q 610 919 610 962 q 586 857 610 887 q 500 814 562 827 l 278 766 z "},"ò":{"ha":861,"x_min":52,"x_max":810,"o":"m 429 693 q 631 648 545 693 q 763 524 717 602 q 810 340 810 446 q 707 83 810 182 q 431 -16 604 -16 q 152 83 256 -16 q 52 340 52 178 q 97 524 52 447 q 230 647 143 600 q 429 693 317 693 m 431 545 q 359 522 393 545 q 306 454 325 498 q 288 340 288 409 q 306 222 288 269 q 356 153 324 175 q 427 130 389 130 q 530 181 487 130 q 572 338 572 231 q 533 493 572 441 q 431 545 493 545 m 583 766 l 361 814 q 277 854 304 826 q 251 920 251 882 q 264 970 251 947 q 300 1007 277 994 q 346 1021 323 1021 q 465 965 401 1021 l 610 835 l 583 766 z "},"ô":{"ha":861,"x_min":52,"x_max":810,"o":"m 429 693 q 631 648 545 693 q 763 524 717 602 q 810 340 810 446 q 707 83 810 182 q 431 -16 604 -16 q 152 83 256 -16 q 52 340 52 178 q 97 524 52 447 q 230 647 143 600 q 429 693 317 693 m 431 545 q 359 522 393 545 q 306 454 325 498 q 288 340 288 409 q 306 222 288 269 q 356 153 324 175 q 427 130 389 130 q 530 181 487 130 q 572 338 572 231 q 533 493 572 441 q 431 545 493 545 m 683 861 l 629 769 l 431 843 l 232 769 l 178 861 l 431 1013 l 683 861 z "},"ö":{"ha":861,"x_min":52,"x_max":810,"o":"m 429 693 q 631 648 545 693 q 763 524 717 602 q 810 340 810 446 q 707 83 810 182 q 431 -16 604 -16 q 152 83 256 -16 q 52 340 52 178 q 97 524 52 447 q 230 647 143 600 q 429 693 317 693 m 431 545 q 359 522 393 545 q 306 454 325 498 q 288 340 288 409 q 306 222 288 269 q 356 153 324 175 q 427 130 389 130 q 530 181 487 130 q 572 338 572 231 q 533 493 572 441 q 431 545 493 545 m 265 963 q 335 933 305 963 q 364 863 364 903 q 336 798 364 825 q 269 770 308 770 q 200 798 229 770 q 171 867 171 827 q 198 936 171 909 q 265 963 225 963 m 592 963 q 661 933 631 963 q 690 863 690 903 q 662 798 690 825 q 595 770 634 770 q 526 798 555 770 q 497 867 497 827 q 524 936 497 909 q 592 963 551 963 z "},"õ":{"ha":861,"x_min":52,"x_max":810,"o":"m 429 693 q 631 648 545 693 q 763 524 717 602 q 810 340 810 446 q 707 83 810 182 q 431 -16 604 -16 q 152 83 256 -16 q 52 340 52 178 q 97 524 52 447 q 230 647 143 600 q 429 693 317 693 m 431 545 q 359 522 393 545 q 306 454 325 498 q 288 340 288 409 q 306 222 288 269 q 356 153 324 175 q 427 130 389 130 q 530 181 487 130 q 572 338 572 231 q 533 493 572 441 q 431 545 493 545 m 606 969 l 676 935 q 608 828 664 875 q 490 789 560 789 q 353 816 441 789 q 304 827 316 827 q 288 823 296 827 q 262 802 281 819 l 186 845 q 256 938 205 900 q 360 977 307 977 q 397 974 380 977 q 458 958 415 970 q 549 939 523 939 q 571 943 562 939 q 596 961 580 947 l 606 969 z "},"ú":{"ha":917,"x_min":36,"x_max":888,"o":"m 36 677 l 353 683 l 353 243 q 358 180 353 196 q 379 155 364 165 q 418 145 395 145 q 490 161 452 145 q 569 210 505 168 l 569 474 q 564 522 569 509 q 548 540 558 534 q 509 546 538 546 l 469 546 l 469 677 l 787 683 l 787 197 q 791 150 787 159 q 805 135 795 140 q 852 131 815 131 l 888 131 l 888 0 l 591 -8 l 591 72 q 471 6 531 28 q 349 -16 410 -16 q 259 0 300 -16 q 191 42 218 16 q 149 105 163 69 q 136 197 136 141 l 136 477 q 131 526 136 515 q 117 541 127 536 q 73 546 106 546 l 36 546 l 36 677 m 306 766 l 279 835 l 425 965 q 541 1021 488 1021 q 610 991 581 1021 q 638 919 638 962 q 614 857 638 887 q 528 814 589 827 l 306 766 z "},"ù":{"ha":917,"x_min":36,"x_max":888,"o":"m 36 677 l 353 683 l 353 243 q 358 180 353 196 q 379 155 364 165 q 418 145 395 145 q 490 161 452 145 q 569 210 505 168 l 569 474 q 564 522 569 509 q 548 540 558 534 q 509 546 538 546 l 469 546 l 469 677 l 787 683 l 787 197 q 791 150 787 159 q 805 135 795 140 q 852 131 815 131 l 888 131 l 888 0 l 591 -8 l 591 72 q 471 6 531 28 q 349 -16 410 -16 q 259 0 300 -16 q 191 42 218 16 q 149 105 163 69 q 136 197 136 141 l 136 477 q 131 526 136 515 q 117 541 127 536 q 73 546 106 546 l 36 546 l 36 677 m 610 766 l 389 814 q 305 854 332 826 q 279 920 279 882 q 292 970 279 947 q 328 1007 304 994 q 374 1021 351 1021 q 492 965 429 1021 l 638 835 l 610 766 z "},"û":{"ha":917,"x_min":36,"x_max":888,"o":"m 36 677 l 353 683 l 353 243 q 358 180 353 196 q 379 155 364 165 q 418 145 395 145 q 490 161 452 145 q 569 210 505 168 l 569 474 q 564 522 569 509 q 548 540 558 534 q 509 546 538 546 l 469 546 l 469 677 l 787 683 l 787 197 q 791 150 787 159 q 805 135 795 140 q 852 131 815 131 l 888 131 l 888 0 l 591 -8 l 591 72 q 471 6 531 28 q 349 -16 410 -16 q 259 0 300 -16 q 191 42 218 16 q 149 105 163 69 q 136 197 136 141 l 136 477 q 131 526 136 515 q 117 541 127 536 q 73 546 106 546 l 36 546 l 36 677 m 711 861 l 657 769 l 458 843 l 260 769 l 206 861 l 458 1013 l 711 861 z "},"ü":{"ha":917,"x_min":36,"x_max":888,"o":"m 36 677 l 353 683 l 353 243 q 358 180 353 196 q 379 155 364 165 q 418 145 395 145 q 490 161 452 145 q 569 210 505 168 l 569 474 q 564 522 569 509 q 548 540 558 534 q 509 546 538 546 l 469 546 l 469 677 l 787 683 l 787 197 q 791 150 787 159 q 805 135 795 140 q 852 131 815 131 l 888 131 l 888 0 l 591 -8 l 591 72 q 471 6 531 28 q 349 -16 410 -16 q 259 0 300 -16 q 191 42 218 16 q 149 105 163 69 q 136 197 136 141 l 136 477 q 131 526 136 515 q 117 541 127 536 q 73 546 106 546 l 36 546 l 36 677 m 279 963 q 349 933 319 963 q 378 863 378 903 q 350 798 378 825 q 283 770 322 770 q 214 798 243 770 q 185 867 185 827 q 212 936 185 909 q 279 963 239 963 m 606 963 q 675 933 646 963 q 705 863 705 903 q 676 798 705 825 q 610 770 648 770 q 540 798 569 770 q 511 867 511 827 q 538 936 511 909 q 606 963 566 963 z "},"†":{"ha":611,"x_min":38,"x_max":574,"o":"m 353 -195 l 254 -195 l 254 56 q 250 240 254 186 q 234 335 245 294 q 193 445 222 377 q 242 504 225 478 q 271 559 260 529 q 159 528 183 533 q 117 523 135 523 q 59 544 81 523 q 38 602 38 566 q 59 663 38 642 q 122 684 81 684 q 162 677 142 684 l 275 645 q 237 773 266 689 q 213 873 213 844 q 241 937 213 911 q 314 962 269 962 q 386 939 358 962 q 414 884 414 915 q 408 841 414 866 q 380 757 401 817 q 363 709 366 720 q 348 645 356 686 q 459 677 434 672 q 501 683 484 683 q 554 661 534 683 q 574 602 574 640 q 553 543 574 564 q 499 521 532 521 q 473 524 486 521 q 416 540 460 526 q 348 559 387 549 q 370 511 357 530 q 422 445 376 500 q 383 357 397 401 q 362 270 368 313 q 354 119 357 227 l 353 56 l 353 -195 z "},"°":{"ha":555,"x_min":92,"x_max":463,"o":"m 277 962 q 409 908 355 962 q 463 777 463 854 q 409 646 463 700 q 277 591 355 591 q 146 646 201 591 q 92 777 92 700 q 146 908 92 854 q 277 962 201 962 m 277 879 q 207 849 236 879 q 177 777 177 819 q 207 705 177 734 q 277 675 236 675 q 349 705 319 675 q 378 777 378 734 q 349 849 378 819 q 277 879 319 879 z "},"¢":{"ha":917,"x_min":124,"x_max":785,"o":"m 419 962 l 549 962 l 549 797 q 717 726 662 777 q 772 617 772 675 q 745 552 772 578 q 679 525 718 525 q 642 531 658 525 q 613 549 625 538 q 589 589 607 555 q 551 646 564 632 q 521 667 538 660 q 480 674 504 674 q 381 621 418 674 q 343 497 343 568 q 386 367 343 422 q 508 312 429 312 q 598 335 555 312 q 687 413 642 359 l 785 328 q 684 229 739 266 q 549 168 629 192 l 549 -15 l 419 -15 l 419 161 q 263 216 326 174 q 162 330 200 259 q 124 480 124 401 q 159 628 124 559 q 255 738 195 696 q 419 797 315 779 l 419 962 z "},"£":{"ha":917,"x_min":5,"x_max":916,"o":"m 703 659 q 680 740 697 711 q 630 785 662 768 q 556 802 597 802 q 454 771 494 802 q 413 686 413 740 q 437 580 413 632 l 670 580 l 670 474 l 469 474 q 490 338 490 401 q 475 261 490 307 q 604 210 585 215 q 672 200 637 200 q 753 237 724 200 q 783 350 783 273 q 782 380 783 359 l 913 385 q 916 314 916 346 q 850 63 916 142 q 691 -16 784 -16 q 611 -4 650 -16 q 529 35 573 7 l 420 111 q 328 17 385 50 q 203 -16 271 -16 q 61 39 117 -16 q 5 176 5 94 q 60 308 5 255 q 197 361 115 361 q 256 352 229 361 q 317 320 283 343 q 296 384 305 361 q 255 474 287 408 l 66 474 l 66 580 l 210 580 q 190 650 195 623 q 185 705 185 677 q 223 836 185 779 q 342 927 262 892 q 529 962 422 962 q 694 928 625 962 q 801 832 764 894 q 843 677 838 770 l 703 659 m 317 184 q 210 239 264 239 q 158 219 180 239 q 136 172 136 199 q 158 124 136 143 q 214 106 179 106 q 270 128 240 106 q 317 184 299 150 z "},"§":{"ha":833,"x_min":54,"x_max":779,"o":"m 198 553 q 128 617 151 584 q 97 719 97 665 q 137 836 97 780 q 256 927 176 891 q 435 962 336 962 q 673 892 576 962 q 753 762 753 834 q 726 695 753 722 q 654 669 699 669 q 583 689 612 669 q 545 741 566 701 q 490 805 522 786 q 414 825 458 825 q 332 803 362 825 q 302 754 302 781 q 324 707 302 728 q 420 664 346 686 l 532 630 q 726 530 673 587 q 779 397 779 473 q 758 309 779 350 q 688 223 737 267 q 759 144 738 184 q 779 54 779 104 q 736 -82 779 -19 q 612 -182 693 -145 q 407 -218 530 -218 q 212 -188 291 -218 q 93 -107 133 -157 q 54 -9 54 -57 q 85 72 54 39 q 165 104 117 104 q 212 94 191 104 q 246 70 233 85 q 273 28 253 63 q 320 -42 303 -26 q 369 -70 337 -58 q 437 -81 401 -81 q 511 -67 478 -81 q 558 -32 543 -54 q 574 12 574 -11 q 547 73 574 45 q 435 122 526 93 l 315 161 q 137 259 190 201 q 84 383 84 317 q 113 476 84 431 q 198 553 141 521 m 568 283 q 589 313 584 300 q 595 342 595 326 q 571 395 595 374 q 458 446 540 422 l 368 472 q 319 488 338 480 q 280 428 280 456 q 302 382 280 402 q 397 339 325 362 l 496 309 q 568 283 543 294 z "},"•":{"ha":639,"x_min":90,"x_max":549,"o":"m 319 713 q 481 646 414 713 q 549 484 549 578 q 481 322 549 389 q 319 254 414 254 q 157 321 224 254 q 90 484 90 389 q 157 646 90 578 q 319 713 224 713 z "},"¶":{"ha":1111,"x_min":168,"x_max":943,"o":"m 625 844 l 625 -300 l 532 -300 l 532 291 q 364 318 429 296 q 258 381 300 341 q 192 481 216 420 q 168 612 168 541 q 193 747 168 693 q 273 846 218 802 q 391 905 327 891 q 621 920 454 920 l 943 920 l 943 865 l 913 865 q 852 853 873 865 q 822 816 831 840 q 815 728 815 800 l 815 -300 l 724 -300 l 724 844 l 625 844 z "},"ß":{"ha":917,"x_min":50,"x_max":892,"o":"m 50 677 l 151 677 l 151 715 q 240 918 151 840 q 494 996 329 996 q 720 932 642 996 q 799 772 799 869 q 786 706 799 732 q 754 667 774 679 q 688 650 734 654 q 621 635 636 646 q 605 608 605 625 q 618 574 605 591 q 686 517 631 557 l 774 454 q 829 404 797 437 q 877 331 861 371 q 892 243 892 292 q 814 62 892 135 q 611 -11 735 -11 q 452 36 511 -11 q 393 141 393 82 q 420 208 393 180 q 488 235 448 235 q 538 219 515 235 q 583 171 549 211 q 646 131 616 131 q 689 147 672 131 q 707 186 707 163 q 690 233 707 208 q 623 295 673 258 l 551 349 q 416 566 416 449 q 460 687 416 635 q 585 758 504 738 q 572 811 583 792 q 539 840 561 829 q 488 850 518 850 q 424 834 452 850 q 382 791 395 818 q 369 715 369 765 l 369 0 l 50 0 l 50 131 l 80 131 q 130 135 119 131 q 146 150 141 140 q 151 196 151 161 l 151 534 l 50 534 l 50 677 z "},"®":{"ha":1027,"x_min":33,"x_max":996,"o":"m 514 941 q 755 876 643 941 q 931 700 867 812 q 996 460 996 589 q 931 219 996 331 q 755 43 867 108 q 514 -21 643 -21 q 274 43 385 -21 q 98 219 162 108 q 33 460 33 331 q 98 700 33 589 q 274 876 162 812 q 514 941 385 941 m 514 880 q 304 824 401 880 q 150 670 206 768 q 94 460 94 572 q 150 250 94 347 q 304 96 206 152 q 514 39 401 39 q 724 96 627 39 q 878 250 822 152 q 935 460 935 347 q 878 670 935 572 q 724 824 822 768 q 514 880 627 880 m 257 739 l 503 739 q 647 723 604 739 q 717 670 691 707 q 743 591 743 634 q 706 496 743 536 q 622 450 677 465 l 715 281 q 753 229 733 247 q 786 214 766 218 l 786 191 l 622 191 l 483 440 l 452 440 l 452 306 q 458 246 452 261 q 479 223 465 231 q 533 214 494 215 l 533 191 l 246 191 l 246 214 q 298 225 285 214 q 317 306 317 243 l 317 626 q 306 696 317 681 q 257 716 294 712 l 257 739 m 452 475 q 490 471 475 471 q 566 505 535 471 q 597 593 597 538 q 568 680 597 650 q 477 709 538 709 l 452 709 l 452 475 z "},"©":{"ha":1027,"x_min":33,"x_max":996,"o":"m 514 941 q 755 876 643 941 q 931 700 867 812 q 996 460 996 589 q 931 219 996 331 q 755 43 867 108 q 514 -21 643 -21 q 274 43 385 -21 q 98 219 162 108 q 33 460 33 331 q 98 700 33 589 q 274 876 162 812 q 514 941 385 941 m 514 880 q 304 824 401 880 q 150 670 206 768 q 94 460 94 572 q 150 250 94 347 q 304 96 206 152 q 514 39 401 39 q 724 96 627 39 q 878 250 822 152 q 935 460 935 347 q 878 670 935 572 q 724 824 822 768 q 514 880 627 880 m 741 750 l 741 571 l 715 571 q 657 679 703 640 q 549 718 611 718 q 422 656 471 718 q 374 471 374 595 q 393 326 374 376 q 455 246 413 275 q 545 217 498 217 q 609 228 576 217 q 667 256 641 238 q 722 311 692 274 l 722 263 q 642 205 686 224 q 507 177 580 177 q 358 213 425 177 q 256 311 292 249 q 221 453 221 372 q 306 667 221 583 q 519 751 391 751 q 580 745 551 751 q 653 724 609 740 q 684 715 675 715 q 715 750 711 715 l 741 750 z "},"™":{"ha":1361,"x_min":-16,"x_max":1382,"o":"m -16 920 l 511 920 l 511 766 l 487 766 q 471 831 486 803 q 431 872 456 859 q 355 884 406 884 l 330 884 l 330 486 q 335 425 330 439 q 354 404 340 412 q 399 395 368 395 l 399 372 l 92 372 l 92 395 q 142 404 132 398 q 156 424 151 410 q 161 488 161 438 l 161 884 l 138 884 q 36 851 68 884 q 6 766 11 824 l -16 766 l -16 920 m 585 920 l 835 920 l 991 584 l 1147 920 l 1382 920 l 1382 894 q 1337 887 1350 894 q 1318 863 1324 880 q 1314 803 1314 852 l 1314 483 q 1319 427 1314 439 q 1338 406 1324 414 q 1382 395 1352 397 l 1382 372 l 1069 372 l 1069 395 q 1121 403 1108 396 q 1140 425 1134 410 q 1147 483 1147 440 l 1147 826 l 930 372 l 913 372 l 698 826 l 698 486 q 703 425 698 437 q 724 404 709 412 q 776 395 739 396 l 776 372 l 585 372 l 585 395 q 636 404 625 397 q 654 425 648 411 q 660 487 660 439 l 660 804 q 653 867 660 851 q 630 890 646 882 q 585 894 620 894 l 585 920 z "},"´":{"ha":555,"x_min":98,"x_max":458,"o":"m 125 766 l 98 835 l 244 965 q 360 1021 307 1021 q 429 991 401 1021 q 458 919 458 962 q 433 857 458 887 q 347 814 409 827 l 125 766 z "},"¨":{"ha":694,"x_min":87,"x_max":607,"o":"m 182 963 q 251 933 222 963 q 281 863 281 903 q 253 798 281 825 q 185 770 224 770 q 116 798 145 770 q 87 867 87 827 q 115 936 87 909 q 182 963 142 963 m 509 963 q 577 933 548 963 q 607 863 607 903 q 579 798 607 825 q 512 770 551 770 q 443 798 471 770 q 414 867 414 827 q 441 936 414 909 q 509 963 468 963 z "},"≠":{"ha":762,"x_min":45,"x_max":718,"o":"m 563 666 l 718 666 l 718 538 l 483 538 l 401 408 l 718 408 l 718 279 l 320 279 l 191 75 l 71 75 l 200 279 l 45 279 l 45 408 l 280 408 l 362 538 l 45 538 l 45 666 l 442 666 l 571 871 l 692 871 l 563 666 z "},"Æ":{"ha":1584,"x_min":-1,"x_max":1577,"o":"m 283 946 l 1426 946 l 1533 648 l 1410 602 q 1333 725 1371 686 q 1244 779 1294 765 q 1122 793 1195 793 l 969 793 l 969 558 l 1028 558 q 1102 566 1083 558 q 1129 592 1120 574 q 1138 659 1138 610 l 1138 690 l 1260 690 l 1260 292 l 1138 292 l 1138 333 q 1129 392 1138 372 q 1104 419 1121 412 q 1034 426 1087 426 l 969 426 l 969 211 q 974 168 969 178 q 987 155 978 159 q 1034 151 996 151 l 1115 151 q 1326 209 1245 151 q 1454 392 1408 266 l 1577 351 l 1454 0 l 623 0 l 623 131 l 645 131 q 707 137 692 131 q 728 158 721 143 q 734 218 734 173 l 734 371 l 379 371 l 302 201 q 292 165 292 178 q 308 137 292 146 q 353 131 319 131 l 395 131 l 395 0 l -1 0 l -1 131 q 53 137 35 131 q 79 153 70 142 q 110 201 94 169 l 368 737 q 385 785 385 771 q 366 809 385 802 q 313 815 353 815 l 283 815 l 283 946 m 734 507 l 734 793 l 567 793 l 439 507 l 734 507 z "},"Ø":{"ha":1111,"x_min":49,"x_max":1064,"o":"m 886 859 l 992 962 l 1061 892 l 956 791 q 1064 473 1064 663 q 1000 217 1064 328 q 824 44 937 105 q 554 -16 712 -16 q 373 9 453 -16 q 227 85 292 34 l 121 -16 l 52 54 l 156 154 q 75 297 102 220 q 49 470 49 374 q 190 825 49 687 q 560 962 332 962 q 738 937 659 962 q 886 859 817 912 m 739 717 q 660 787 708 762 q 558 812 612 812 q 389 730 454 812 q 311 469 311 629 q 330 323 311 385 l 739 717 m 781 622 l 374 229 q 555 134 441 134 q 725 214 662 134 q 801 470 801 310 q 781 622 801 555 z "},"∞":{"ha":990,"x_min":36,"x_max":954,"o":"m 443 452 q 509 568 477 532 q 586 622 541 604 q 694 640 631 640 q 827 604 768 640 q 920 505 886 568 q 954 357 954 441 q 863 136 954 219 q 717 73 795 73 q 593 121 650 73 q 488 267 554 154 q 425 173 456 205 q 354 125 393 141 q 269 109 315 109 q 103 179 170 109 q 36 359 36 249 q 98 538 36 469 q 244 608 159 608 q 355 571 308 608 q 443 452 395 541 m 508 315 q 607 174 557 212 q 720 136 656 136 q 863 201 811 136 q 915 357 915 266 q 857 522 915 456 q 724 587 798 587 q 647 567 680 587 q 585 500 614 547 q 508 315 566 467 m 423 400 q 343 513 387 481 q 242 545 299 545 q 122 494 170 545 q 73 359 73 444 q 120 216 73 271 q 229 161 168 161 q 336 212 288 161 q 416 377 374 251 l 423 400 z "},"±":{"ha":762,"x_min":45,"x_max":718,"o":"m 718 500 l 450 500 l 450 232 l 313 232 l 313 500 l 45 500 l 45 628 l 313 628 l 313 896 l 450 896 l 450 628 l 718 628 l 718 500 m 718 50 l 45 50 l 45 178 l 718 178 l 718 50 z "},"≤":{"ha":762,"x_min":45,"x_max":718,"o":"m 718 309 l 718 178 l 45 494 l 45 609 l 718 925 l 718 794 l 214 551 l 718 309 m 718 0 l 45 0 l 45 127 l 718 127 l 718 0 z "},"≥":{"ha":762,"x_min":45,"x_max":718,"o":"m 45 794 l 45 925 l 718 609 l 718 494 l 45 178 l 45 309 l 550 551 l 45 794 m 718 0 l 45 0 l 45 127 l 718 127 l 718 0 z "},"¥":{"ha":917,"x_min":-27,"x_max":943,"o":"m 494 538 l 500 538 l 635 747 q 656 778 654 774 q 659 793 659 785 q 651 810 659 804 q 614 815 643 815 l 566 815 l 566 946 l 943 946 l 943 815 q 874 804 894 814 q 826 751 854 793 l 680 538 l 846 538 l 846 439 l 612 439 l 574 384 l 574 325 l 846 325 l 846 227 l 574 227 q 579 158 574 172 q 598 138 584 145 q 654 131 612 131 l 687 131 l 687 0 l 226 0 l 226 131 l 251 131 q 314 138 300 131 q 334 160 328 144 q 341 227 341 175 l 71 227 l 71 325 l 341 325 l 341 368 l 294 439 l 71 439 l 71 538 l 230 538 l 90 751 q 37 808 60 796 q -27 815 21 815 l -27 946 l 443 946 l 443 815 l 408 815 q 361 809 370 815 q 351 791 351 804 q 373 738 351 773 l 494 538 z "},"µ":{"ha":800,"x_min":45,"x_max":785,"o":"m 108 677 l 307 677 l 307 273 q 316 173 307 199 q 348 131 325 147 q 399 115 372 115 q 432 120 416 115 q 492 153 448 126 l 492 677 l 692 677 l 692 229 q 696 151 692 168 q 713 118 702 128 q 741 109 724 109 q 785 122 759 109 l 785 79 q 661 3 705 24 q 606 -11 629 -11 q 551 15 578 -11 q 505 94 523 41 q 411 8 456 36 q 315 -20 366 -20 q 223 9 263 -20 q 168 79 195 30 q 172 32 169 49 q 190 -26 177 9 q 220 -116 214 -92 q 226 -162 226 -140 q 200 -228 226 -201 q 134 -254 174 -254 q 71 -227 96 -254 q 45 -160 45 -201 q 54 -93 45 -134 q 89 73 83 34 q 101 189 97 127 q 108 355 108 283 l 108 677 z "},"∂":{"ha":686,"x_min":54,"x_max":659,"o":"m 252 780 l 223 780 q 307 914 254 865 q 459 972 369 972 q 567 944 522 972 q 635 862 612 915 q 659 706 659 808 q 596 310 659 475 q 446 56 534 144 q 268 -16 375 -16 q 156 10 203 -16 q 81 87 109 36 q 54 199 54 138 q 114 406 54 300 q 275 576 175 511 q 452 633 363 633 q 612 532 563 633 q 617 618 617 587 q 590 736 617 686 q 519 812 563 787 q 405 837 475 837 q 316 824 351 837 q 252 780 282 810 m 601 469 q 541 568 578 538 q 456 599 503 599 q 366 560 410 599 q 273 399 310 509 q 227 144 227 266 q 247 55 227 79 q 308 30 267 30 q 395 62 354 30 q 517 221 460 112 q 601 469 574 331 z "},"∑":{"ha":990,"x_min":29,"x_max":963,"o":"m 920 -300 l 29 -300 l 29 -275 l 483 336 l 29 938 l 29 963 l 896 963 l 914 734 l 887 734 q 868 816 882 783 q 835 868 854 849 q 788 898 816 887 q 718 908 760 908 l 216 908 l 597 395 l 171 -180 l 726 -180 q 819 -165 770 -180 q 893 -117 867 -150 q 936 -13 919 -83 l 963 -18 l 920 -300 z "},"∏":{"ha":1143,"x_min":31,"x_max":1112,"o":"m 841 910 l 302 910 l 302 -169 q 315 -233 302 -207 q 342 -260 324 -252 q 412 -274 374 -274 l 436 -274 l 436 -300 l 31 -300 l 31 -274 l 55 -274 q 123 -261 94 -274 q 151 -235 143 -252 q 165 -169 165 -206 l 165 833 q 152 897 165 871 q 125 923 142 916 q 55 938 93 938 l 31 938 l 31 963 l 1112 963 l 1112 938 l 1088 938 q 1021 924 1049 938 q 992 899 1000 915 q 979 833 979 869 l 979 -169 q 991 -233 979 -207 q 1018 -260 1001 -252 q 1088 -274 1050 -274 l 1112 -274 l 1112 -300 l 707 -300 l 707 -274 l 731 -274 q 799 -261 770 -274 q 827 -235 819 -252 q 841 -169 841 -206 l 841 910 z "},"":{"ha":762,"x_min":35,"x_max":705,"o":"m 705 634 l 705 494 l 559 494 l 540 324 q 534 206 534 259 q 550 122 534 145 q 593 99 565 99 q 673 214 661 99 l 699 214 q 675 79 695 131 q 625 4 656 26 q 555 -19 594 -19 q 489 4 519 -19 q 443 73 459 26 q 426 205 426 120 q 433 342 426 264 l 450 494 l 315 494 q 282 149 297 225 q 222 4 262 45 q 169 -19 199 -19 q 117 2 137 -19 q 97 50 97 22 q 135 153 97 86 q 181 267 172 219 q 203 494 201 367 q 142 489 161 494 q 94 465 111 481 q 60 415 76 449 l 35 415 q 80 526 54 480 q 133 595 106 571 q 183 626 159 618 q 276 634 208 634 l 705 634 z "},"∫":{"ha":380,"x_min":0,"x_max":380,"o":"m 136 607 q 143 898 136 732 q 157 1078 149 1024 q 192 1197 169 1149 q 236 1244 205 1225 q 295 1263 267 1263 q 354 1241 328 1263 q 380 1191 380 1219 q 362 1140 380 1160 q 317 1120 344 1120 q 266 1145 294 1120 q 239 1158 250 1158 q 219 1148 227 1158 q 212 1115 212 1139 q 218 1017 212 1087 q 243 567 243 738 q 238 355 243 519 l 231 130 q 210 -10 225 50 q 175 -97 195 -69 q 132 -137 155 -125 q 80 -149 108 -149 q 22 -126 45 -149 q 0 -67 0 -103 q 17 -19 0 -37 q 61 0 35 0 q 109 -22 88 0 q 127 -40 122 -37 q 141 -43 133 -43 q 160 -34 153 -43 q 168 -2 168 -24 q 161 79 168 26 q 143 316 151 166 q 136 607 136 466 z "},"ª":{"ha":555,"x_min":37,"x_max":532,"o":"m 532 633 l 532 534 q 453 521 488 521 q 385 532 413 521 q 333 568 357 543 q 184 521 254 521 q 76 556 116 521 q 37 641 37 591 q 89 730 37 696 q 309 787 154 774 q 305 844 309 831 q 290 863 301 856 q 260 871 279 871 q 233 864 243 871 q 207 833 222 857 q 177 802 194 810 q 136 793 161 793 q 84 810 102 793 q 66 854 66 826 q 83 900 66 880 q 157 945 106 927 q 273 962 209 962 q 380 942 336 962 q 443 895 425 922 q 460 813 460 867 l 460 667 q 465 633 460 640 q 491 624 474 624 q 532 633 502 624 m 309 714 q 237 699 252 705 q 207 679 216 690 q 199 652 199 668 q 210 622 199 633 q 242 611 222 611 q 309 635 265 611 l 309 714 z "},"º":{"ha":555,"x_min":23,"x_max":532,"o":"m 277 962 q 463 900 394 962 q 532 741 532 838 q 464 581 532 644 q 278 517 395 517 q 91 579 159 517 q 23 741 23 642 q 89 896 23 837 q 277 962 163 962 m 278 854 q 217 826 240 854 q 193 741 193 798 q 216 652 193 680 q 275 625 239 625 q 337 653 313 625 q 361 739 361 682 q 338 826 361 797 q 278 854 315 854 z "},"Ω":{"ha":1067,"x_min":22,"x_max":1044,"o":"m 418 243 l 441 0 l 22 0 l 22 256 l 46 256 q 57 203 48 218 q 90 173 71 182 q 154 165 109 165 l 376 165 l 372 212 q 194 284 258 238 q 93 403 130 330 q 56 559 56 477 q 121 762 56 669 q 292 898 186 855 q 533 941 398 941 q 772 899 666 941 q 945 763 879 857 q 1010 559 1010 670 q 973 403 1010 477 q 872 284 936 330 q 694 212 808 238 l 690 165 l 912 165 q 970 171 956 165 q 1008 202 992 179 q 1020 256 1018 217 l 1044 256 l 1044 0 l 625 0 l 648 243 q 714 291 690 260 q 755 388 739 322 q 772 545 772 453 q 743 741 772 673 q 657 849 714 810 q 533 888 600 888 q 410 850 466 888 q 324 743 354 812 q 294 551 294 674 q 311 388 294 454 q 352 292 327 323 q 418 243 376 260 z "},"æ":{"ha":1222,"x_min":49,"x_max":1171,"o":"m 1161 328 l 693 328 l 693 316 q 744 192 693 244 q 867 140 795 140 q 974 168 919 140 q 1080 251 1029 195 l 1171 157 q 1030 35 1099 75 q 830 -16 939 -16 q 690 10 748 -16 q 564 110 633 37 q 409 15 473 41 q 273 -11 345 -11 q 111 44 172 -11 q 49 179 49 99 q 74 272 49 231 q 153 341 100 312 q 294 391 207 371 q 475 417 350 403 l 475 465 q 452 537 475 514 q 387 560 430 560 q 326 543 348 560 q 283 477 302 526 q 251 427 267 439 q 183 406 222 406 q 110 434 139 406 q 81 500 81 463 q 118 591 81 545 q 225 665 154 637 q 397 693 297 693 q 526 677 473 693 q 620 627 578 661 q 833 693 709 693 q 1079 593 997 693 q 1161 353 1161 494 l 1161 328 m 945 443 q 926 510 941 486 q 886 549 911 535 q 830 564 861 564 q 745 530 781 564 q 701 443 709 497 l 945 443 m 475 304 q 306 257 340 280 q 271 198 271 233 q 292 150 271 169 q 348 130 314 130 q 398 141 368 130 q 475 180 437 156 l 475 304 z "},"ø":{"ha":861,"x_min":52,"x_max":810,"o":"m 669 625 l 743 693 l 810 622 l 740 557 q 810 340 810 467 q 707 83 810 182 q 431 -16 604 -16 q 191 51 289 -16 l 119 -16 l 52 56 l 119 118 q 52 341 52 206 q 97 524 52 447 q 230 647 143 600 q 429 693 317 693 q 669 625 570 693 m 530 496 q 433 545 491 545 q 359 522 393 545 q 307 454 326 499 q 288 341 288 410 q 292 278 288 310 l 530 496 m 568 399 l 329 178 q 373 143 347 156 q 428 130 399 130 q 529 180 486 130 q 572 336 572 230 q 568 399 572 370 z "},"¿":{"ha":917,"x_min":83,"x_max":846,"o":"m 568 410 q 479 448 516 410 q 442 536 442 485 q 479 626 442 589 q 568 663 516 663 q 658 626 621 663 q 695 536 695 589 q 658 447 695 484 q 568 410 621 410 m 504 365 l 633 365 l 633 106 l 591 106 q 410 94 463 106 q 332 54 356 81 q 309 -7 309 26 q 379 -123 309 -77 q 510 -162 439 -162 q 575 -145 546 -162 q 637 -82 604 -128 q 687 -29 667 -41 q 744 -14 714 -14 q 817 -43 787 -14 q 846 -114 846 -72 q 745 -255 846 -200 q 511 -310 644 -310 q 284 -263 387 -310 q 133 -143 182 -216 q 83 12 83 -71 q 138 168 83 102 q 291 264 193 234 q 504 286 354 283 l 504 365 z "},"¡":{"ha":500,"x_min":122,"x_max":378,"o":"m 251 410 q 161 448 198 410 q 124 536 124 485 q 161 626 124 589 q 251 663 198 663 q 340 626 303 663 q 377 536 377 589 q 340 447 377 484 q 251 410 303 410 m 183 364 l 315 364 q 332 147 326 201 l 374 -127 q 378 -181 378 -160 q 361 -245 378 -214 q 314 -293 344 -275 q 251 -310 283 -310 q 187 -292 218 -310 q 139 -244 156 -275 q 122 -179 122 -214 q 129 -111 122 -153 q 174 189 162 85 q 183 364 182 266 z "},"¬":{"ha":833,"x_min":81,"x_max":753,"o":"m 753 269 l 625 269 l 625 514 l 81 514 l 81 642 l 753 642 l 753 269 z "},"√":{"ha":762,"x_min":57,"x_max":762,"o":"m 712 1267 l 762 1267 l 551 -53 l 214 640 l 80 578 l 57 621 l 261 724 l 536 165 l 712 1267 z "},"ƒ":{"ha":917,"x_min":-121,"x_max":914,"o":"m 323 570 l 182 570 l 206 677 l 346 677 l 360 740 q 472 931 388 866 q 695 996 557 996 q 860 956 805 996 q 914 861 914 916 q 902 813 914 836 q 869 780 890 791 q 821 768 847 768 q 786 773 804 768 q 753 789 769 779 q 718 821 743 795 q 688 848 695 844 q 667 854 677 854 q 630 834 648 854 q 602 761 613 814 l 583 677 l 741 677 l 716 570 l 558 570 l 425 -25 q 323 -231 395 -160 q 83 -320 231 -320 q -67 -280 -14 -320 q -121 -186 -121 -239 q -92 -119 -121 -148 q -26 -90 -64 -90 q 9 -96 -9 -90 q 43 -113 26 -102 q 76 -145 54 -120 q 105 -174 98 -170 q 124 -179 113 -179 q 158 -160 144 -179 q 186 -73 172 -142 l 323 570 z "},"≈":{"ha":762,"x_min":34,"x_max":728,"o":"m 653 748 l 728 663 q 656 563 686 593 q 596 519 627 533 q 531 505 565 505 q 482 512 507 505 q 376 553 457 519 q 271 595 286 591 q 237 600 256 600 q 177 577 204 600 q 109 481 149 555 l 34 567 q 105 671 75 639 q 168 719 135 703 q 233 734 201 734 q 292 726 262 734 q 404 684 333 715 q 497 646 478 652 q 530 640 516 640 q 587 661 559 640 q 653 748 614 682 m 653 454 l 728 369 q 656 269 686 299 q 596 225 627 239 q 531 211 565 211 q 482 218 507 211 q 376 259 457 224 q 271 301 286 296 q 237 305 256 305 q 177 282 204 305 q 109 186 149 260 l 34 273 q 105 377 75 345 q 168 425 135 409 q 233 440 201 440 q 292 432 262 440 q 404 389 333 420 q 497 351 478 357 q 530 346 516 346 q 587 367 559 346 q 653 454 614 387 z "},"∆":{"ha":850,"x_min":18,"x_max":831,"o":"m 831 0 l 18 0 l 444 941 l 831 0 m 671 56 l 401 711 l 102 56 l 671 56 z "},"«":{"ha":555,"x_min":37,"x_max":510,"o":"m 172 591 l 260 561 l 185 337 l 260 114 l 172 83 l 37 337 l 172 591 m 421 591 l 510 561 l 435 337 l 510 114 l 421 83 l 288 337 l 421 591 z "},"»":{"ha":555,"x_min":45,"x_max":518,"o":"m 384 83 l 296 114 l 370 338 l 296 561 l 384 591 l 518 338 l 384 83 m 134 83 l 45 114 l 120 338 l 45 561 l 134 591 l 268 338 l 134 83 z "},"…":{"ha":1389,"x_min":105,"x_max":1284,"o":"m 694 241 q 784 204 747 241 q 821 115 821 168 q 784 26 821 63 q 694 -11 747 -11 q 605 26 642 -11 q 568 115 568 63 q 605 204 568 168 q 694 241 642 241 m 232 241 q 321 204 284 241 q 358 115 358 168 q 321 26 358 63 q 232 -11 284 -11 q 142 26 179 -11 q 105 115 105 63 q 142 204 105 168 q 232 241 179 241 m 1158 241 q 1247 204 1210 241 q 1284 115 1284 168 q 1247 26 1284 63 q 1158 -11 1210 -11 q 1068 26 1105 -11 q 1031 115 1031 63 q 1068 204 1031 168 q 1158 241 1105 241 z "}," ":{"ha":472,"x_min":0,"x_max":0,"o":""},"À":{"ha":1000,"x_min":1,"x_max":999,"o":"m 395 946 l 608 946 l 892 216 q 933 144 915 157 q 999 131 951 130 l 999 0 l 551 0 l 551 131 l 578 132 q 631 141 616 132 q 646 165 646 151 q 633 216 646 178 l 605 302 l 317 302 l 281 206 q 271 166 271 176 q 278 146 271 155 q 304 134 286 138 q 368 131 315 131 l 368 0 l 1 0 l 1 131 q 53 137 37 131 q 80 155 69 143 q 103 201 90 168 l 395 946 m 366 437 l 555 437 l 463 697 l 366 437 m 611 1010 l 390 1058 q 306 1098 332 1070 q 279 1164 279 1126 q 292 1214 279 1191 q 329 1252 305 1238 q 374 1265 352 1265 q 493 1209 430 1265 l 639 1079 l 611 1010 z "},"Ã":{"ha":1000,"x_min":1,"x_max":999,"o":"m 395 946 l 608 946 l 892 216 q 933 144 915 157 q 999 131 951 130 l 999 0 l 551 0 l 551 131 l 578 132 q 631 141 616 132 q 646 165 646 151 q 633 216 646 178 l 605 302 l 317 302 l 281 206 q 271 166 271 176 q 278 146 271 155 q 304 134 286 138 q 368 131 315 131 l 368 0 l 1 0 l 1 131 q 53 137 37 131 q 80 155 69 143 q 103 201 90 168 l 395 946 m 366 437 l 555 437 l 463 697 l 366 437 m 675 1213 l 745 1179 q 677 1072 733 1119 q 559 1034 629 1034 q 422 1060 510 1034 q 374 1071 385 1071 q 357 1067 365 1071 q 332 1046 350 1063 l 255 1089 q 325 1182 274 1144 q 429 1221 376 1221 q 467 1218 449 1221 q 527 1202 484 1215 q 618 1183 592 1183 q 640 1187 631 1183 q 665 1205 649 1191 l 675 1213 z "},"Õ":{"ha":1111,"x_min":48,"x_max":1063,"o":"m 559 962 q 924 825 785 962 q 1063 473 1063 688 q 1000 217 1063 329 q 824 44 936 105 q 553 -16 711 -16 q 210 99 343 -16 q 48 471 48 238 q 190 825 48 687 q 559 962 331 962 m 562 812 q 391 731 454 812 q 311 469 311 629 q 385 214 311 308 q 555 134 450 134 q 726 214 662 134 q 801 470 801 310 q 769 659 801 583 q 682 774 736 736 q 562 812 627 812 m 738 1213 l 808 1179 q 739 1072 795 1119 q 622 1034 692 1034 q 484 1060 572 1034 q 436 1071 448 1071 q 420 1067 427 1071 q 394 1046 412 1063 l 317 1089 q 387 1182 336 1144 q 492 1221 438 1221 q 529 1218 511 1221 q 589 1202 547 1215 q 681 1183 654 1183 q 702 1187 693 1183 q 728 1205 711 1191 l 738 1213 z "},"Œ":{"ha":1695,"x_min":51,"x_max":1687,"o":"m 839 946 l 1535 946 l 1643 647 l 1519 603 q 1468 694 1498 654 q 1404 756 1438 734 q 1325 787 1370 778 q 1234 793 1295 793 l 1072 793 l 1072 558 l 1138 558 q 1213 566 1194 558 q 1239 591 1231 574 q 1247 660 1247 608 l 1247 693 l 1369 693 l 1369 292 l 1247 292 l 1247 323 q 1239 393 1247 376 q 1214 418 1231 410 q 1143 426 1198 426 l 1072 426 l 1072 217 q 1076 169 1072 178 q 1086 156 1079 159 q 1128 151 1097 151 l 1209 151 q 1351 168 1294 151 q 1476 241 1427 191 q 1563 392 1525 291 l 1687 351 l 1563 0 l 839 0 l 839 70 q 709 4 779 25 q 549 -16 639 -16 q 189 121 328 -16 q 51 471 51 258 q 114 724 51 613 q 294 898 177 834 q 555 962 411 962 q 731 936 647 962 q 839 884 789 918 l 839 946 m 574 812 q 442 772 503 812 q 347 659 380 732 q 313 474 313 585 q 388 224 313 313 q 574 136 463 136 q 762 226 686 136 q 838 473 838 316 q 759 728 838 633 q 574 812 688 812 z "},"œ":{"ha":1305,"x_min":54,"x_max":1257,"o":"m 1244 329 l 786 329 q 843 190 794 239 q 961 140 891 140 q 1059 167 1007 140 q 1160 248 1111 193 l 1257 159 q 1090 23 1170 62 q 921 -16 1010 -16 q 785 9 848 -16 q 682 77 722 34 q 568 8 634 32 q 420 -16 502 -16 q 227 30 311 -16 q 98 152 143 75 q 54 337 54 229 q 153 591 54 497 q 431 693 260 693 q 572 672 511 693 q 682 606 633 650 q 795 673 741 654 q 919 693 850 693 q 1092 650 1019 693 q 1204 534 1165 608 q 1244 329 1242 460 m 1028 443 q 1010 509 1025 482 q 972 550 996 536 q 920 565 948 565 q 841 534 873 565 q 795 443 808 504 l 1028 443 m 435 546 q 362 523 396 546 q 310 451 329 499 q 290 334 290 404 q 325 189 290 245 q 429 132 360 132 q 533 184 492 132 q 574 342 574 237 q 534 493 574 441 q 435 546 494 546 z "},"–":{"ha":694,"x_min":-8,"x_max":703,"o":"m 703 444 l 703 294 l -8 294 l -8 444 l 703 444 z "},"—":{"ha":1389,"x_min":-8,"x_max":1397,"o":"m 1397 444 l 1397 294 l -8 294 l -8 444 l 1397 444 z "},"“":{"ha":750,"x_min":54,"x_max":675,"o":"m 597 996 l 674 911 q 561 799 585 830 q 523 722 537 767 q 549 735 536 731 q 576 740 562 740 q 645 707 615 740 q 675 629 675 675 q 637 537 675 574 q 545 500 599 500 q 468 523 505 500 q 410 586 431 546 q 389 677 389 625 q 447 846 389 764 q 597 996 504 928 m 261 996 l 338 911 q 225 799 248 830 q 187 722 201 767 q 213 735 200 731 q 240 740 227 740 q 309 707 279 740 q 338 629 338 675 q 301 537 338 574 q 209 500 263 500 q 132 523 169 500 q 74 586 95 546 q 54 677 54 625 q 111 846 54 764 q 261 996 168 928 z "},"”":{"ha":750,"x_min":75,"x_max":696,"o":"m 153 500 l 76 585 q 189 697 165 666 q 227 774 212 729 q 201 761 214 766 q 174 756 187 756 q 105 789 135 756 q 75 867 75 821 q 113 959 75 922 q 205 996 151 996 q 282 973 245 996 q 340 910 319 950 q 360 819 360 871 q 303 650 360 732 q 153 500 246 568 m 489 500 l 412 585 q 525 697 501 666 q 563 774 549 729 q 537 761 550 766 q 509 756 524 756 q 441 789 471 756 q 411 867 411 821 q 449 959 411 922 q 541 996 487 996 q 618 973 581 996 q 676 910 655 950 q 696 819 696 871 q 639 650 696 732 q 489 500 582 568 z "},"‘":{"ha":444,"x_min":69,"x_max":354,"o":"m 277 996 l 354 911 q 240 799 264 830 q 203 722 217 767 q 229 735 216 731 q 256 740 242 740 q 325 707 295 740 q 354 629 354 675 q 316 537 354 574 q 224 500 279 500 q 148 523 184 500 q 90 586 111 546 q 69 677 69 625 q 126 846 69 764 q 277 996 184 928 z "},"’":{"ha":444,"x_min":90,"x_max":375,"o":"m 168 500 l 91 585 q 204 697 180 666 q 242 774 227 729 q 216 761 229 766 q 189 756 202 756 q 120 789 150 756 q 90 867 90 821 q 128 959 90 922 q 220 996 165 996 q 297 973 260 996 q 355 910 334 950 q 375 819 375 871 q 318 650 375 732 q 168 500 261 568 z "},"÷":{"ha":762,"x_min":45,"x_max":718,"o":"m 382 791 q 446 765 420 791 q 473 701 473 739 q 446 636 473 663 q 381 610 418 610 q 317 636 344 610 q 290 701 290 663 q 317 765 290 739 q 382 791 344 791 m 718 409 l 45 409 l 45 536 l 718 536 l 718 409 m 382 336 q 446 310 420 336 q 473 246 473 283 q 446 181 473 208 q 381 154 418 154 q 317 181 344 154 q 290 245 290 208 q 317 310 290 283 q 382 336 344 336 z "},"◊":{"ha":686,"x_min":32,"x_max":656,"o":"m 372 964 l 656 481 l 372 0 l 297 0 l 32 481 l 297 964 l 372 964 m 336 899 l 105 481 l 336 64 l 579 481 l 336 899 z "},"ÿ":{"ha":861,"x_min":11,"x_max":853,"o":"m 11 677 l 434 677 l 434 546 l 406 546 q 358 541 368 546 q 349 526 349 536 q 363 484 349 518 l 465 239 l 571 484 q 583 524 583 511 q 573 540 583 534 q 526 546 563 546 l 488 546 l 488 677 l 853 677 l 853 546 q 797 543 805 545 q 778 532 785 540 q 753 491 770 525 l 447 -138 q 342 -275 399 -236 q 205 -315 284 -315 q 80 -274 127 -315 q 32 -181 32 -233 q 60 -111 32 -140 q 129 -81 89 -81 q 182 -95 156 -81 q 216 -125 199 -104 q 234 -142 227 -138 q 246 -146 240 -146 q 274 -132 260 -146 q 320 -56 294 -111 l 346 0 l 115 484 q 89 530 98 520 q 68 543 80 539 q 11 546 57 546 l 11 677 m 299 963 q 369 933 339 963 q 398 863 398 903 q 370 798 398 825 q 302 770 342 770 q 234 798 262 770 q 205 867 205 827 q 232 936 205 909 q 299 963 259 963 m 626 963 q 695 933 665 963 q 724 863 724 903 q 696 798 724 825 q 629 770 668 770 q 560 798 589 770 q 531 867 531 827 q 558 936 531 909 q 626 963 585 963 z "},"Ÿ":{"ha":972,"x_min":1,"x_max":971,"o":"m 1 946 l 471 946 l 471 815 l 435 815 q 389 809 398 815 q 379 791 379 804 q 401 738 379 773 l 525 532 l 663 747 q 684 778 682 774 q 686 793 686 785 q 679 810 686 804 q 642 815 671 815 l 594 815 l 594 946 l 971 946 l 971 815 q 902 804 922 814 q 854 751 882 793 l 602 384 l 602 215 q 607 157 602 170 q 627 137 613 144 q 682 131 641 131 l 715 131 l 715 0 l 254 0 l 254 131 l 279 131 q 341 137 328 131 q 362 159 355 144 q 369 220 369 174 l 369 368 l 117 751 q 65 808 87 796 q 1 815 49 815 l 1 946 m 321 1207 q 390 1177 361 1207 q 420 1107 420 1147 q 392 1042 420 1069 q 324 1014 363 1014 q 255 1042 284 1014 q 227 1112 227 1071 q 254 1180 227 1153 q 321 1207 281 1207 m 648 1207 q 716 1177 687 1207 q 746 1107 746 1147 q 718 1042 746 1069 q 651 1014 690 1014 q 582 1042 610 1014 q 553 1112 553 1071 q 580 1180 553 1153 q 648 1207 607 1207 z "},"⁄":{"ha":167,"x_min":-266,"x_max":432,"o":"m 432 962 l -157 -16 l -266 -16 l 319 962 l 432 962 z "},"∕":{"ha":167,"x_min":-266,"x_max":432,"o":"m 432 962 l -157 -16 l -266 -16 l 319 962 l 432 962 z "},"€":{"ha":917,"x_min":-17,"x_max":892,"o":"m 319 578 l 632 578 l 621 504 l 314 504 q 317 441 316 442 l 612 441 l 600 368 l 329 368 q 539 144 387 144 q 668 192 602 144 q 786 328 734 240 l 892 250 q 684 36 787 89 q 475 -17 581 -17 q 211 85 324 -17 q 61 368 98 188 l -17 368 l -5 441 l 53 441 q 52 472 52 460 q 53 504 52 484 l -17 504 l -5 578 l 60 578 q 205 860 92 758 q 475 962 319 962 q 665 914 583 962 l 676 946 l 772 946 l 860 619 l 737 585 q 508 812 644 812 q 391 757 444 812 q 319 578 338 701 z "},"‹":{"ha":306,"x_min":37,"x_max":260,"o":"m 172 591 l 260 561 l 185 337 l 260 114 l 172 83 l 37 337 l 172 591 z "},"›":{"ha":306,"x_min":45,"x_max":268,"o":"m 134 83 l 45 114 l 120 338 l 45 561 l 134 591 l 268 338 l 134 83 z "},"":{"ha":1027,"x_min":51,"x_max":997,"o":"m 51 677 l 151 677 q 174 815 152 764 q 246 908 195 866 q 372 972 296 949 q 548 996 447 996 q 729 971 654 996 q 834 911 803 946 q 865 841 865 876 q 852 794 865 816 q 817 762 839 772 q 765 751 795 751 q 715 761 738 751 q 652 806 692 770 q 593 843 621 833 q 532 854 566 854 q 435 829 479 854 q 379 772 391 804 q 368 677 368 739 l 739 677 q 807 681 789 677 q 831 693 819 683 l 896 693 l 896 211 q 898 153 896 159 q 912 136 902 142 q 958 131 922 131 l 997 131 l 997 0 l 578 0 l 578 131 l 608 131 q 660 135 650 131 q 675 151 670 140 q 679 201 679 159 l 679 534 l 368 534 l 368 211 q 372 153 368 164 q 387 136 376 141 q 436 131 397 131 l 469 131 l 469 0 l 51 0 l 51 131 l 79 131 q 130 137 118 131 q 147 154 142 143 q 151 215 151 165 l 151 534 l 51 534 l 51 677 z "},"ﬁ":{"ha":1027,"x_min":51,"x_max":997,"o":"m 51 677 l 151 677 q 174 815 152 764 q 246 908 195 866 q 372 972 296 949 q 548 996 447 996 q 729 971 654 996 q 834 911 803 946 q 865 841 865 876 q 852 794 865 816 q 817 762 839 772 q 765 751 795 751 q 715 761 738 751 q 652 806 692 770 q 593 843 621 833 q 532 854 566 854 q 435 829 479 854 q 379 772 391 804 q 368 677 368 739 l 739 677 q 807 681 789 677 q 831 693 819 683 l 896 693 l 896 211 q 898 153 896 159 q 912 136 902 142 q 958 131 922 131 l 997 131 l 997 0 l 578 0 l 578 131 l 608 131 q 660 135 650 131 q 675 151 670 140 q 679 201 679 159 l 679 534 l 368 534 l 368 211 q 372 153 368 164 q 387 136 376 141 q 436 131 397 131 l 469 131 l 469 0 l 51 0 l 51 131 l 79 131 q 130 137 118 131 q 147 154 142 143 q 151 215 151 165 l 151 534 l 51 534 l 51 677 z "},"":{"ha":1027,"x_min":50,"x_max":996,"o":"m 50 677 l 151 677 q 162 783 151 744 q 229 894 179 843 q 355 970 279 945 q 532 996 430 996 q 635 991 580 996 q 741 984 711 984 q 827 996 774 984 l 895 996 l 895 206 q 899 154 895 162 q 915 137 903 142 q 963 131 926 131 l 996 131 l 996 0 l 578 0 l 578 131 l 611 131 q 659 136 648 131 q 674 153 669 141 q 678 206 678 164 l 678 815 l 601 842 q 530 853 564 853 q 440 832 479 853 q 384 781 400 811 q 367 693 367 751 l 367 677 l 526 677 l 526 532 l 367 532 l 367 206 q 373 149 367 159 q 395 134 378 138 q 468 131 408 131 l 468 0 l 50 0 l 50 131 l 75 131 q 129 136 115 131 q 146 152 142 142 q 151 201 151 161 l 151 532 l 50 532 l 50 677 z "},"ﬂ":{"ha":1027,"x_min":50,"x_max":996,"o":"m 50 677 l 151 677 q 162 783 151 744 q 229 894 179 843 q 355 970 279 945 q 532 996 430 996 q 635 991 580 996 q 741 984 711 984 q 827 996 774 984 l 895 996 l 895 206 q 899 154 895 162 q 915 137 903 142 q 963 131 926 131 l 996 131 l 996 0 l 578 0 l 578 131 l 611 131 q 659 136 648 131 q 674 153 669 141 q 678 206 678 164 l 678 815 l 601 842 q 530 853 564 853 q 440 832 479 853 q 384 781 400 811 q 367 693 367 751 l 367 677 l 526 677 l 526 532 l 367 532 l 367 206 q 373 149 367 159 q 395 134 378 138 q 468 131 408 131 l 468 0 l 50 0 l 50 131 l 75 131 q 129 136 115 131 q 146 152 142 142 q 151 201 151 161 l 151 532 l 50 532 l 50 677 z "},"‡":{"ha":528,"x_min":-4,"x_max":532,"o":"m 151 394 q 201 479 185 447 q 230 555 217 512 q 115 522 157 532 q 78 518 96 518 q 18 539 40 518 q -4 598 -4 560 q 18 660 -4 639 q 79 680 40 680 q 125 673 99 680 l 233 642 q 201 752 224 683 q 170 873 170 841 q 197 937 170 911 q 269 962 224 962 q 342 938 314 962 q 371 882 371 914 q 368 851 371 866 q 336 755 361 825 q 305 642 315 694 q 459 680 418 680 q 511 659 489 680 q 532 604 532 638 q 511 538 532 560 q 456 517 490 517 q 437 518 448 517 q 425 520 431 519 l 370 536 q 305 555 318 551 q 334 476 313 523 q 381 394 355 429 q 334 298 355 352 q 305 205 313 243 l 320 210 l 397 231 q 455 243 439 243 q 511 222 489 243 q 532 163 532 201 q 511 101 532 123 q 459 79 490 79 q 305 118 422 79 q 325 31 315 66 q 351 -56 330 10 l 369 -112 q 371 -134 371 -122 q 343 -194 371 -169 q 269 -218 315 -218 q 197 -192 224 -218 q 170 -130 170 -166 q 172 -103 170 -115 q 201 -7 180 -70 q 233 118 220 54 q 154 95 226 116 q 99 81 108 82 q 81 79 90 79 q 18 100 41 79 q -4 156 -4 121 q 17 220 -4 199 q 76 241 39 241 q 115 237 96 241 q 230 205 157 228 q 201 295 216 257 q 151 394 185 332 z "},"∙":{"ha":472,"x_min":110,"x_max":363,"o":"m 237 600 q 326 563 288 600 q 363 473 363 526 q 326 383 363 420 q 236 346 289 346 q 147 383 184 346 q 110 473 110 420 q 148 562 110 525 q 237 600 185 600 z "},"‚":{"ha":444,"x_min":90,"x_max":375,"o":"m 168 -256 l 91 -172 q 204 -59 180 -90 q 242 19 227 -27 q 216 5 229 9 q 189 0 202 0 q 120 33 150 0 q 90 111 90 65 q 128 202 90 165 q 220 239 165 239 q 297 217 260 239 q 355 154 334 194 q 375 62 375 115 q 318 -105 375 -24 q 168 -256 261 -187 z "},"„":{"ha":750,"x_min":75,"x_max":696,"o":"m 153 -246 l 76 -162 q 189 -48 165 -80 q 227 28 212 -17 q 201 14 214 19 q 174 9 187 9 q 105 42 135 9 q 75 121 75 75 q 113 212 75 175 q 205 250 151 250 q 282 227 245 250 q 340 164 319 203 q 360 72 360 124 q 303 -96 360 -14 q 153 -246 246 -178 m 489 -246 l 412 -162 q 525 -48 501 -80 q 563 28 549 -17 q 537 14 550 19 q 509 9 524 9 q 441 42 471 9 q 411 121 411 75 q 449 212 411 175 q 541 250 487 250 q 618 227 581 250 q 676 164 655 203 q 696 72 696 124 q 639 -96 696 -14 q 489 -246 582 -178 z "},"‰":{"ha":1889,"x_min":42,"x_max":1847,"o":"m 296 962 q 432 932 377 962 q 517 849 488 903 q 547 716 547 796 q 518 574 547 627 q 433 490 488 520 q 294 459 377 459 q 157 489 212 459 q 72 573 102 519 q 42 710 42 628 q 73 847 42 792 q 159 932 103 901 q 296 962 214 962 m 392 711 q 365 833 392 795 q 294 870 338 870 q 225 834 251 870 q 199 711 199 798 q 225 587 199 623 q 294 551 251 551 q 365 588 338 551 q 392 711 392 625 m 994 962 l 405 -16 l 296 -16 l 881 962 l 994 962 m 996 487 q 1132 457 1077 487 q 1218 374 1187 427 q 1248 241 1248 321 q 1218 98 1248 152 q 1133 14 1189 45 q 994 -16 1078 -16 q 857 14 911 -16 q 773 98 803 43 q 743 235 743 153 q 773 372 743 317 q 859 457 803 427 q 996 487 915 487 m 1093 235 q 1065 358 1093 321 q 995 395 1038 395 q 925 359 951 395 q 899 235 899 323 q 925 112 899 149 q 994 76 951 76 q 1065 113 1038 76 q 1093 235 1093 151 m 1596 487 q 1732 457 1676 487 q 1817 374 1788 427 q 1847 241 1847 321 q 1818 98 1847 152 q 1733 14 1788 45 q 1594 -16 1677 -16 q 1457 14 1512 -16 q 1372 98 1402 43 q 1342 235 1342 153 q 1373 372 1342 317 q 1459 457 1403 427 q 1596 487 1514 487 m 1692 235 q 1665 358 1692 321 q 1594 395 1638 395 q 1524 359 1550 395 q 1498 235 1498 323 q 1524 112 1498 149 q 1594 76 1550 76 q 1665 113 1638 76 q 1692 235 1692 151 z "},"Â":{"ha":1000,"x_min":1,"x_max":999,"o":"m 395 946 l 608 946 l 892 216 q 933 144 915 157 q 999 131 951 130 l 999 0 l 551 0 l 551 131 l 578 132 q 631 141 616 132 q 646 165 646 151 q 633 216 646 178 l 605 302 l 317 302 l 281 206 q 271 166 271 176 q 278 146 271 155 q 304 134 286 138 q 368 131 315 131 l 368 0 l 1 0 l 1 131 q 53 137 37 131 q 80 155 69 143 q 103 201 90 168 l 395 946 m 366 437 l 555 437 l 463 697 l 366 437 m 753 1105 l 699 1013 l 500 1087 l 302 1013 l 248 1105 l 500 1257 l 753 1105 z "},"Ê":{"ha":1000,"x_min":53,"x_max":995,"o":"m 53 946 l 842 946 l 950 647 l 827 603 q 754 721 796 676 q 662 780 713 766 q 545 795 612 795 l 400 795 l 400 559 l 448 559 q 520 567 501 559 q 547 591 538 574 q 555 657 555 608 l 555 693 l 675 693 l 675 293 l 555 293 l 555 334 q 545 394 555 375 q 518 420 535 413 q 443 427 501 427 l 400 427 l 400 210 q 404 168 400 175 q 417 156 407 160 q 459 152 427 152 l 538 152 q 688 177 627 152 q 797 259 749 203 q 871 394 845 316 l 995 351 l 871 0 l 53 0 l 53 131 l 77 131 q 140 138 124 131 q 163 161 157 144 q 167 219 167 172 l 167 734 q 161 789 167 777 q 143 809 155 802 q 95 815 131 815 l 53 815 l 53 946 m 752 1105 l 699 1013 l 500 1087 l 301 1013 l 248 1105 l 500 1257 l 752 1105 z "},"Á":{"ha":1000,"x_min":1,"x_max":999,"o":"m 395 946 l 608 946 l 892 216 q 933 144 915 157 q 999 131 951 130 l 999 0 l 551 0 l 551 131 l 578 132 q 631 141 616 132 q 646 165 646 151 q 633 216 646 178 l 605 302 l 317 302 l 281 206 q 271 166 271 176 q 278 146 271 155 q 304 134 286 138 q 368 131 315 131 l 368 0 l 1 0 l 1 131 q 53 137 37 131 q 80 155 69 143 q 103 201 90 168 l 395 946 m 366 437 l 555 437 l 463 697 l 366 437 m 389 1010 l 361 1079 l 507 1209 q 623 1265 570 1265 q 692 1236 664 1265 q 721 1163 721 1206 q 696 1101 721 1131 q 610 1058 672 1072 l 389 1010 z "},"Ë":{"ha":1000,"x_min":53,"x_max":995,"o":"m 53 946 l 842 946 l 950 647 l 827 603 q 754 721 796 676 q 662 780 713 766 q 545 795 612 795 l 400 795 l 400 559 l 448 559 q 520 567 501 559 q 547 591 538 574 q 555 657 555 608 l 555 693 l 675 693 l 675 293 l 555 293 l 555 334 q 545 394 555 375 q 518 420 535 413 q 443 427 501 427 l 400 427 l 400 210 q 404 168 400 175 q 417 156 407 160 q 459 152 427 152 l 538 152 q 688 177 627 152 q 797 259 749 203 q 871 394 845 316 l 995 351 l 871 0 l 53 0 l 53 131 l 77 131 q 140 138 124 131 q 163 161 157 144 q 167 219 167 172 l 167 734 q 161 789 167 777 q 143 809 155 802 q 95 815 131 815 l 53 815 l 53 946 m 334 1207 q 404 1177 374 1207 q 433 1107 433 1147 q 405 1042 433 1069 q 338 1014 377 1014 q 269 1042 298 1014 q 240 1112 240 1071 q 267 1180 240 1153 q 334 1207 294 1207 m 661 1207 q 730 1177 701 1207 q 760 1107 760 1147 q 731 1042 760 1069 q 665 1014 703 1014 q 595 1042 624 1014 q 566 1112 566 1071 q 593 1180 566 1153 q 661 1207 621 1207 z "},"È":{"ha":1000,"x_min":53,"x_max":995,"o":"m 53 946 l 842 946 l 950 647 l 827 603 q 754 721 796 676 q 662 780 713 766 q 545 795 612 795 l 400 795 l 400 559 l 448 559 q 520 567 501 559 q 547 591 538 574 q 555 657 555 608 l 555 693 l 675 693 l 675 293 l 555 293 l 555 334 q 545 394 555 375 q 518 420 535 413 q 443 427 501 427 l 400 427 l 400 210 q 404 168 400 175 q 417 156 407 160 q 459 152 427 152 l 538 152 q 688 177 627 152 q 797 259 749 203 q 871 394 845 316 l 995 351 l 871 0 l 53 0 l 53 131 l 77 131 q 140 138 124 131 q 163 161 157 144 q 167 219 167 172 l 167 734 q 161 789 167 777 q 143 809 155 802 q 95 815 131 815 l 53 815 l 53 946 m 652 1010 l 431 1058 q 347 1098 373 1070 q 320 1164 320 1126 q 333 1214 320 1191 q 369 1252 346 1238 q 415 1265 393 1265 q 534 1209 471 1265 l 680 1079 l 652 1010 z "},"Í":{"ha":555,"x_min":47,"x_max":509,"o":"m 47 946 l 509 946 l 509 815 l 467 815 q 418 809 430 815 q 400 788 406 802 q 395 735 395 774 l 395 212 q 399 157 395 169 q 416 139 404 144 q 458 131 430 131 l 509 131 l 509 0 l 47 0 l 47 131 l 85 131 q 137 137 125 131 q 155 155 149 142 q 161 205 161 168 l 161 730 q 155 788 161 774 q 136 810 149 802 q 90 815 126 815 l 47 815 l 47 946 m 166 1010 l 139 1079 l 285 1209 q 401 1265 348 1265 q 470 1236 441 1265 q 498 1163 498 1206 q 474 1101 498 1131 q 388 1058 450 1072 l 166 1010 z "},"Î":{"ha":555,"x_min":26,"x_max":530,"o":"m 47 946 l 509 946 l 509 815 l 467 815 q 418 809 430 815 q 400 788 406 802 q 395 735 395 774 l 395 212 q 399 157 395 169 q 416 139 404 144 q 458 131 430 131 l 509 131 l 509 0 l 47 0 l 47 131 l 85 131 q 137 137 125 131 q 155 155 149 142 q 161 205 161 168 l 161 730 q 155 788 161 774 q 136 810 149 802 q 90 815 126 815 l 47 815 l 47 946 m 530 1105 l 477 1013 l 278 1087 l 79 1013 l 26 1105 l 278 1257 l 530 1105 z "},"Ï":{"ha":555,"x_min":18,"x_max":538,"o":"m 47 946 l 509 946 l 509 815 l 467 815 q 418 809 430 815 q 400 788 406 802 q 395 735 395 774 l 395 212 q 399 157 395 169 q 416 139 404 144 q 458 131 430 131 l 509 131 l 509 0 l 47 0 l 47 131 l 85 131 q 137 137 125 131 q 155 155 149 142 q 161 205 161 168 l 161 730 q 155 788 161 774 q 136 810 149 802 q 90 815 126 815 l 47 815 l 47 946 m 113 1207 q 182 1177 153 1207 q 212 1107 212 1147 q 183 1042 212 1069 q 116 1014 155 1014 q 47 1042 76 1014 q 18 1112 18 1071 q 45 1180 18 1153 q 113 1207 73 1207 m 439 1207 q 508 1177 479 1207 q 538 1107 538 1147 q 510 1042 538 1069 q 443 1014 481 1014 q 373 1042 402 1014 q 345 1112 345 1071 q 372 1180 345 1153 q 439 1207 399 1207 z "},"Ì":{"ha":555,"x_min":47,"x_max":509,"o":"m 47 946 l 509 946 l 509 815 l 467 815 q 418 809 430 815 q 400 788 406 802 q 395 735 395 774 l 395 212 q 399 157 395 169 q 416 139 404 144 q 458 131 430 131 l 509 131 l 509 0 l 47 0 l 47 131 l 85 131 q 137 137 125 131 q 155 155 149 142 q 161 205 161 168 l 161 730 q 155 788 161 774 q 136 810 149 802 q 90 815 126 815 l 47 815 l 47 946 m 389 1010 l 168 1058 q 84 1098 111 1070 q 58 1164 58 1126 q 71 1214 58 1191 q 107 1252 83 1238 q 153 1265 130 1265 q 271 1209 208 1265 l 417 1079 l 389 1010 z "},"Ó":{"ha":1111,"x_min":48,"x_max":1063,"o":"m 559 962 q 924 825 785 962 q 1063 473 1063 688 q 1000 217 1063 329 q 824 44 936 105 q 553 -16 711 -16 q 210 99 343 -16 q 48 471 48 238 q 190 825 48 687 q 559 962 331 962 m 562 812 q 391 731 454 812 q 311 469 311 629 q 385 214 311 308 q 555 134 450 134 q 726 214 662 134 q 801 470 801 310 q 769 659 801 583 q 682 774 736 736 q 562 812 627 812 m 444 1010 l 417 1079 l 563 1209 q 679 1265 626 1265 q 748 1236 720 1265 q 777 1163 777 1206 q 752 1101 777 1131 q 666 1058 728 1072 l 444 1010 z "},"Ô":{"ha":1111,"x_min":48,"x_max":1063,"o":"m 559 962 q 924 825 785 962 q 1063 473 1063 688 q 1000 217 1063 329 q 824 44 936 105 q 553 -16 711 -16 q 210 99 343 -16 q 48 471 48 238 q 190 825 48 687 q 559 962 331 962 m 562 812 q 391 731 454 812 q 311 469 311 629 q 385 214 311 308 q 555 134 450 134 q 726 214 662 134 q 801 470 801 310 q 769 659 801 583 q 682 774 736 736 q 562 812 627 812 m 808 1105 l 755 1013 l 556 1087 l 357 1013 l 304 1105 l 556 1257 l 808 1105 z "},"":{"ha":1097,"x_min":0,"x_max":0,"o":""},"Ò":{"ha":1111,"x_min":48,"x_max":1063,"o":"m 559 962 q 924 825 785 962 q 1063 473 1063 688 q 1000 217 1063 329 q 824 44 936 105 q 553 -16 711 -16 q 210 99 343 -16 q 48 471 48 238 q 190 825 48 687 q 559 962 331 962 m 562 812 q 391 731 454 812 q 311 469 311 629 q 385 214 311 308 q 555 134 450 134 q 726 214 662 134 q 801 470 801 310 q 769 659 801 583 q 682 774 736 736 q 562 812 627 812 m 667 1010 l 446 1058 q 361 1098 388 1070 q 335 1164 335 1126 q 348 1214 335 1191 q 384 1252 361 1238 q 430 1265 408 1265 q 549 1209 486 1265 l 694 1079 l 667 1010 z "},"Ú":{"ha":1027,"x_min":25,"x_max":1002,"o":"m 25 946 l 487 946 l 487 815 l 441 815 q 397 808 410 815 q 378 786 384 800 q 372 730 372 772 l 372 385 q 391 241 372 289 q 449 169 410 194 q 544 144 488 144 q 643 172 600 144 q 705 240 686 199 q 724 378 724 282 l 724 758 q 718 792 724 782 q 696 811 709 806 q 648 815 686 815 l 611 815 l 611 946 l 1002 946 l 1002 815 l 972 815 q 916 810 926 815 q 892 786 899 802 q 886 730 886 776 l 886 357 q 857 184 886 254 q 725 36 815 89 q 510 -16 634 -16 q 353 11 422 -16 q 232 87 284 37 q 160 193 180 137 q 139 357 139 248 l 139 722 q 134 787 139 772 q 116 808 128 802 q 68 815 104 815 l 25 815 l 25 946 m 436 1010 l 409 1079 l 555 1209 q 671 1265 618 1265 q 740 1236 711 1265 q 768 1163 768 1206 q 744 1101 768 1131 q 658 1058 720 1072 l 436 1010 z "},"Û":{"ha":1027,"x_min":25,"x_max":1002,"o":"m 25 946 l 487 946 l 487 815 l 441 815 q 397 808 410 815 q 378 786 384 800 q 372 730 372 772 l 372 385 q 391 241 372 289 q 449 169 410 194 q 544 144 488 144 q 643 172 600 144 q 705 240 686 199 q 724 378 724 282 l 724 758 q 718 792 724 782 q 696 811 709 806 q 648 815 686 815 l 611 815 l 611 946 l 1002 946 l 1002 815 l 972 815 q 916 810 926 815 q 892 786 899 802 q 886 730 886 776 l 886 357 q 857 184 886 254 q 725 36 815 89 q 510 -16 634 -16 q 353 11 422 -16 q 232 87 284 37 q 160 193 180 137 q 139 357 139 248 l 139 722 q 134 787 139 772 q 116 808 128 802 q 68 815 104 815 l 25 815 l 25 946 m 793 1105 l 739 1013 l 541 1087 l 342 1013 l 288 1105 l 541 1257 l 793 1105 z "},"Ù":{"ha":1027,"x_min":25,"x_max":1002,"o":"m 25 946 l 487 946 l 487 815 l 441 815 q 397 808 410 815 q 378 786 384 800 q 372 730 372 772 l 372 385 q 391 241 372 289 q 449 169 410 194 q 544 144 488 144 q 643 172 600 144 q 705 240 686 199 q 724 378 724 282 l 724 758 q 718 792 724 782 q 696 811 709 806 q 648 815 686 815 l 611 815 l 611 946 l 1002 946 l 1002 815 l 972 815 q 916 810 926 815 q 892 786 899 802 q 886 730 886 776 l 886 357 q 857 184 886 254 q 725 36 815 89 q 510 -16 634 -16 q 353 11 422 -16 q 232 87 284 37 q 160 193 180 137 q 139 357 139 248 l 139 722 q 134 787 139 772 q 116 808 128 802 q 68 815 104 815 l 25 815 l 25 946 m 625 1010 l 404 1058 q 319 1098 346 1070 q 293 1164 293 1126 q 306 1214 293 1191 q 342 1252 319 1238 q 388 1265 366 1265 q 507 1209 444 1265 l 652 1079 l 625 1010 z "},"ı":{"ha":500,"x_min":54,"x_max":473,"o":"m 370 693 l 370 192 q 374 148 370 156 q 389 135 378 140 q 436 131 399 131 l 473 131 l 473 0 l 54 0 l 54 131 l 90 131 q 135 135 125 131 q 149 147 144 138 q 154 182 154 156 l 154 506 l 54 506 l 54 633 q 156 645 107 636 q 244 666 205 654 q 306 693 269 674 l 370 693 z "},"ˆ":{"ha":694,"x_min":95,"x_max":600,"o":"m 600 861 l 546 769 l 347 843 l 149 769 l 95 861 l 347 1013 l 600 861 z "},"˜":{"ha":667,"x_min":88,"x_max":578,"o":"m 509 969 l 578 935 q 510 828 566 875 q 393 789 463 789 q 255 816 343 789 q 207 827 218 827 q 191 823 198 827 q 165 802 183 819 l 88 845 q 158 938 107 900 q 262 977 209 977 q 300 974 282 977 q 360 958 317 970 q 452 939 425 939 q 473 943 464 939 q 498 961 482 947 l 509 969 z "},"ˉ":{"ha":639,"x_min":101,"x_max":538,"o":"m 538 929 l 538 807 l 101 807 l 101 929 l 538 929 z "},"˘":{"ha":694,"x_min":96,"x_max":599,"o":"m 526 1008 l 599 972 q 498 829 570 885 q 349 774 427 774 q 96 972 193 774 l 166 1008 q 250 946 202 968 q 349 924 298 924 q 526 1008 448 924 z "},"˙":{"ha":444,"x_min":125,"x_max":319,"o":"m 220 967 q 289 937 260 967 q 319 867 319 907 q 291 802 319 829 q 223 774 262 774 q 154 802 183 774 q 125 871 125 831 q 153 940 125 913 q 220 967 180 967 z "},"˚":{"ha":472,"x_min":93,"x_max":379,"o":"m 379 920 q 337 822 379 863 q 236 781 296 781 q 135 822 177 781 q 93 922 93 863 q 135 1021 93 980 q 236 1063 177 1063 q 337 1021 296 1063 q 379 920 379 979 m 187 923 q 201 886 187 901 q 235 871 216 871 q 269 886 255 871 q 283 922 283 901 q 269 958 283 943 q 235 972 255 972 q 201 958 215 972 q 187 923 187 943 z "},"¸":{"ha":500,"x_min":100,"x_max":400,"o":"m 238 0 l 238 -62 q 284 -58 268 -58 q 368 -87 335 -58 q 400 -162 400 -117 q 356 -257 400 -218 q 237 -296 312 -296 q 136 -271 172 -296 q 100 -213 100 -245 q 113 -178 100 -191 q 149 -165 125 -165 q 190 -182 168 -165 q 218 -201 208 -197 q 240 -205 229 -205 q 271 -195 260 -205 q 285 -161 285 -179 q 264 -121 285 -137 q 203 -105 243 -105 q 153 -107 182 -105 l 165 0 l 238 0 z "},"˝":{"ha":611,"x_min":127,"x_max":542,"o":"m 127 787 l 161 933 q 185 1001 173 986 q 239 1027 207 1027 q 287 1006 267 1027 q 306 958 306 986 q 267 878 306 918 l 161 767 l 127 787 m 364 787 l 397 933 q 421 1000 409 986 q 476 1027 443 1027 q 523 1006 504 1027 q 542 958 542 986 q 503 878 542 918 l 397 767 l 364 787 z "},"˛":{"ha":444,"x_min":98,"x_max":346,"o":"m 157 0 l 254 0 q 208 -83 208 -39 q 220 -116 208 -104 q 252 -127 231 -127 q 282 -122 268 -127 q 323 -97 297 -117 l 346 -139 q 288 -203 325 -180 q 205 -227 250 -227 q 127 -198 157 -227 q 98 -121 98 -169 q 157 0 98 -55 z "},"ˇ":{"ha":694,"x_min":96,"x_max":599,"o":"m 96 919 l 149 1011 l 347 937 l 546 1011 l 599 919 l 347 766 l 96 919 z "},"Ł":{"ha":889,"x_min":56,"x_max":903,"o":"m 404 597 l 576 717 l 576 596 l 404 479 l 404 206 q 407 166 404 174 q 419 154 410 159 q 456 150 429 150 q 602 174 547 150 q 702 250 657 197 q 778 393 746 302 l 903 350 l 778 0 l 56 0 l 56 131 l 101 131 q 143 138 129 131 q 164 158 157 146 q 170 202 170 171 l 170 321 l 56 243 l 56 357 l 170 435 l 170 738 q 164 787 170 772 q 145 808 157 802 q 106 815 134 815 l 56 815 l 56 946 l 518 946 l 518 815 l 477 815 q 435 812 444 815 q 411 791 418 805 q 404 747 404 777 l 404 597 z "},"ł":{"ha":472,"x_min":39,"x_max":458,"o":"m 355 642 l 458 715 l 458 606 l 355 532 l 355 202 q 359 155 355 162 q 380 135 363 141 q 435 131 390 131 l 458 131 l 458 0 l 39 0 l 39 131 l 64 131 q 117 136 105 131 q 134 152 128 141 q 139 202 139 163 l 139 378 l 39 307 l 39 417 l 139 488 l 139 807 l 39 807 l 39 939 q 290 996 160 947 l 355 996 l 355 642 z "},"Š":{"ha":917,"x_min":47,"x_max":884,"o":"m 766 946 l 847 629 l 721 593 q 578 759 658 706 q 408 811 498 811 q 316 787 349 811 q 282 734 282 764 q 313 673 282 701 q 422 622 342 644 l 604 569 q 820 454 755 526 q 884 285 884 381 q 786 77 884 162 q 515 -16 677 -16 q 376 3 439 -16 q 245 68 313 22 l 215 0 l 114 0 l 47 367 l 174 397 q 313 211 218 286 q 521 136 408 136 q 605 149 572 136 q 656 184 639 161 q 673 232 673 208 q 633 302 673 273 q 494 359 593 331 l 336 406 q 238 444 300 416 q 144 503 177 472 q 90 581 111 533 q 68 682 68 629 q 110 820 68 757 q 235 923 151 884 q 420 962 319 962 q 642 899 543 962 l 669 946 l 766 946 m 207 1163 l 260 1255 l 458 1181 l 657 1255 l 710 1163 l 458 1010 l 207 1163 z "},"š":{"ha":722,"x_min":38,"x_max":692,"o":"m 512 677 l 601 677 l 656 488 l 528 437 q 436 529 491 496 q 326 563 380 563 q 273 551 290 563 q 255 522 255 538 q 268 495 255 507 q 319 469 280 483 l 506 403 q 601 359 555 385 q 669 294 646 332 q 692 204 692 256 q 621 53 692 112 q 415 -16 538 -16 q 231 37 309 -16 l 212 0 l 121 0 l 38 222 l 166 277 q 285 158 214 201 q 414 115 355 115 q 476 132 451 115 q 495 164 495 146 q 480 194 495 180 q 414 226 465 208 l 268 277 q 103 368 146 319 q 59 483 59 416 q 127 627 59 568 q 320 693 205 693 q 494 647 422 693 l 512 677 m 109 919 l 163 1011 l 361 937 l 559 1011 l 612 919 l 361 766 l 109 919 z "},"Ž":{"ha":889,"x_min":22,"x_max":880,"o":"m 824 946 l 824 815 l 323 147 l 382 147 q 565 170 505 147 q 676 250 625 193 q 756 392 728 308 l 880 350 l 756 0 l 34 0 l 34 131 l 536 797 l 458 797 q 329 778 378 797 q 244 722 280 759 q 141 565 208 684 l 22 618 l 165 946 l 824 946 m 207 1163 l 260 1255 l 458 1181 l 657 1255 l 710 1163 l 458 1010 l 207 1163 z "},"ž":{"ha":778,"x_min":36,"x_max":764,"o":"m 150 677 l 725 677 l 725 546 l 321 144 l 413 144 q 525 159 486 144 q 594 208 564 175 q 641 289 614 231 l 764 243 l 674 0 l 36 0 l 36 131 l 436 533 l 374 533 q 282 521 314 533 q 220 477 250 509 q 166 396 205 461 l 47 451 l 150 677 m 157 919 l 211 1011 l 409 937 l 608 1011 l 661 919 l 409 766 l 157 919 z "},"¦":{"ha":833,"x_min":331,"x_max":503,"o":"m 331 996 l 503 996 l 503 435 l 331 370 l 331 996 m 331 258 l 503 323 l 503 -302 l 331 -302 l 331 258 z "},"Ð":{"ha":1083,"x_min":52,"x_max":1034,"o":"m 165 424 l 52 424 l 52 522 l 165 522 l 165 734 q 159 790 165 777 q 140 809 153 802 q 84 815 127 815 l 52 815 l 52 946 l 547 946 q 816 892 716 946 q 975 734 916 839 q 1034 481 1034 629 q 1004 298 1034 379 q 914 153 974 218 q 786 56 854 88 q 640 16 734 31 q 488 0 545 0 l 52 0 l 52 131 l 84 131 q 138 138 125 131 q 159 161 151 144 q 165 217 165 174 l 165 424 m 397 424 l 397 206 q 401 170 397 176 q 417 156 406 159 q 467 152 427 152 q 641 186 578 152 q 743 296 704 220 q 781 476 781 372 q 745 655 781 579 q 655 763 709 732 q 502 794 602 794 l 397 794 l 397 522 l 572 522 l 572 424 l 397 424 z "},"ð":{"ha":861,"x_min":53,"x_max":804,"o":"m 310 996 l 492 996 q 558 928 527 964 l 749 979 l 770 899 l 618 859 q 749 652 707 747 q 804 397 804 528 q 754 177 804 271 q 618 34 705 83 q 414 -16 532 -16 q 154 84 254 -16 q 53 338 53 184 q 97 522 53 444 q 227 646 142 600 q 416 693 312 693 q 519 673 473 693 q 457 815 503 738 l 269 767 l 248 846 l 408 888 q 375 929 389 913 q 310 996 371 934 m 565 343 q 547 460 565 417 q 500 525 530 504 q 433 547 471 547 q 331 495 371 547 q 291 341 291 444 q 327 180 291 229 q 424 132 363 132 q 496 154 464 132 q 547 221 528 177 q 565 343 565 266 z "},"Ý":{"ha":972,"x_min":1,"x_max":971,"o":"m 1 946 l 471 946 l 471 815 l 435 815 q 389 809 398 815 q 379 791 379 804 q 401 738 379 773 l 525 532 l 663 747 q 684 778 682 774 q 686 793 686 785 q 679 810 686 804 q 642 815 671 815 l 594 815 l 594 946 l 971 946 l 971 815 q 902 804 922 814 q 854 751 882 793 l 602 384 l 602 215 q 607 157 602 170 q 627 137 613 144 q 682 131 641 131 l 715 131 l 715 0 l 254 0 l 254 131 l 279 131 q 341 137 328 131 q 362 159 355 144 q 369 220 369 174 l 369 368 l 117 751 q 65 808 87 796 q 1 815 49 815 l 1 946 m 374 1010 l 347 1079 l 493 1209 q 609 1265 556 1265 q 678 1236 650 1265 q 707 1163 707 1206 q 682 1101 707 1131 q 596 1058 658 1072 l 374 1010 z "},"ý":{"ha":861,"x_min":11,"x_max":853,"o":"m 11 677 l 434 677 l 434 546 l 406 546 q 358 541 368 546 q 349 526 349 536 q 363 484 349 518 l 465 239 l 571 484 q 583 524 583 511 q 573 540 583 534 q 526 546 563 546 l 488 546 l 488 677 l 853 677 l 853 546 q 797 543 805 545 q 778 532 785 540 q 753 491 770 525 l 447 -138 q 342 -275 399 -236 q 205 -315 284 -315 q 80 -274 127 -315 q 32 -181 32 -233 q 60 -111 32 -140 q 129 -81 89 -81 q 182 -95 156 -81 q 216 -125 199 -104 q 234 -142 227 -138 q 246 -146 240 -146 q 274 -132 260 -146 q 320 -56 294 -111 l 346 0 l 115 484 q 89 530 98 520 q 68 543 80 539 q 11 546 57 546 l 11 677 m 312 766 l 285 835 l 431 965 q 547 1021 494 1021 q 616 991 587 1021 q 644 919 644 962 q 620 857 644 887 q 534 814 595 827 l 312 766 z "},"Þ":{"ha":917,"x_min":56,"x_max":915,"o":"m 517 946 l 517 831 l 469 831 q 424 824 437 831 q 406 802 411 817 q 403 742 403 795 l 555 742 q 714 724 651 742 q 822 668 777 705 q 891 579 867 630 q 915 473 915 529 q 822 282 915 360 q 564 204 730 204 l 403 204 l 403 175 q 410 135 403 146 q 429 119 416 124 q 485 115 442 115 l 517 115 l 517 0 l 56 0 l 56 131 l 87 131 q 143 137 130 131 q 163 156 157 143 q 169 211 169 170 l 169 731 q 163 788 169 774 q 146 809 158 802 q 101 815 134 815 l 56 815 l 56 946 l 517 946 m 403 589 l 403 352 l 484 352 q 594 366 559 352 q 649 408 629 380 q 669 473 669 436 q 620 562 669 529 q 508 589 582 589 l 403 589 z "},"þ":{"ha":889,"x_min":52,"x_max":829,"o":"m 370 996 l 370 618 q 456 676 416 660 q 547 693 496 693 q 743 606 669 693 q 829 349 829 506 q 755 100 829 200 q 526 -16 669 -16 q 445 -6 479 -16 q 370 33 410 5 l 370 -104 q 374 -153 370 -144 q 389 -167 378 -163 q 441 -172 399 -172 l 473 -172 l 473 -302 l 52 -302 l 52 -172 l 75 -172 q 131 -168 121 -172 q 147 -152 141 -164 q 153 -104 153 -140 l 153 807 l 52 807 l 52 938 q 176 960 125 947 q 281 996 228 973 l 370 996 m 370 481 l 370 260 q 379 186 370 208 q 413 150 389 164 q 469 136 437 136 q 560 187 524 136 q 596 342 596 238 q 565 485 596 438 q 487 531 533 531 q 431 519 460 531 q 370 481 402 507 z "},"−":{"ha":833,"x_min":81,"x_max":753,"o":"m 753 409 l 81 409 l 81 536 l 753 536 l 753 409 z "},"×":{"ha":833,"x_min":103,"x_max":731,"o":"m 640 159 l 419 380 l 198 159 l 103 254 l 324 475 l 103 696 l 194 787 l 415 566 l 636 787 l 731 692 l 510 471 l 730 250 l 640 159 z "},"¹":{"ha":550,"x_min":113,"x_max":474,"o":"m 368 962 l 368 585 q 373 556 368 560 q 410 551 379 551 l 474 551 l 474 467 l 113 467 l 113 551 l 178 551 q 212 553 205 551 q 222 560 219 555 q 224 585 224 565 l 224 838 l 113 838 l 113 922 q 232 936 186 927 q 319 962 277 945 l 368 962 z "},"²":{"ha":550,"x_min":31,"x_max":514,"o":"m 134 751 l 37 743 q 31 787 31 768 q 104 917 31 871 q 275 962 178 962 q 398 940 345 962 q 477 883 452 917 q 503 809 503 848 q 450 702 503 750 q 245 583 397 654 l 357 583 q 397 585 390 583 q 409 595 405 588 q 420 633 414 602 l 514 633 l 475 450 l 411 450 l 406 467 l 35 467 l 35 547 q 240 677 117 592 q 328 754 309 724 q 342 798 342 777 q 315 841 342 822 q 242 860 289 860 q 159 837 189 860 q 130 781 130 814 q 134 751 130 774 z "},"³":{"ha":550,"x_min":33,"x_max":513,"o":"m 155 785 l 57 785 l 57 806 q 107 913 57 874 q 275 962 171 962 q 391 942 340 962 q 465 892 441 922 q 489 831 489 861 q 469 774 489 802 q 412 728 449 746 q 488 684 462 713 q 513 616 513 654 q 454 509 513 553 q 273 459 387 459 q 90 507 161 459 q 33 596 33 546 q 54 642 33 623 q 106 661 75 661 q 182 606 161 661 q 201 570 193 578 q 229 554 209 561 q 269 547 248 547 q 336 568 309 547 q 357 612 357 584 q 330 661 357 643 q 236 679 304 679 l 201 679 l 201 762 l 236 762 q 321 775 300 762 q 342 810 342 789 q 320 845 342 830 q 254 860 298 860 q 173 835 199 860 q 155 785 157 819 z "},"½":{"ha":1375,"x_min":163,"x_max":1289,"o":"m 418 962 l 418 585 q 423 556 418 560 q 460 551 429 551 l 524 551 l 524 467 l 163 467 l 163 551 l 228 551 q 262 553 256 551 q 272 560 269 555 q 275 585 275 565 l 275 838 l 163 838 l 163 922 q 282 936 237 927 q 370 962 327 945 l 418 962 m 941 962 l 351 -16 l 243 -16 l 827 962 l 941 962 m 908 284 l 812 277 q 805 320 805 301 q 879 450 805 405 q 1050 496 952 496 q 1173 473 1119 496 q 1252 416 1226 450 q 1277 342 1277 382 q 1224 236 1277 283 q 1019 116 1172 188 l 1132 116 q 1172 119 1164 116 q 1184 129 1179 121 q 1194 166 1188 136 l 1289 166 l 1250 -16 l 1185 -16 l 1180 0 l 809 0 l 809 81 q 1015 210 892 125 q 1102 288 1083 258 q 1116 331 1116 310 q 1090 374 1116 355 q 1017 393 1063 393 q 933 370 963 393 q 904 315 904 347 q 908 284 904 307 z "},"¼":{"ha":1375,"x_min":163,"x_max":1308,"o":"m 418 962 l 418 585 q 423 556 418 560 q 460 551 429 551 l 524 551 l 524 467 l 163 467 l 163 551 l 228 551 q 262 553 256 551 q 272 560 269 555 q 275 585 275 565 l 275 838 l 163 838 l 163 922 q 282 936 237 927 q 370 962 327 945 l 418 962 m 941 962 l 351 -16 l 243 -16 l 827 962 l 941 962 m 1065 488 l 1202 488 l 1202 234 l 1308 234 l 1308 130 l 1202 130 l 1202 0 l 1059 0 l 1059 130 l 796 130 l 796 248 l 1065 488 m 1059 368 l 910 234 l 1059 234 l 1059 368 z "},"¾":{"ha":1375,"x_min":83,"x_max":1309,"o":"m 205 785 l 108 785 l 108 806 q 158 913 108 874 q 326 962 222 962 q 442 942 391 962 q 516 892 492 922 q 540 831 540 861 q 520 774 540 802 q 463 728 500 746 q 538 684 513 713 q 564 616 564 654 q 505 509 564 553 q 323 459 438 459 q 140 507 212 459 q 83 596 83 546 q 104 642 83 623 q 157 661 125 661 q 233 606 212 661 q 252 570 243 578 q 279 554 260 561 q 320 547 299 547 q 387 568 359 547 q 408 612 408 584 q 381 661 408 643 q 287 679 355 679 l 252 679 l 252 762 l 287 762 q 372 775 351 762 q 393 810 393 789 q 371 845 393 830 q 305 860 349 860 q 224 835 250 860 q 205 785 208 819 m 941 962 l 351 -16 l 243 -16 l 827 962 l 941 962 m 1065 488 l 1203 488 l 1203 234 l 1309 234 l 1309 130 l 1203 130 l 1203 0 l 1060 0 l 1060 130 l 797 130 l 797 248 l 1065 488 m 1060 368 l 911 234 l 1060 234 l 1060 368 z "},"₣":{"ha":945,"x_min":54,"x_max":943,"o":"m 399 316 l 515 316 l 515 218 l 399 218 l 399 204 q 405 156 399 168 q 425 137 411 143 q 477 131 438 131 l 515 131 l 515 0 l 54 0 l 54 131 l 85 131 q 144 139 129 131 q 165 166 159 146 q 168 218 168 176 l 54 218 l 54 316 l 168 316 l 168 741 q 161 791 168 779 q 141 809 155 803 q 85 815 127 815 l 54 815 l 54 946 l 836 946 l 943 644 l 821 602 q 764 701 791 667 q 699 757 736 734 q 618 787 662 779 q 515 791 589 791 l 399 791 l 399 541 l 475 541 q 528 551 509 541 q 556 577 547 561 q 564 631 564 593 l 564 682 l 670 682 l 670 258 l 564 258 l 564 319 q 559 358 564 346 q 543 385 553 374 q 518 399 532 395 q 467 403 504 403 l 399 403 l 399 316 z "},"Ğ":{"ha":1083,"x_min":50,"x_max":1072,"o":"m 610 505 l 1072 505 l 1072 372 l 1037 372 q 990 366 1003 372 q 972 347 978 360 q 966 296 966 334 l 966 0 l 827 0 l 791 68 q 659 5 727 26 q 516 -16 590 -16 q 280 47 387 -16 q 112 223 174 110 q 50 477 50 336 q 111 726 50 616 q 282 899 172 836 q 522 962 393 962 q 646 946 584 962 q 752 904 708 930 l 777 946 l 872 946 l 958 633 l 833 592 q 732 732 769 695 q 647 791 695 770 q 554 812 600 812 q 434 774 490 812 q 345 666 378 737 q 313 492 313 594 q 348 298 313 380 q 441 177 384 216 q 568 137 499 137 q 661 157 617 137 q 721 201 705 176 q 737 267 737 225 l 737 301 q 732 347 737 337 q 712 366 725 360 q 663 372 700 372 l 610 372 l 610 505 m 745 1255 l 818 1219 q 718 1076 789 1132 q 568 1021 646 1021 q 315 1219 412 1021 l 385 1255 q 469 1193 421 1215 q 568 1171 517 1171 q 745 1255 667 1171 z "},"ğ":{"ha":806,"x_min":23,"x_max":808,"o":"m 574 637 q 646 710 610 688 q 722 731 682 731 q 785 708 762 731 q 808 648 808 684 q 786 592 808 614 q 732 570 764 570 l 709 571 l 686 572 q 650 558 668 572 q 687 440 687 496 q 650 324 687 380 q 548 237 613 268 q 391 205 482 205 q 337 209 364 205 q 283 218 311 212 q 256 195 265 206 q 246 175 246 184 q 290 148 246 154 l 570 108 q 751 41 696 90 q 807 -79 807 -9 q 765 -192 807 -140 q 628 -277 723 -243 q 387 -310 532 -310 q 176 -285 260 -310 q 58 -223 93 -260 q 23 -151 23 -185 q 49 -82 23 -113 q 157 -11 75 -51 q 81 34 106 7 q 47 106 47 69 q 79 186 47 147 q 174 264 111 226 q 118 312 138 286 q 86 374 98 337 q 73 449 73 410 q 156 622 73 551 q 375 693 239 693 q 485 679 435 693 q 574 637 535 665 m 382 564 q 310 532 338 564 q 282 446 282 500 q 309 366 282 395 q 379 336 336 336 q 449 367 421 336 q 477 446 477 397 q 451 532 477 500 q 382 564 424 564 m 283 -43 q 238 -86 248 -71 q 228 -118 228 -100 q 282 -170 228 -151 q 421 -189 336 -189 q 530 -178 483 -189 q 593 -151 578 -167 q 604 -123 604 -141 q 583 -91 604 -104 q 485 -68 563 -77 l 283 -43 m 581 1008 l 654 972 q 554 829 625 885 q 405 774 483 774 q 151 972 248 774 l 222 1008 q 306 946 258 968 q 405 924 353 924 q 581 1008 503 924 z "},"İ":{"ha":555,"x_min":47,"x_max":509,"o":"m 47 946 l 509 946 l 509 815 l 467 815 q 418 809 430 815 q 400 788 406 802 q 395 735 395 774 l 395 212 q 399 157 395 169 q 416 139 404 144 q 458 131 430 131 l 509 131 l 509 0 l 47 0 l 47 131 l 85 131 q 137 137 125 131 q 155 155 149 142 q 161 205 161 168 l 161 730 q 155 788 161 774 q 136 810 149 802 q 90 815 126 815 l 47 815 l 47 946 m 284 1214 q 354 1184 324 1214 q 383 1114 383 1154 q 355 1048 383 1076 q 288 1021 327 1021 q 219 1049 248 1021 q 190 1118 190 1078 q 217 1187 190 1160 q 284 1214 244 1214 z "},"Ş":{"ha":917,"x_min":47,"x_max":884,"o":"m 766 946 l 847 629 l 721 593 q 578 759 658 706 q 408 811 498 811 q 316 787 349 811 q 282 734 282 764 q 313 673 282 701 q 422 622 342 644 l 604 569 q 820 454 755 526 q 884 285 884 381 q 786 77 884 162 q 515 -16 677 -16 q 376 3 439 -16 q 245 68 313 22 l 215 0 l 114 0 l 47 367 l 174 397 q 313 211 218 286 q 521 136 408 136 q 605 149 572 136 q 656 184 639 161 q 673 232 673 208 q 633 302 673 273 q 494 359 593 331 l 336 406 q 238 444 300 416 q 144 503 177 472 q 90 581 111 533 q 68 682 68 629 q 110 820 68 757 q 235 923 151 884 q 420 962 319 962 q 642 899 543 962 l 669 946 l 766 946 m 543 0 l 543 -62 q 589 -58 573 -58 q 673 -87 640 -58 q 705 -162 705 -117 q 661 -257 705 -218 q 542 -296 617 -296 q 441 -271 477 -296 q 405 -213 405 -245 q 418 -178 405 -191 q 454 -165 431 -165 q 495 -182 473 -165 q 523 -201 513 -197 q 545 -205 534 -205 q 576 -195 566 -205 q 590 -161 590 -179 q 569 -121 590 -137 q 508 -105 549 -105 q 458 -107 488 -105 l 471 0 l 543 0 z "},"ş":{"ha":722,"x_min":38,"x_max":692,"o":"m 512 677 l 601 677 l 656 488 l 528 437 q 436 529 491 496 q 326 563 380 563 q 273 551 290 563 q 255 522 255 538 q 268 495 255 507 q 319 469 280 483 l 506 403 q 601 359 555 385 q 669 294 646 332 q 692 204 692 256 q 621 53 692 112 q 415 -16 538 -16 q 231 37 309 -16 l 212 0 l 121 0 l 38 222 l 166 277 q 285 158 214 201 q 414 115 355 115 q 476 132 451 115 q 495 164 495 146 q 480 194 495 180 q 414 226 465 208 l 268 277 q 103 368 146 319 q 59 483 59 416 q 127 627 59 568 q 320 693 205 693 q 494 647 422 693 l 512 677 m 407 0 l 407 -62 q 453 -58 437 -58 q 536 -87 504 -58 q 569 -162 569 -117 q 525 -257 569 -218 q 406 -296 481 -296 q 305 -271 341 -296 q 269 -213 269 -245 q 281 -178 269 -191 q 317 -165 294 -165 q 359 -182 336 -165 q 387 -201 376 -197 q 409 -205 397 -205 q 439 -195 429 -205 q 454 -161 454 -179 q 433 -121 454 -137 q 372 -105 412 -105 q 321 -107 351 -105 l 334 0 l 407 0 z "},"Ć":{"ha":1027,"x_min":48,"x_max":1006,"o":"m 782 946 l 878 946 l 971 606 l 845 570 q 726 742 782 691 q 559 812 649 812 q 436 775 493 812 q 345 667 378 739 q 311 500 311 596 q 388 250 311 355 q 590 144 465 144 q 743 190 669 144 q 901 341 834 246 l 1006 263 q 819 68 903 123 q 527 -16 688 -16 q 285 48 393 -16 q 113 227 177 112 q 48 479 48 342 q 111 726 48 614 q 282 900 174 838 q 523 962 390 962 q 760 905 658 962 l 782 946 m 427 1013 l 399 1082 l 545 1212 q 661 1267 608 1267 q 730 1238 702 1267 q 759 1166 759 1209 q 734 1104 759 1134 q 648 1061 710 1074 l 427 1013 z "},"ć":{"ha":806,"x_min":51,"x_max":770,"o":"m 670 256 l 770 169 q 604 28 690 72 q 419 -16 517 -16 q 156 86 262 -16 q 51 336 51 189 q 100 518 51 435 q 235 647 149 601 q 437 693 321 693 q 666 628 577 693 q 754 492 754 564 q 740 437 754 461 q 698 398 726 413 q 637 383 669 383 q 591 393 612 383 q 557 419 571 404 q 534 461 551 426 q 499 519 511 505 q 470 542 487 534 q 431 549 453 549 q 364 527 396 549 q 311 458 332 504 q 290 355 290 412 q 315 242 290 292 q 380 167 339 193 q 471 141 421 141 q 566 167 518 141 q 670 256 614 193 m 315 766 l 288 835 l 434 965 q 550 1021 497 1021 q 619 991 591 1021 q 648 919 648 962 q 623 857 648 887 q 537 814 599 827 l 315 766 z "},"Č":{"ha":1027,"x_min":48,"x_max":1006,"o":"m 782 946 l 878 946 l 971 606 l 845 570 q 726 742 782 691 q 559 812 649 812 q 436 775 493 812 q 345 667 378 739 q 311 500 311 596 q 388 250 311 355 q 590 144 465 144 q 743 190 669 144 q 901 341 834 246 l 1006 263 q 819 68 903 123 q 527 -16 688 -16 q 285 48 393 -16 q 113 227 177 112 q 48 479 48 342 q 111 726 48 614 q 282 900 174 838 q 523 962 390 962 q 760 905 658 962 l 782 946 m 294 1166 l 348 1258 l 546 1184 l 745 1258 l 798 1166 l 546 1013 l 294 1166 z "},"č":{"ha":806,"x_min":51,"x_max":770,"o":"m 670 256 l 770 169 q 604 28 690 72 q 419 -16 517 -16 q 156 86 262 -16 q 51 336 51 189 q 100 518 51 435 q 235 647 149 601 q 437 693 321 693 q 666 628 577 693 q 754 492 754 564 q 740 437 754 461 q 698 398 726 413 q 637 383 669 383 q 591 393 612 383 q 557 419 571 404 q 534 461 551 426 q 499 519 511 505 q 470 542 487 534 q 431 549 453 549 q 364 527 396 549 q 311 458 332 504 q 290 355 290 412 q 315 242 290 292 q 380 167 339 193 q 471 141 421 141 q 566 167 518 141 q 670 256 614 193 m 176 919 l 229 1011 l 427 937 l 626 1011 l 679 919 l 427 766 l 176 919 z "},"đ":{"ha":889,"x_min":62,"x_max":857,"o":"m 755 814 l 857 814 l 857 742 l 755 742 l 755 207 q 759 150 755 160 q 773 136 763 140 q 825 131 783 131 l 857 131 l 857 0 l 562 -10 l 562 60 q 450 0 498 17 q 354 -16 402 -16 q 211 26 276 -16 q 103 152 145 68 q 62 337 62 235 q 104 524 62 440 q 215 650 146 608 q 367 693 283 693 q 450 683 410 693 q 538 646 490 672 l 538 742 l 300 742 l 300 814 l 538 814 l 538 864 l 439 864 l 439 938 q 575 959 523 946 q 689 996 628 971 l 755 996 l 755 814 m 538 194 l 538 421 q 532 481 538 464 q 495 526 524 507 q 431 545 466 545 q 363 523 394 545 q 313 455 332 500 q 295 342 295 410 q 336 191 295 248 q 421 146 368 146 q 465 154 444 146 q 538 194 486 161 z "},"¯":{"ha":694,"x_min":-8,"x_max":703,"o":"m -8 1082 l 703 1082 l 703 1013 l -8 1013 l -8 1082 z "},"·":{"ha":444,"x_min":125,"x_max":319,"o":"m 220 594 q 289 565 260 594 q 319 494 319 535 q 291 429 319 456 q 223 401 262 401 q 154 430 183 401 q 125 498 125 458 q 153 567 125 540 q 220 594 180 594 z "},"":{"ha":550,"x_min":22,"x_max":534,"o":"m 291 954 l 429 954 l 429 701 l 534 701 l 534 596 l 429 596 l 429 467 l 286 467 l 286 596 l 22 596 l 22 715 l 291 954 m 286 834 l 136 701 l 286 701 l 286 834 z "},"Ă":{"ha":1000,"x_min":1,"x_max":999,"o":"m 395 946 l 608 946 l 892 216 q 933 144 915 157 q 999 131 951 130 l 999 0 l 551 0 l 551 131 l 578 132 q 631 141 616 132 q 646 165 646 151 q 633 216 646 178 l 605 302 l 317 302 l 281 206 q 271 166 271 176 q 278 146 271 155 q 304 134 286 138 q 368 131 315 131 l 368 0 l 1 0 l 1 131 q 53 137 37 131 q 80 155 69 143 q 103 201 90 168 l 395 946 m 366 437 l 555 437 l 463 697 l 366 437 m 679 1253 l 752 1217 q 652 1074 723 1129 q 503 1018 581 1018 q 249 1217 346 1018 l 319 1253 q 403 1190 355 1212 q 503 1168 451 1168 q 679 1253 601 1168 z "},"ă":{"ha":806,"x_min":44,"x_max":781,"o":"m 462 410 l 462 460 q 454 522 462 505 q 427 550 447 539 q 378 562 408 562 q 338 554 356 562 q 309 535 319 547 q 283 490 298 524 q 240 430 265 448 q 180 412 214 412 q 109 439 136 412 q 81 506 81 466 q 109 587 81 551 q 222 663 147 633 q 392 693 298 693 q 552 663 486 693 q 645 590 618 632 q 671 460 671 547 l 671 218 q 675 160 671 173 q 696 138 680 148 q 730 129 711 129 q 781 140 749 129 l 781 7 q 671 -11 724 -11 q 564 9 608 -11 q 490 71 520 30 q 367 8 422 26 q 260 -11 312 -11 q 104 44 163 -11 q 44 178 44 98 q 65 262 44 224 q 126 328 85 300 q 253 379 168 357 q 462 410 339 401 m 462 298 q 336 272 373 285 q 284 238 300 258 q 269 197 269 218 q 289 152 269 170 q 344 134 309 134 q 396 145 366 134 q 462 179 425 157 l 462 298 m 554 1008 l 627 972 q 527 829 598 885 q 378 774 456 774 q 124 972 221 774 l 195 1008 q 278 946 231 968 q 378 924 326 924 q 554 1008 476 924 z "},"Ą":{"ha":1000,"x_min":1,"x_max":999,"o":"m 395 946 l 608 946 l 892 216 q 933 144 915 157 q 999 131 951 130 l 999 0 l 551 0 l 551 131 l 578 132 q 631 141 616 132 q 646 165 646 151 q 633 216 646 178 l 605 302 l 317 302 l 281 206 q 271 166 271 176 q 278 146 271 155 q 304 134 286 138 q 368 131 315 131 l 368 0 l 1 0 l 1 131 q 53 137 37 131 q 80 155 69 143 q 103 201 90 168 l 395 946 m 366 437 l 555 437 l 463 697 l 366 437 m 774 0 l 871 0 q 825 -83 825 -39 q 837 -116 825 -104 q 869 -127 848 -127 q 900 -122 885 -127 q 940 -97 914 -117 l 963 -139 q 905 -203 942 -180 q 823 -227 867 -227 q 745 -198 774 -227 q 715 -121 715 -169 q 774 0 715 -55 z "},"ą":{"ha":806,"x_min":44,"x_max":810,"o":"m 462 410 l 462 460 q 454 522 462 505 q 427 550 447 539 q 378 562 408 562 q 338 554 356 562 q 309 535 319 547 q 283 490 298 524 q 240 430 265 448 q 180 412 214 412 q 109 439 136 412 q 81 506 81 466 q 109 587 81 551 q 222 663 147 633 q 392 693 298 693 q 552 663 486 693 q 645 590 618 632 q 671 460 671 547 l 671 218 q 675 160 671 173 q 696 138 680 148 q 730 129 711 129 q 781 140 749 129 l 781 7 q 671 -11 724 -11 q 564 9 608 -11 q 490 71 520 30 q 367 8 422 26 q 260 -11 312 -11 q 104 44 163 -11 q 44 178 44 98 q 65 262 44 224 q 126 328 85 300 q 253 379 168 357 q 462 410 339 401 m 462 298 q 336 272 373 285 q 284 238 300 258 q 269 197 269 218 q 289 152 269 170 q 344 134 309 134 q 396 145 366 134 q 462 179 425 157 l 462 298 m 621 0 l 718 0 q 673 -83 673 -39 q 684 -116 673 -104 q 716 -127 696 -127 q 747 -122 732 -127 q 787 -97 762 -117 l 810 -139 q 752 -203 789 -180 q 670 -227 715 -227 q 592 -198 621 -227 q 563 -121 563 -169 q 621 0 563 -55 z "},"Ď":{"ha":1083,"x_min":52,"x_max":1034,"o":"m 52 946 l 547 946 q 816 892 716 946 q 975 734 916 839 q 1034 481 1034 629 q 1004 298 1034 379 q 914 153 974 218 q 786 56 854 88 q 640 16 734 31 q 488 0 545 0 l 52 0 l 52 131 l 84 131 q 138 138 125 131 q 159 161 151 144 q 165 217 165 174 l 165 734 q 159 790 165 777 q 140 809 153 802 q 84 815 127 815 l 52 815 l 52 946 m 397 794 l 397 206 q 401 170 397 176 q 417 156 406 159 q 467 152 427 152 q 641 186 578 152 q 743 296 704 220 q 781 476 781 372 q 745 655 781 579 q 655 763 709 732 q 502 794 602 794 l 397 794 m 231 1163 l 285 1255 l 483 1181 l 682 1255 l 734 1163 l 483 1010 l 231 1163 z "},"ď":{"ha":1053,"x_min":62,"x_max":1062,"o":"m 755 996 l 755 207 q 759 150 755 160 q 773 136 763 140 q 825 131 783 131 l 857 131 l 857 0 l 562 -10 l 562 60 q 450 0 498 17 q 354 -16 402 -16 q 211 26 276 -16 q 103 152 145 68 q 62 337 62 235 q 104 524 62 440 q 215 650 146 608 q 367 693 283 693 q 450 683 410 693 q 538 646 490 672 l 538 806 l 439 806 l 439 938 q 575 959 523 946 q 689 996 628 971 l 755 996 m 538 194 l 538 421 q 532 481 538 464 q 495 526 524 507 q 431 545 466 545 q 363 523 394 545 q 313 455 332 500 q 295 342 295 410 q 336 191 295 248 q 421 146 368 146 q 465 154 444 146 q 538 194 486 161 m 886 583 l 820 654 q 949 816 937 756 q 903 800 928 800 q 845 828 869 800 q 820 895 820 857 q 853 972 820 941 q 930 1003 886 1003 q 1021 963 980 1003 q 1062 852 1062 924 q 886 583 1062 715 z "},"Đ":{"ha":1083,"x_min":52,"x_max":1034,"o":"m 165 424 l 52 424 l 52 522 l 165 522 l 165 734 q 159 790 165 777 q 140 809 153 802 q 84 815 127 815 l 52 815 l 52 946 l 547 946 q 816 892 716 946 q 975 734 916 839 q 1034 481 1034 629 q 1004 298 1034 379 q 914 153 974 218 q 786 56 854 88 q 640 16 734 31 q 488 0 545 0 l 52 0 l 52 131 l 84 131 q 138 138 125 131 q 159 161 151 144 q 165 217 165 174 l 165 424 m 397 424 l 397 206 q 401 170 397 176 q 417 156 406 159 q 467 152 427 152 q 641 186 578 152 q 743 296 704 220 q 781 476 781 372 q 745 655 781 579 q 655 763 709 732 q 502 794 602 794 l 397 794 l 397 522 l 572 522 l 572 424 l 397 424 z "},"Ę":{"ha":1000,"x_min":53,"x_max":995,"o":"m 53 946 l 842 946 l 950 647 l 827 603 q 754 721 796 676 q 662 780 713 766 q 545 795 612 795 l 400 795 l 400 559 l 448 559 q 520 567 501 559 q 547 591 538 574 q 555 657 555 608 l 555 693 l 675 693 l 675 293 l 555 293 l 555 334 q 545 394 555 375 q 518 420 535 413 q 443 427 501 427 l 400 427 l 400 210 q 404 168 400 175 q 417 156 407 160 q 459 152 427 152 l 538 152 q 688 177 627 152 q 797 259 749 203 q 871 394 845 316 l 995 351 l 871 0 l 53 0 l 53 131 l 77 131 q 140 138 124 131 q 163 161 157 144 q 167 219 167 172 l 167 734 q 161 789 167 777 q 143 809 155 802 q 95 815 131 815 l 53 815 l 53 946 m 662 0 l 759 0 q 713 -83 713 -39 q 725 -116 713 -104 q 757 -127 736 -127 q 788 -122 773 -127 q 828 -97 802 -117 l 851 -139 q 793 -203 830 -180 q 711 -227 755 -227 q 633 -198 662 -227 q 604 -121 604 -169 q 662 0 604 -55 z "},"ę":{"ha":806,"x_min":50,"x_max":758,"o":"m 665 251 l 758 157 q 595 25 678 66 q 416 -16 512 -16 q 155 89 261 -16 q 50 342 50 193 q 97 520 50 439 q 229 647 144 602 q 419 693 313 693 q 543 673 487 693 q 640 617 598 654 q 707 529 682 581 q 742 421 732 477 q 746 333 746 393 l 290 333 q 340 194 291 247 q 460 140 389 140 q 559 168 506 140 q 665 251 613 195 m 530 447 q 510 511 525 488 q 471 548 496 534 q 419 562 446 562 q 364 548 391 562 q 322 509 338 534 q 301 447 306 485 l 530 447 m 387 0 l 484 0 q 439 -83 439 -39 q 450 -116 439 -104 q 482 -127 462 -127 q 513 -122 498 -127 q 553 -97 528 -117 l 576 -139 q 518 -203 555 -180 q 436 -227 481 -227 q 358 -198 387 -227 q 329 -121 329 -169 q 387 0 329 -55 z "},"Ě":{"ha":1000,"x_min":53,"x_max":995,"o":"m 53 946 l 842 946 l 950 647 l 827 603 q 754 721 796 676 q 662 780 713 766 q 545 795 612 795 l 400 795 l 400 559 l 448 559 q 520 567 501 559 q 547 591 538 574 q 555 657 555 608 l 555 693 l 675 693 l 675 293 l 555 293 l 555 334 q 545 394 555 375 q 518 420 535 413 q 443 427 501 427 l 400 427 l 400 210 q 404 168 400 175 q 417 156 407 160 q 459 152 427 152 l 538 152 q 688 177 627 152 q 797 259 749 203 q 871 394 845 316 l 995 351 l 871 0 l 53 0 l 53 131 l 77 131 q 140 138 124 131 q 163 161 157 144 q 167 219 167 172 l 167 734 q 161 789 167 777 q 143 809 155 802 q 95 815 131 815 l 53 815 l 53 946 m 248 1163 l 302 1255 l 500 1181 l 699 1255 l 751 1163 l 500 1010 l 248 1163 z "},"ě":{"ha":806,"x_min":50,"x_max":758,"o":"m 665 251 l 758 157 q 595 25 678 66 q 416 -16 512 -16 q 155 89 261 -16 q 50 342 50 193 q 97 520 50 439 q 229 647 144 602 q 419 693 313 693 q 543 673 487 693 q 640 617 598 654 q 707 529 682 581 q 742 421 732 477 q 746 333 746 393 l 290 333 q 340 194 291 247 q 460 140 389 140 q 559 168 506 140 q 665 251 613 195 m 530 447 q 510 511 525 488 q 471 548 496 534 q 419 562 446 562 q 364 548 391 562 q 322 509 338 534 q 301 447 306 485 l 530 447 m 151 919 l 205 1011 l 403 937 l 602 1011 l 654 919 l 403 766 l 151 919 z "},"Ĳ":{"ha":1444,"x_min":47,"x_max":1413,"o":"m 47 946 l 509 946 l 509 815 l 467 815 q 408 801 421 815 q 395 735 395 786 l 395 212 q 406 146 395 161 q 458 131 418 131 l 509 131 l 509 0 l 47 0 l 47 131 l 85 131 q 147 144 133 131 q 161 205 161 157 l 161 730 q 150 799 161 783 q 90 815 139 815 l 47 815 l 47 946 m 953 946 l 1413 946 l 1413 815 l 1374 815 q 1312 800 1325 815 q 1299 727 1299 785 l 1299 348 q 1289 210 1299 260 q 1229 104 1278 161 q 1104 15 1181 47 q 922 -16 1028 -16 q 652 74 745 -16 q 558 269 558 163 q 595 375 558 331 q 692 418 632 418 q 777 384 750 418 q 804 308 804 350 l 804 264 q 839 171 804 205 q 931 136 873 136 q 1014 165 980 136 q 1057 230 1048 193 q 1065 353 1065 267 l 1065 745 q 1053 801 1065 786 q 998 815 1040 815 l 953 815 l 953 946 z "},"ĳ":{"ha":972,"x_min":54,"x_max":888,"o":"m 260 996 q 348 959 311 996 q 385 871 385 923 q 348 783 385 820 q 260 747 311 747 q 173 783 209 747 q 136 871 136 819 q 175 961 136 926 q 260 996 214 996 m 764 996 q 851 959 814 996 q 888 871 888 923 q 851 784 888 821 q 764 747 814 747 q 676 784 712 747 q 640 871 640 821 q 676 959 640 923 q 764 996 713 996 m 370 693 l 370 192 q 380 141 370 151 q 436 131 391 131 l 473 131 l 473 0 l 54 0 l 54 131 l 90 131 q 145 140 136 131 q 154 182 154 149 l 154 506 l 54 506 l 54 633 q 306 693 213 642 l 370 693 m 873 693 l 873 -29 q 848 -177 873 -121 q 750 -272 823 -234 q 581 -310 678 -310 q 417 -264 469 -310 q 366 -168 366 -219 q 395 -105 366 -131 q 463 -79 425 -79 q 571 -146 513 -79 q 608 -170 591 -170 q 657 -86 657 -170 l 657 506 l 557 506 l 557 635 q 808 693 695 635 l 873 693 z "},"Ĺ":{"ha":889,"x_min":56,"x_max":903,"o":"m 56 946 l 518 946 l 518 815 l 477 815 q 435 812 444 815 q 411 791 418 805 q 404 747 404 777 l 404 206 q 407 166 404 174 q 419 154 410 159 q 456 150 429 150 q 602 174 547 150 q 702 250 657 197 q 778 393 746 302 l 903 350 l 778 0 l 56 0 l 56 131 l 101 131 q 143 138 129 131 q 164 158 157 146 q 170 202 170 171 l 170 738 q 164 787 170 772 q 145 808 157 802 q 106 815 134 815 l 56 815 l 56 946 m 275 1010 l 248 1079 l 394 1209 q 510 1265 457 1265 q 579 1236 551 1265 q 608 1163 608 1206 q 583 1101 608 1131 q 497 1058 559 1072 l 275 1010 z "},"ĺ":{"ha":472,"x_min":39,"x_max":458,"o":"m 355 996 l 355 202 q 359 155 355 162 q 380 135 363 141 q 435 131 390 131 l 458 131 l 458 0 l 39 0 l 39 131 l 64 131 q 117 136 105 131 q 134 152 128 141 q 139 202 139 163 l 139 807 l 39 807 l 39 939 q 290 996 160 947 l 355 996 m 83 1010 l 56 1079 l 202 1209 q 318 1265 265 1265 q 387 1236 359 1265 q 416 1163 416 1206 q 391 1101 416 1131 q 305 1058 367 1072 l 83 1010 z "},"Ľ":{"ha":889,"x_min":56,"x_max":903,"o":"m 56 946 l 518 946 l 518 815 l 477 815 q 435 812 444 815 q 411 791 418 805 q 404 747 404 777 l 404 206 q 407 166 404 174 q 419 154 410 159 q 456 150 429 150 q 602 174 547 150 q 702 250 657 197 q 778 393 746 302 l 903 350 l 778 0 l 56 0 l 56 131 l 101 131 q 143 138 129 131 q 164 158 157 146 q 170 202 170 171 l 170 738 q 164 787 170 772 q 145 808 157 802 q 106 815 134 815 l 56 815 l 56 946 m 675 542 l 609 613 q 738 775 726 715 q 692 759 718 759 q 634 787 659 759 q 609 854 609 816 q 642 931 609 901 q 720 962 675 962 q 810 923 769 962 q 851 812 851 883 q 675 542 851 674 z "},"ľ":{"ha":661,"x_min":39,"x_max":659,"o":"m 355 996 l 355 202 q 359 155 355 162 q 380 135 363 141 q 435 131 390 131 l 458 131 l 458 0 l 39 0 l 39 131 l 64 131 q 117 136 105 131 q 134 152 128 141 q 139 202 139 163 l 139 807 l 39 807 l 39 939 q 290 996 160 947 l 355 996 m 482 583 l 416 654 q 545 816 533 756 q 500 800 525 800 q 441 828 466 800 q 416 895 416 857 q 449 972 416 941 q 527 1003 482 1003 q 617 963 576 1003 q 659 852 659 924 q 482 583 659 715 z "},"Ŀ":{"ha":889,"x_min":56,"x_max":903,"o":"m 56 946 l 518 946 l 518 815 l 477 815 q 435 812 444 815 q 411 791 418 805 q 404 747 404 777 l 404 206 q 407 166 404 174 q 419 154 410 159 q 456 150 429 150 q 602 174 547 150 q 702 250 657 197 q 778 393 746 302 l 903 350 l 778 0 l 56 0 l 56 131 l 101 131 q 143 138 129 131 q 164 158 157 146 q 170 202 170 171 l 170 738 q 164 787 170 772 q 145 808 157 802 q 106 815 134 815 l 56 815 l 56 946 m 549 628 q 618 598 589 628 q 648 528 648 568 q 620 463 648 490 q 552 435 591 435 q 483 463 512 435 q 454 532 454 492 q 481 601 454 574 q 549 628 509 628 z "},"ŀ":{"ha":532,"x_min":39,"x_max":576,"o":"m 355 996 l 355 202 q 359 155 355 162 q 380 135 363 141 q 435 131 390 131 l 458 131 l 458 0 l 39 0 l 39 131 l 64 131 q 117 136 105 131 q 134 152 128 141 q 139 202 139 163 l 139 807 l 39 807 l 39 939 q 290 996 160 947 l 355 996 m 477 628 q 547 598 517 628 q 576 528 576 568 q 548 463 576 490 q 481 435 520 435 q 412 463 441 435 q 383 532 383 492 q 410 601 383 574 q 477 628 437 628 z "},"Ń":{"ha":1027,"x_min":53,"x_max":991,"o":"m 53 946 l 437 946 l 715 394 l 715 732 q 710 786 715 775 q 692 809 703 802 q 647 815 680 815 l 601 815 l 601 946 l 991 946 l 991 815 l 948 815 q 902 808 916 815 q 882 787 888 800 q 877 732 877 774 l 877 0 l 682 0 l 331 697 l 331 210 q 336 156 331 168 q 354 138 341 144 q 400 131 368 131 l 446 131 l 446 0 l 53 0 l 53 131 l 94 131 q 140 137 127 131 q 160 157 153 142 q 168 199 168 171 l 168 742 q 161 788 168 773 q 142 809 154 802 q 104 815 131 815 l 53 815 l 53 946 m 394 1010 l 367 1079 l 513 1209 q 629 1265 576 1265 q 698 1236 669 1265 q 726 1163 726 1206 q 702 1101 726 1131 q 616 1058 677 1072 l 394 1010 z "},"ń":{"ha":945,"x_min":62,"x_max":912,"o":"m 353 693 l 353 603 q 485 674 430 655 q 596 693 539 693 q 712 665 662 693 q 786 596 763 637 q 809 477 809 554 l 809 195 q 814 149 809 159 q 830 134 819 139 q 879 131 838 131 l 912 131 l 912 0 l 514 0 l 514 131 q 565 133 559 132 q 587 149 582 138 q 593 195 593 159 l 593 444 q 583 507 593 492 q 531 530 566 530 q 469 517 502 530 q 379 465 435 505 l 379 195 q 389 141 379 151 q 434 131 398 131 l 456 131 l 456 0 l 62 0 l 62 131 l 81 131 q 139 135 128 131 q 156 149 151 139 q 162 189 162 159 l 162 505 l 62 505 l 62 636 q 290 693 184 651 l 353 693 m 352 766 l 325 835 l 471 965 q 587 1021 534 1021 q 656 991 627 1021 q 684 919 684 962 q 660 857 684 887 q 574 814 635 827 l 352 766 z "},"Ň":{"ha":1027,"x_min":53,"x_max":991,"o":"m 53 946 l 437 946 l 715 394 l 715 732 q 710 786 715 775 q 692 809 703 802 q 647 815 680 815 l 601 815 l 601 946 l 991 946 l 991 815 l 948 815 q 902 808 916 815 q 882 787 888 800 q 877 732 877 774 l 877 0 l 682 0 l 331 697 l 331 210 q 336 156 331 168 q 354 138 341 144 q 400 131 368 131 l 446 131 l 446 0 l 53 0 l 53 131 l 94 131 q 140 137 127 131 q 160 157 153 142 q 168 199 168 171 l 168 742 q 161 788 168 773 q 142 809 154 802 q 104 815 131 815 l 53 815 l 53 946 m 262 1163 l 316 1255 l 514 1181 l 713 1255 l 766 1163 l 514 1010 l 262 1163 z "},"ň":{"ha":945,"x_min":62,"x_max":912,"o":"m 353 693 l 353 603 q 485 674 430 655 q 596 693 539 693 q 712 665 662 693 q 786 596 763 637 q 809 477 809 554 l 809 195 q 814 149 809 159 q 830 134 819 139 q 879 131 838 131 l 912 131 l 912 0 l 514 0 l 514 131 q 565 133 559 132 q 587 149 582 138 q 593 195 593 159 l 593 444 q 583 507 593 492 q 531 530 566 530 q 469 517 502 530 q 379 465 435 505 l 379 195 q 389 141 379 151 q 434 131 398 131 l 456 131 l 456 0 l 62 0 l 62 131 l 81 131 q 139 135 128 131 q 156 149 151 139 q 162 189 162 159 l 162 505 l 62 505 l 62 636 q 290 693 184 651 l 353 693 m 220 919 l 274 1011 l 472 937 l 671 1011 l 724 919 l 472 766 l 220 919 z "},"ŉ":{"ha":1225,"x_min":9,"x_max":1194,"o":"m 635 693 l 635 603 q 766 674 711 655 q 878 693 821 693 q 994 665 943 693 q 1067 596 1044 637 q 1090 477 1090 554 l 1090 195 q 1096 149 1090 159 q 1112 134 1101 139 q 1160 131 1120 131 l 1194 131 l 1194 0 l 795 0 l 795 131 q 846 133 841 132 q 869 149 863 138 q 874 195 874 159 l 874 444 q 864 507 874 492 q 812 530 848 530 q 750 517 783 530 q 661 465 717 505 l 661 195 q 670 141 661 151 q 715 131 680 131 l 737 131 l 737 0 l 343 0 l 343 131 l 363 131 q 421 135 410 131 q 438 149 432 139 q 444 189 444 159 l 444 505 l 343 505 l 343 636 q 572 693 465 651 l 635 693 m 86 500 l 9 585 q 122 697 99 666 q 161 774 146 729 q 134 761 148 766 q 107 756 121 756 q 39 789 68 756 q 9 867 9 821 q 46 959 9 922 q 138 996 84 996 q 216 973 178 996 q 273 910 253 950 q 294 819 294 871 q 237 650 294 732 q 86 500 180 568 z "},"Ő":{"ha":1111,"x_min":48,"x_max":1063,"o":"m 559 962 q 924 825 785 962 q 1063 473 1063 688 q 1000 217 1063 329 q 824 44 936 105 q 553 -16 711 -16 q 210 99 343 -16 q 48 471 48 238 q 190 825 48 687 q 559 962 331 962 m 562 812 q 391 731 454 812 q 311 469 311 629 q 385 214 311 308 q 555 134 450 134 q 726 214 662 134 q 801 470 801 310 q 769 659 801 583 q 682 774 736 736 q 562 812 627 812 m 416 1031 l 449 1177 q 473 1245 461 1230 q 528 1271 495 1271 q 575 1251 555 1271 q 594 1202 594 1230 q 555 1122 594 1162 l 449 1011 l 416 1031 m 652 1031 l 686 1177 q 709 1244 697 1230 q 764 1271 731 1271 q 811 1251 792 1271 q 830 1202 830 1230 q 791 1122 830 1162 l 686 1011 l 652 1031 z "},"ő":{"ha":861,"x_min":52,"x_max":810,"o":"m 429 693 q 631 648 545 693 q 763 524 717 602 q 810 340 810 446 q 707 83 810 182 q 431 -16 604 -16 q 152 83 256 -16 q 52 340 52 178 q 97 524 52 447 q 230 647 143 600 q 429 693 317 693 m 431 545 q 359 522 393 545 q 306 454 325 498 q 288 340 288 409 q 306 222 288 269 q 356 153 324 175 q 427 130 389 130 q 530 181 487 130 q 572 338 572 231 q 533 493 572 441 q 431 545 493 545 m 279 787 l 312 933 q 336 1001 324 986 q 391 1027 358 1027 q 438 1006 418 1027 q 457 958 457 986 q 418 878 457 918 l 312 767 l 279 787 m 515 787 l 549 933 q 572 1000 560 986 q 627 1027 594 1027 q 674 1006 655 1027 q 693 958 693 986 q 654 878 693 918 l 549 767 l 515 787 z "},"Ŕ":{"ha":1083,"x_min":50,"x_max":1084,"o":"m 50 946 l 633 946 q 756 936 690 946 q 877 891 823 926 q 961 804 931 857 q 991 684 991 751 q 914 510 991 576 q 732 422 837 443 l 926 196 l 935 186 q 969 152 954 163 q 1000 136 985 140 q 1044 131 1016 131 l 1084 131 l 1084 0 l 781 0 l 477 408 l 399 408 l 399 219 q 404 157 399 170 q 421 137 410 144 q 469 131 433 131 l 513 131 l 513 0 l 50 0 l 50 131 l 92 131 q 139 138 125 131 q 160 159 153 145 q 163 210 163 168 l 163 743 q 158 787 163 774 q 142 804 153 800 q 104 812 125 812 l 85 811 l 50 811 l 50 946 m 399 791 l 399 546 l 539 546 q 663 561 622 546 q 725 605 704 576 q 745 674 745 633 q 726 738 745 711 q 671 778 707 765 q 555 791 635 791 l 399 791 m 389 1010 l 362 1079 l 508 1209 q 624 1265 571 1265 q 693 1236 665 1265 q 722 1163 722 1206 q 697 1101 722 1131 q 611 1058 673 1072 l 389 1010 z "},"ŕ":{"ha":639,"x_min":59,"x_max":639,"o":"m 353 693 l 353 595 q 447 672 407 652 q 523 693 486 693 q 582 678 556 693 q 624 634 608 663 q 639 573 639 606 q 611 496 639 530 q 532 461 583 461 q 508 463 518 461 q 463 477 497 465 q 434 482 446 482 q 376 460 416 482 l 376 195 q 381 151 376 161 q 397 136 386 140 q 448 131 409 131 l 477 131 l 477 0 l 59 0 l 59 131 l 94 131 q 140 135 131 131 q 154 149 149 139 q 159 195 159 159 l 159 506 l 59 506 l 59 636 q 289 693 170 643 l 353 693 m 224 766 l 197 835 l 343 965 q 459 1021 406 1021 q 528 991 500 1021 q 557 919 557 962 q 532 857 557 887 q 446 814 508 827 l 224 766 z "},"Ř":{"ha":1083,"x_min":50,"x_max":1084,"o":"m 50 946 l 633 946 q 756 936 690 946 q 877 891 823 926 q 961 804 931 857 q 991 684 991 751 q 914 510 991 576 q 732 422 837 443 l 926 196 l 935 186 q 969 152 954 163 q 1000 136 985 140 q 1044 131 1016 131 l 1084 131 l 1084 0 l 781 0 l 477 408 l 399 408 l 399 219 q 404 157 399 170 q 421 137 410 144 q 469 131 433 131 l 513 131 l 513 0 l 50 0 l 50 131 l 92 131 q 139 138 125 131 q 160 159 153 145 q 163 210 163 168 l 163 743 q 158 787 163 774 q 142 804 153 800 q 104 812 125 812 l 85 811 l 50 811 l 50 946 m 399 791 l 399 546 l 539 546 q 663 561 622 546 q 725 605 704 576 q 745 674 745 633 q 726 738 745 711 q 671 778 707 765 q 555 791 635 791 l 399 791 m 266 1163 l 319 1255 l 517 1181 l 716 1255 l 769 1163 l 517 1010 l 266 1163 z "},"ř":{"ha":639,"x_min":59,"x_max":639,"o":"m 353 693 l 353 595 q 447 672 407 652 q 523 693 486 693 q 582 678 556 693 q 624 634 608 663 q 639 573 639 606 q 611 496 639 530 q 532 461 583 461 q 508 463 518 461 q 463 477 497 465 q 434 482 446 482 q 376 460 416 482 l 376 195 q 381 151 376 161 q 397 136 386 140 q 448 131 409 131 l 477 131 l 477 0 l 59 0 l 59 131 l 94 131 q 140 135 131 131 q 154 149 149 139 q 159 195 159 159 l 159 506 l 59 506 l 59 636 q 289 693 170 643 l 353 693 m 68 919 l 121 1011 l 319 937 l 518 1011 l 571 919 l 319 766 l 68 919 z "},"Ś":{"ha":917,"x_min":47,"x_max":884,"o":"m 766 946 l 847 629 l 721 593 q 578 759 658 706 q 408 811 498 811 q 316 787 349 811 q 282 734 282 764 q 313 673 282 701 q 422 622 342 644 l 604 569 q 820 454 755 526 q 884 285 884 381 q 786 77 884 162 q 515 -16 677 -16 q 376 3 439 -16 q 245 68 313 22 l 215 0 l 114 0 l 47 367 l 174 397 q 313 211 218 286 q 521 136 408 136 q 605 149 572 136 q 656 184 639 161 q 673 232 673 208 q 633 302 673 273 q 494 359 593 331 l 336 406 q 238 444 300 416 q 144 503 177 472 q 90 581 111 533 q 68 682 68 629 q 110 820 68 757 q 235 923 151 884 q 420 962 319 962 q 642 899 543 962 l 669 946 l 766 946 m 347 1010 l 319 1079 l 465 1209 q 581 1265 528 1265 q 650 1236 622 1265 q 679 1163 679 1206 q 654 1101 679 1131 q 568 1058 630 1072 l 347 1010 z "},"ś":{"ha":722,"x_min":38,"x_max":692,"o":"m 512 677 l 601 677 l 656 488 l 528 437 q 436 529 491 496 q 326 563 380 563 q 273 551 290 563 q 255 522 255 538 q 268 495 255 507 q 319 469 280 483 l 506 403 q 601 359 555 385 q 669 294 646 332 q 692 204 692 256 q 621 53 692 112 q 415 -16 538 -16 q 231 37 309 -16 l 212 0 l 121 0 l 38 222 l 166 277 q 285 158 214 201 q 414 115 355 115 q 476 132 451 115 q 495 164 495 146 q 480 194 495 180 q 414 226 465 208 l 268 277 q 103 368 146 319 q 59 483 59 416 q 127 627 59 568 q 320 693 205 693 q 494 647 422 693 l 512 677 m 241 766 l 214 835 l 360 965 q 476 1021 423 1021 q 545 991 517 1021 q 574 919 574 962 q 549 857 574 887 q 463 814 525 827 l 241 766 z "},"Ţ":{"ha":972,"x_min":2,"x_max":970,"o":"m 119 978 l 208 978 l 218 946 l 751 946 l 763 978 l 853 978 l 970 646 l 844 602 q 784 710 802 685 q 701 788 748 760 q 631 810 666 810 q 609 802 615 810 q 603 766 603 794 l 603 222 q 606 162 603 174 q 618 143 610 150 q 640 133 626 136 q 716 131 654 131 l 716 0 l 255 0 l 255 131 l 283 131 q 342 137 329 131 q 361 157 355 142 q 368 218 368 172 l 368 774 q 363 804 368 798 q 340 810 357 810 q 261 783 304 810 q 184 709 218 757 q 126 602 170 690 l 2 646 l 119 978 m 379 -57 q 481 -49 438 -49 q 629 -161 629 -49 q 584 -258 629 -220 q 471 -296 538 -296 q 384 -273 422 -296 q 345 -212 345 -250 q 387 -165 345 -165 q 427 -182 405 -165 q 474 -205 456 -205 q 503 -191 492 -205 q 513 -161 513 -176 q 439 -114 513 -114 q 366 -121 409 -114 l 379 -57 z "},"ţ":{"ha":639,"x_min":39,"x_max":606,"o":"m 357 909 l 357 677 l 575 677 l 575 532 l 357 532 l 357 296 q 365 194 357 216 q 397 157 374 171 q 467 139 427 139 q 606 184 536 139 l 606 39 q 499 0 547 12 q 395 -11 451 -11 q 284 5 332 -11 q 201 51 235 21 q 154 113 167 80 q 140 210 140 146 l 140 532 l 39 532 l 39 663 q 132 713 93 680 q 194 792 170 746 q 226 909 217 838 l 357 909 m 277 -57 q 379 -49 336 -49 q 527 -161 527 -49 q 482 -258 527 -220 q 370 -296 437 -296 q 282 -273 320 -296 q 243 -212 243 -250 q 285 -165 243 -165 q 326 -182 303 -165 q 372 -205 355 -205 q 401 -191 390 -205 q 412 -161 412 -176 q 337 -114 412 -114 q 264 -121 307 -114 l 277 -57 z "},"Ť":{"ha":972,"x_min":2,"x_max":970,"o":"m 119 978 l 208 978 l 218 946 l 751 946 l 763 978 l 853 978 l 970 646 l 844 602 q 784 710 802 685 q 701 788 748 760 q 631 810 666 810 q 609 802 615 810 q 603 766 603 794 l 603 222 q 606 162 603 174 q 618 143 610 150 q 640 133 626 136 q 716 131 654 131 l 716 0 l 255 0 l 255 131 l 283 131 q 342 137 329 131 q 361 157 355 142 q 368 218 368 172 l 368 774 q 363 804 368 798 q 340 810 357 810 q 261 783 304 810 q 184 709 218 757 q 126 602 170 690 l 2 646 l 119 978 m 248 1163 l 302 1255 l 500 1181 l 699 1255 l 751 1163 l 500 1010 l 248 1163 z "},"ť":{"ha":639,"x_min":39,"x_max":618,"o":"m 505 726 l 463 771 q 545 875 537 836 q 516 865 532 865 q 479 881 496 865 q 463 925 463 897 q 484 975 463 956 q 533 995 505 995 q 591 969 565 995 q 618 899 618 944 q 505 726 618 808 m 357 909 l 357 677 l 575 677 l 575 532 l 357 532 l 357 296 q 363 198 357 223 q 398 156 370 174 q 467 139 427 139 q 606 184 536 139 l 606 39 q 399 -11 503 -11 q 248 19 307 -11 q 164 91 189 50 q 140 210 140 133 l 140 532 l 39 532 l 39 663 q 226 909 205 715 l 357 909 z "},"Ů":{"ha":1027,"x_min":25,"x_max":1002,"o":"m 25 946 l 487 946 l 487 815 l 441 815 q 397 808 410 815 q 378 786 384 800 q 372 730 372 772 l 372 385 q 391 241 372 289 q 449 169 410 194 q 544 144 488 144 q 643 172 600 144 q 705 240 686 199 q 724 378 724 282 l 724 758 q 718 792 724 782 q 696 811 709 806 q 648 815 686 815 l 611 815 l 611 946 l 1002 946 l 1002 815 l 972 815 q 916 810 926 815 q 892 786 899 802 q 886 730 886 776 l 886 357 q 857 184 886 254 q 725 36 815 89 q 510 -16 634 -16 q 353 11 422 -16 q 232 87 284 37 q 160 193 180 137 q 139 357 139 248 l 139 722 q 134 787 139 772 q 116 808 128 802 q 68 815 104 815 l 25 815 l 25 946 m 657 1171 q 615 1072 657 1113 q 514 1031 574 1031 q 413 1072 455 1031 q 371 1172 371 1114 q 413 1272 371 1230 q 514 1313 455 1313 q 615 1271 574 1313 q 657 1171 657 1230 m 465 1173 q 479 1136 465 1151 q 513 1121 494 1121 q 547 1136 533 1121 q 562 1172 562 1151 q 547 1208 562 1193 q 513 1223 533 1223 q 479 1208 493 1223 q 465 1173 465 1194 z "},"ů":{"ha":917,"x_min":36,"x_max":888,"o":"m 36 677 l 353 683 l 353 243 q 358 180 353 196 q 379 155 364 165 q 418 145 395 145 q 490 161 452 145 q 569 210 505 168 l 569 474 q 564 522 569 509 q 548 540 558 534 q 509 546 538 546 l 469 546 l 469 677 l 787 683 l 787 197 q 791 150 787 159 q 805 135 795 140 q 852 131 815 131 l 888 131 l 888 0 l 591 -8 l 591 72 q 471 6 531 28 q 349 -16 410 -16 q 259 0 300 -16 q 191 42 218 16 q 149 105 163 69 q 136 197 136 141 l 136 477 q 131 526 136 515 q 117 541 127 536 q 73 546 106 546 l 36 546 l 36 677 m 602 926 q 560 828 602 869 q 458 787 518 787 q 357 828 399 787 q 315 928 315 869 q 357 1027 315 986 q 458 1069 399 1069 q 560 1027 518 1069 q 602 926 602 985 m 410 929 q 424 892 410 907 q 458 877 438 877 q 492 892 477 877 q 506 928 506 907 q 492 964 506 949 q 458 979 477 979 q 424 964 437 979 q 410 929 410 949 z "},"Ű":{"ha":1027,"x_min":25,"x_max":1002,"o":"m 25 946 l 487 946 l 487 815 l 441 815 q 397 808 410 815 q 378 786 384 800 q 372 730 372 772 l 372 385 q 391 241 372 289 q 449 169 410 194 q 544 144 488 144 q 643 172 600 144 q 705 240 686 199 q 724 378 724 282 l 724 758 q 718 792 724 782 q 696 811 709 806 q 648 815 686 815 l 611 815 l 611 946 l 1002 946 l 1002 815 l 972 815 q 916 810 926 815 q 892 786 899 802 q 886 730 886 776 l 886 357 q 857 184 886 254 q 725 36 815 89 q 510 -16 634 -16 q 353 11 422 -16 q 232 87 284 37 q 160 193 180 137 q 139 357 139 248 l 139 722 q 134 787 139 772 q 116 808 128 802 q 68 815 104 815 l 25 815 l 25 946 m 406 1038 l 439 1183 q 463 1251 451 1236 q 517 1277 485 1277 q 565 1257 545 1277 q 584 1208 584 1236 q 545 1128 584 1168 l 439 1017 l 406 1038 m 642 1038 l 675 1183 q 699 1251 687 1236 q 754 1277 721 1277 q 801 1257 782 1277 q 820 1208 820 1236 q 781 1128 820 1168 l 675 1017 l 642 1038 z "},"ű":{"ha":917,"x_min":36,"x_max":888,"o":"m 36 677 l 353 683 l 353 243 q 358 180 353 196 q 379 155 364 165 q 418 145 395 145 q 490 161 452 145 q 569 210 505 168 l 569 474 q 564 522 569 509 q 548 540 558 534 q 509 546 538 546 l 469 546 l 469 677 l 787 683 l 787 197 q 791 150 787 159 q 805 135 795 140 q 852 131 815 131 l 888 131 l 888 0 l 591 -8 l 591 72 q 471 6 531 28 q 349 -16 410 -16 q 259 0 300 -16 q 191 42 218 16 q 149 105 163 69 q 136 197 136 141 l 136 477 q 131 526 136 515 q 117 541 127 536 q 73 546 106 546 l 36 546 l 36 677 m 282 793 l 315 939 q 340 1007 328 992 q 394 1033 361 1033 q 441 1013 422 1033 q 460 964 460 992 q 422 884 460 924 l 315 773 l 282 793 m 519 793 l 552 939 q 576 1006 564 992 q 631 1033 597 1033 q 677 1013 659 1033 q 696 964 696 992 q 658 884 696 924 l 552 773 l 519 793 z "},"Ź":{"ha":889,"x_min":22,"x_max":880,"o":"m 824 946 l 824 815 l 323 147 l 382 147 q 565 170 505 147 q 676 250 625 193 q 756 392 728 308 l 880 350 l 756 0 l 34 0 l 34 131 l 536 797 l 458 797 q 329 778 378 797 q 244 722 280 759 q 141 565 208 684 l 22 618 l 165 946 l 824 946 m 366 1010 l 338 1079 l 484 1209 q 600 1265 547 1265 q 669 1236 641 1265 q 698 1163 698 1206 q 673 1101 698 1131 q 587 1058 649 1072 l 366 1010 z "},"ź":{"ha":778,"x_min":36,"x_max":764,"o":"m 150 677 l 725 677 l 725 546 l 321 144 l 413 144 q 525 159 486 144 q 594 208 564 175 q 641 289 614 231 l 764 243 l 674 0 l 36 0 l 36 131 l 436 533 l 374 533 q 282 521 314 533 q 220 477 250 509 q 166 396 205 461 l 47 451 l 150 677 m 302 766 l 275 835 l 420 965 q 536 1021 484 1021 q 606 991 577 1021 q 634 919 634 962 q 610 857 634 887 q 524 814 585 827 l 302 766 z "},"Ż":{"ha":889,"x_min":22,"x_max":880,"o":"m 824 946 l 824 815 l 323 147 l 382 147 q 565 170 505 147 q 676 250 625 193 q 756 392 728 308 l 880 350 l 756 0 l 34 0 l 34 131 l 536 797 l 458 797 q 329 778 378 797 q 244 722 280 759 q 141 565 208 684 l 22 618 l 165 946 l 824 946 m 484 1211 q 553 1181 524 1211 q 583 1112 583 1152 q 554 1046 583 1074 q 487 1018 526 1018 q 418 1046 447 1018 q 389 1116 389 1075 q 416 1184 389 1157 q 484 1211 444 1211 z "},"ż":{"ha":778,"x_min":36,"x_max":764,"o":"m 150 677 l 725 677 l 725 546 l 321 144 l 413 144 q 525 159 486 144 q 594 208 564 175 q 641 289 614 231 l 764 243 l 674 0 l 36 0 l 36 131 l 436 533 l 374 533 q 282 521 314 533 q 220 477 250 509 q 166 396 205 461 l 47 451 l 150 677 m 435 967 q 505 937 475 967 q 534 867 534 907 q 506 802 534 829 q 439 774 478 774 q 370 802 399 774 q 341 871 341 831 q 368 940 341 913 q 435 967 395 967 z "},"":{"ha":911,"x_min":50,"x_max":878,"o":"m 878 920 l 878 676 l 853 676 q 811 793 840 748 q 754 850 783 838 q 669 863 725 863 l 400 863 l 400 128 q 424 48 400 72 q 516 24 448 24 l 552 24 l 552 0 l 50 0 l 50 24 l 82 24 q 165 49 144 24 q 186 142 186 74 l 186 788 q 159 877 186 859 q 69 895 132 895 l 50 895 l 50 920 l 878 920 z "},"":{"ha":1086,"x_min":48,"x_max":1039,"o":"m 1039 455 q 904 116 1039 253 q 543 -21 768 -21 q 299 32 408 -21 q 119 197 191 85 q 48 460 48 308 q 115 715 48 604 q 297 884 182 827 q 542 941 412 941 q 815 868 691 941 q 989 683 939 795 q 1039 455 1039 570 m 800 450 q 730 776 800 661 q 544 891 659 891 q 359 782 433 891 q 286 462 286 673 q 354 150 286 271 q 541 28 421 28 q 729 141 659 28 q 800 450 800 255 m 424 290 l 399 290 l 399 634 l 424 634 q 449 563 424 584 q 543 542 474 542 q 637 562 612 542 q 663 634 663 581 l 688 634 l 688 290 l 663 290 q 564 380 663 380 q 473 373 495 380 q 437 345 451 366 q 424 290 424 324 z "},"":{"ha":1105,"x_min":48,"x_max":1057,"o":"m 349 0 l 349 24 q 422 46 399 24 q 445 124 444 68 q 141 232 235 134 q 48 460 48 331 q 148 694 48 600 q 445 794 247 788 q 446 810 446 804 q 424 872 446 850 q 349 895 401 894 l 349 920 l 756 920 l 756 895 q 682 872 704 894 q 659 810 659 851 q 660 794 659 804 q 957 694 858 788 q 1057 460 1057 600 q 1004 282 1057 361 q 873 168 951 203 q 660 124 795 134 q 683 46 661 68 q 756 24 706 24 l 756 0 l 349 0 m 445 744 q 311 681 361 747 q 262 454 262 614 q 319 231 262 287 q 445 175 377 175 l 445 744 m 660 176 q 671 175 668 175 q 787 231 731 175 q 844 463 844 286 q 660 744 844 744 l 660 176 z "},"":{"ha":767,"x_min":52,"x_max":742,"o":"m 516 634 l 702 634 l 638 336 l 633 318 l 627 290 q 593 169 610 214 q 618 109 599 133 q 658 85 637 85 q 717 186 713 85 l 742 186 q 715 22 741 64 q 654 -19 690 -19 q 566 118 591 -19 q 332 -19 490 -19 q 130 68 208 -19 q 52 296 52 156 q 129 547 52 440 q 315 653 205 653 q 486 502 425 653 l 516 634 m 468 417 q 396 566 427 534 q 331 598 366 598 q 270 541 288 598 q 252 278 252 483 q 269 76 252 123 q 321 29 286 29 q 374 61 349 29 q 429 232 399 92 l 468 417 z "},"":{"ha":695,"x_min":52,"x_max":644,"o":"m 328 568 q 283 614 310 589 q 184 719 215 676 q 153 814 153 762 q 203 908 153 876 q 335 941 254 941 q 498 910 433 941 q 564 827 564 880 q 544 782 564 798 q 497 766 524 766 q 397 829 451 766 q 288 890 345 890 q 223 869 249 890 q 198 820 198 848 q 343 673 198 758 q 512 563 459 606 q 605 444 566 520 q 644 290 644 368 q 554 72 644 163 q 338 -19 465 -19 q 136 63 221 -19 q 52 278 52 145 q 86 412 52 357 q 172 504 121 468 q 328 568 223 540 m 357 531 q 268 453 294 507 q 243 270 243 399 q 270 72 243 115 q 340 28 296 28 q 450 252 450 28 q 357 531 450 418 z "},"":{"ha":621,"x_min":52,"x_max":570,"o":"m 277 332 q 130 395 178 346 q 82 495 82 444 q 146 606 82 559 q 345 653 211 653 q 506 621 454 653 q 558 541 558 589 q 539 495 558 515 q 484 475 521 475 q 429 492 448 475 q 410 526 410 509 q 416 558 410 537 q 419 574 419 567 q 351 606 419 606 q 254 480 254 606 q 273 384 254 408 q 345 360 292 360 q 373 361 359 360 q 418 365 407 365 q 443 357 432 365 q 454 337 454 349 q 418 312 454 312 q 385 313 403 312 q 345 315 361 315 q 250 171 250 315 q 350 28 250 28 q 404 42 381 28 q 427 75 427 57 q 422 102 427 83 q 420 123 420 113 q 442 171 420 155 q 492 186 463 186 q 549 165 529 186 q 570 113 570 143 q 505 19 570 57 q 342 -19 439 -19 q 135 32 219 -19 q 52 161 52 83 q 73 229 52 197 q 138 289 94 262 q 277 332 183 315 z "},"":{"ha":772,"x_min":52,"x_max":743,"o":"m 743 634 l 743 493 l 477 493 q 656 239 656 395 q 570 55 656 129 q 364 -19 484 -19 q 141 85 231 -19 q 52 323 52 189 q 156 550 52 465 q 457 634 261 634 l 743 634 m 412 493 q 240 313 240 488 q 279 113 240 197 q 370 28 318 28 q 442 86 416 28 q 468 241 468 144 q 412 493 468 380 z "},"":{"ha":608,"x_min":48,"x_max":560,"o":"m 560 634 l 560 492 l 368 492 q 347 207 347 267 q 366 129 347 157 q 417 100 386 100 q 501 214 487 100 l 524 214 q 476 33 520 85 q 373 -19 432 -19 q 276 31 316 -19 q 236 207 236 81 q 257 492 236 291 q 220 494 231 494 q 127 475 157 494 q 75 411 98 457 l 48 411 q 129 574 92 532 q 193 625 165 616 q 313 634 221 634 l 560 634 z "},"":{"ha":842,"x_min":52,"x_max":790,"o":"m 473 -290 l 365 -290 l 365 -18 q 223 22 298 -18 q 99 144 147 62 q 52 327 52 227 q 140 561 52 467 q 349 653 229 655 l 349 629 q 259 537 286 608 q 233 323 233 465 q 273 97 233 168 q 365 25 313 26 l 365 451 q 411 607 365 562 q 525 653 456 653 q 704 566 617 653 q 790 336 790 479 q 752 168 790 250 q 640 35 714 85 q 473 -18 566 -15 l 473 -290 m 473 25 q 564 95 522 27 q 607 321 607 162 q 579 511 607 447 q 509 576 551 576 q 481 545 488 576 q 473 400 473 514 l 473 25 z "},"‗":{"ha":694,"x_min":-8,"x_max":703,"o":"m -8 -113 l 703 -113 l 703 -182 l -8 -182 l -8 -113 m -8 -233 l 703 -233 l 703 -302 l -8 -302 l -8 -233 z "},"′":{"ha":333,"x_min":85,"x_max":260,"o":"m 85 574 l 95 801 q 106 883 97 853 q 143 938 115 913 q 202 962 172 962 q 260 889 260 962 q 235 801 260 863 l 138 574 l 85 574 z "},"″":{"ha":583,"x_min":85,"x_max":511,"o":"m 85 574 l 95 801 q 106 883 97 852 q 143 938 115 913 q 202 962 172 962 q 260 890 260 962 q 241 817 260 858 q 235 801 237 808 l 138 574 l 85 574 m 336 574 l 345 801 q 356 883 347 852 q 394 938 366 913 q 452 962 422 962 q 511 890 511 962 q 491 817 511 858 q 484 801 487 808 l 389 574 l 336 574 z "},"‼":{"ha":836,"x_min":122,"x_max":715,"o":"m 317 288 l 186 288 q 144 661 178 439 q 122 833 122 808 q 160 924 122 886 q 250 962 199 962 q 340 924 302 962 q 378 831 378 886 q 372 764 378 805 q 317 288 319 456 m 654 288 l 522 288 q 481 661 514 439 q 458 833 458 808 q 497 924 458 886 q 586 962 535 962 q 676 924 638 962 q 715 831 715 886 q 708 764 715 805 q 654 288 656 456 m 250 241 q 339 204 302 241 q 376 115 376 168 q 339 26 376 64 q 250 -11 302 -11 q 160 26 197 -11 q 123 115 123 63 q 161 204 123 168 q 250 241 198 241 m 586 241 q 675 205 637 241 q 713 115 713 169 q 675 26 713 64 q 586 -11 638 -11 q 497 26 534 -11 q 460 115 460 63 q 497 204 460 168 q 586 241 534 241 z "},"ⁿ":{"ha":614,"x_min":32,"x_max":601,"o":"m 238 814 l 238 766 q 387 814 313 814 q 475 791 439 814 q 523 744 512 769 q 534 675 534 720 l 534 495 q 539 480 534 483 q 571 477 545 477 l 601 477 l 601 379 l 377 379 l 377 655 q 371 689 377 681 q 345 697 364 697 q 254 662 306 697 l 254 506 q 259 480 254 484 q 304 477 264 477 l 304 379 l 32 379 l 32 477 l 53 477 q 91 480 85 477 q 97 503 97 484 l 97 682 l 32 682 l 32 779 q 188 814 118 787 l 238 814 z "},"₧":{"ha":2062,"x_min":56,"x_max":2032,"o":"m 914 675 q 1033 784 1004 725 q 1069 909 1062 843 l 1200 909 l 1200 677 l 1556 677 q 1661 693 1604 693 q 1835 647 1763 693 l 1853 677 l 1942 677 l 1997 488 l 1868 437 q 1783 525 1839 488 q 1668 563 1727 563 q 1596 522 1596 563 q 1660 469 1596 492 l 1847 403 q 1991 320 1950 366 q 2032 204 2032 274 q 1951 44 2032 105 q 1756 -16 1869 -16 q 1571 37 1650 -16 l 1552 0 l 1462 0 l 1448 39 q 1242 -11 1345 -11 q 1091 19 1150 -11 q 1007 91 1031 50 q 983 210 983 133 l 983 532 l 883 532 q 564 375 794 375 l 403 375 l 403 198 q 415 145 403 159 q 469 131 427 131 l 517 131 l 517 0 l 56 0 l 56 131 l 87 131 q 155 146 141 131 q 169 211 169 161 l 169 731 q 158 800 169 785 q 101 815 146 815 l 56 815 l 56 946 l 555 946 q 914 675 886 946 m 403 791 l 403 523 l 484 523 q 592 538 560 523 q 646 583 624 553 q 669 660 669 613 q 631 754 669 716 q 508 791 593 791 l 403 791 m 1402 159 l 1379 222 l 1507 277 q 1625 158 1554 201 q 1756 115 1695 115 q 1812 130 1788 115 q 1836 164 1836 144 q 1754 226 1836 197 l 1608 277 q 1447 365 1493 317 q 1400 483 1400 412 q 1406 532 1400 507 l 1200 532 l 1200 296 q 1206 199 1200 223 q 1240 157 1213 174 q 1312 139 1267 139 q 1402 159 1351 139 z "},"℅":{"ha":1260,"x_min":42,"x_max":1219,"o":"m 446 696 l 519 633 q 286 513 421 513 q 113 578 183 513 q 42 736 42 642 q 112 896 42 830 q 298 962 181 962 q 451 920 394 962 q 509 833 509 877 q 484 780 509 800 q 426 761 459 761 q 380 774 396 761 q 344 827 365 787 q 294 864 325 864 q 235 830 259 864 q 212 748 212 797 q 241 656 212 693 q 319 620 271 620 q 446 696 381 620 m 965 962 l 376 -16 l 267 -16 l 852 962 l 965 962 m 966 439 q 1143 382 1068 439 q 1219 216 1219 326 q 1151 53 1219 115 q 968 -10 1082 -10 q 787 50 857 -10 q 718 216 718 109 q 783 373 718 307 q 966 439 848 439 m 968 338 q 909 307 932 338 q 885 215 885 276 q 966 90 885 90 q 1026 120 1001 90 q 1050 214 1050 151 q 1029 303 1050 269 q 968 338 1008 338 z "},"ℓ":{"ha":575,"x_min":26,"x_max":524,"o":"m 26 231 l 121 333 l 121 686 q 183 905 121 837 q 327 973 245 973 q 439 932 393 973 q 486 820 486 892 q 458 693 486 762 q 311 482 431 623 l 311 227 q 329 111 311 144 q 385 77 347 77 q 489 205 461 77 l 524 205 q 308 -15 478 -15 q 177 38 234 -15 q 121 207 121 92 l 121 280 l 51 208 l 26 231 m 311 532 q 444 809 444 688 q 388 903 444 903 q 329 856 347 903 q 311 699 311 808 l 311 532 z "},"←":{"ha":1389,"x_min":54,"x_max":1335,"o":"m 334 594 l 385 594 q 253 385 330 479 l 1335 385 l 1335 316 l 253 316 q 387 106 322 247 l 334 106 q 54 338 183 278 l 54 368 q 334 594 174 416 z "},"↑":{"ha":694,"x_min":104,"x_max":591,"o":"m 104 712 q 330 992 281 872 l 361 992 q 591 711 420 862 l 591 659 q 382 792 451 724 l 382 -291 l 313 -291 l 313 792 q 104 660 219 715 l 104 712 z "},"→":{"ha":1389,"x_min":54,"x_max":1335,"o":"m 1055 594 q 1335 368 1215 416 l 1335 338 q 1054 106 1205 278 l 1002 106 q 1135 316 1066 247 l 54 316 l 54 385 l 1135 385 q 1003 594 1058 479 l 1055 594 z "},"↓":{"ha":694,"x_min":104,"x_max":591,"o":"m 104 -11 l 104 41 q 313 -92 219 -14 l 313 992 l 382 992 l 382 -92 q 591 42 451 -22 l 591 -10 q 361 -291 420 -161 l 330 -291 q 104 -11 281 -172 z "},"↔":{"ha":1389,"x_min":54,"x_max":1335,"o":"m 1335 366 l 1335 336 q 1059 107 1212 282 l 1005 107 q 1137 318 1052 224 l 252 318 q 383 107 336 224 l 329 107 q 54 336 177 282 l 54 366 q 329 595 177 420 l 383 595 q 252 385 336 479 l 1137 385 q 1005 595 1052 479 l 1059 595 q 1335 366 1212 420 z "},"↕":{"ha":694,"x_min":103,"x_max":591,"o":"m 332 992 l 362 992 q 591 716 416 869 l 591 662 q 380 794 475 709 l 380 -92 q 591 40 475 -6 l 591 -14 q 362 -290 416 -166 l 332 -290 q 103 -14 278 -166 l 103 40 q 314 -92 219 -6 l 314 794 q 103 662 219 709 l 103 716 q 332 992 278 869 z "},"↨":{"ha":694,"x_min":103,"x_max":591,"o":"m 332 992 l 362 992 q 591 716 416 869 l 591 662 q 380 794 475 709 l 380 -92 q 591 40 475 -6 l 591 -14 q 362 -290 416 -166 l 332 -290 q 103 -14 278 -166 l 103 40 q 314 -92 219 -6 l 314 794 q 103 662 219 709 l 103 716 q 332 992 278 869 m 104 -354 l 591 -354 l 591 -420 l 104 -420 l 104 -354 z "},"∟":{"ha":1360,"x_min":245,"x_max":1114,"o":"m 245 867 l 313 867 l 313 68 l 1114 68 l 1114 0 l 245 0 l 245 867 z "},"∩":{"ha":998,"x_min":123,"x_max":875,"o":"m 211 0 l 123 0 l 123 404 q 125 559 124 484 q 139 690 126 633 q 180 794 151 747 q 259 883 208 842 q 372 947 310 924 q 499 969 434 969 q 684 921 598 969 q 812 805 770 872 q 865 663 855 738 q 875 404 875 589 l 875 0 l 788 0 l 788 408 q 780 632 788 564 q 741 754 772 700 q 642 846 709 808 q 499 884 574 884 q 356 845 423 884 q 258 754 288 806 q 219 633 227 701 q 211 408 211 564 l 211 0 z "},"≡":{"ha":833,"x_min":80,"x_max":753,"o":"m 80 856 l 753 856 l 753 731 l 80 731 l 80 856 m 80 537 l 753 537 l 753 409 l 80 409 l 80 537 m 80 215 l 753 215 l 753 90 l 80 90 l 80 215 z "},"□":{"ha":839,"x_min":99,"x_max":739,"o":"m 99 640 l 739 640 l 739 0 l 99 0 l 99 640 m 151 589 l 151 52 l 688 52 l 688 589 l 151 589 z "},"▪":{"ha":492,"x_min":89,"x_max":403,"o":"m 403 616 l 403 302 l 89 302 l 89 616 l 403 616 z "},"▫":{"ha":492,"x_min":89,"x_max":403,"o":"m 403 616 l 403 302 l 89 302 l 89 616 l 403 616 m 351 565 l 140 564 l 140 353 l 351 353 l 351 565 z "},"●":{"ha":839,"x_min":121,"x_max":718,"o":"m 420 690 q 630 603 543 690 q 718 392 718 515 q 631 181 718 269 q 420 93 543 93 q 209 181 296 93 q 121 392 121 269 q 210 605 121 520 q 420 690 299 690 z "},"◦":{"ha":492,"x_min":52,"x_max":439,"o":"m 246 652 q 383 596 326 652 q 439 458 439 539 q 383 321 439 378 q 246 264 326 264 q 109 321 165 264 q 52 458 52 378 q 109 596 52 539 q 246 652 166 652 m 246 601 q 146 560 189 601 q 104 458 104 519 q 145 358 104 400 q 246 316 187 316 q 347 358 305 316 q 389 458 389 400 q 347 559 389 517 q 246 601 304 601 z "},"":{"ha":472,"x_min":104,"x_max":347,"o":"m 170 -503 l 104 -431 q 233 -269 221 -329 q 188 -286 213 -286 q 129 -257 154 -286 q 104 -191 104 -229 q 137 -113 104 -144 q 215 -82 170 -82 q 306 -122 264 -82 q 347 -233 347 -161 q 170 -503 347 -370 z "},"Ā":{"ha":1000,"x_min":1,"x_max":999,"o":"m 395 946 l 608 946 l 892 216 q 933 144 915 157 q 999 131 951 130 l 999 0 l 551 0 l 551 131 l 578 132 q 631 141 616 132 q 646 165 646 151 q 633 216 646 178 l 605 302 l 317 302 l 281 206 q 271 166 271 176 q 278 146 271 155 q 304 134 286 138 q 368 131 315 131 l 368 0 l 1 0 l 1 131 q 53 137 37 131 q 80 155 69 143 q 103 201 90 168 l 395 946 m 366 437 l 555 437 l 463 697 l 366 437 m 719 1173 l 719 1051 l 281 1051 l 281 1173 l 719 1173 z "},"ā":{"ha":806,"x_min":44,"x_max":781,"o":"m 462 410 l 462 460 q 454 522 462 505 q 427 550 447 539 q 378 562 408 562 q 338 554 356 562 q 309 535 319 547 q 283 490 298 524 q 240 430 265 448 q 180 412 214 412 q 109 439 136 412 q 81 506 81 466 q 109 587 81 551 q 222 663 147 633 q 392 693 298 693 q 552 663 486 693 q 645 590 618 632 q 671 460 671 547 l 671 218 q 675 160 671 173 q 696 138 680 148 q 730 129 711 129 q 781 140 749 129 l 781 7 q 671 -11 724 -11 q 564 9 608 -11 q 490 71 520 30 q 367 8 422 26 q 260 -11 312 -11 q 104 44 163 -11 q 44 178 44 98 q 65 262 44 224 q 126 328 85 300 q 253 379 168 357 q 462 410 339 401 m 462 298 q 336 272 373 285 q 284 238 300 258 q 269 197 269 218 q 289 152 269 170 q 344 134 309 134 q 396 145 366 134 q 462 179 425 157 l 462 298 m 614 929 l 614 807 l 177 807 l 177 929 l 614 929 z "},"Ĉ":{"ha":1027,"x_min":48,"x_max":1006,"o":"m 782 946 l 878 946 l 971 606 l 845 570 q 726 742 782 691 q 559 812 649 812 q 436 775 493 812 q 345 667 378 739 q 311 500 311 596 q 388 250 311 355 q 590 144 465 144 q 743 190 669 144 q 901 341 834 246 l 1006 263 q 819 68 903 123 q 527 -16 688 -16 q 285 48 393 -16 q 113 227 177 112 q 48 479 48 342 q 111 726 48 614 q 282 900 174 838 q 523 962 390 962 q 760 905 658 962 l 782 946 m 779 1105 l 726 1013 l 527 1087 l 328 1013 l 275 1105 l 527 1257 l 779 1105 z "},"ĉ":{"ha":806,"x_min":51,"x_max":770,"o":"m 670 256 l 770 169 q 604 28 690 72 q 419 -16 517 -16 q 156 86 262 -16 q 51 336 51 189 q 100 518 51 435 q 235 647 149 601 q 437 693 321 693 q 666 628 577 693 q 754 492 754 564 q 740 437 754 461 q 698 398 726 413 q 637 383 669 383 q 591 393 612 383 q 557 419 571 404 q 534 461 551 426 q 499 519 511 505 q 470 542 487 534 q 431 549 453 549 q 364 527 396 549 q 311 458 332 504 q 290 355 290 412 q 315 242 290 292 q 380 167 339 193 q 471 141 421 141 q 566 167 518 141 q 670 256 614 193 m 680 861 l 626 769 l 427 843 l 229 769 l 175 861 l 427 1013 l 680 861 z "},"Ċ":{"ha":1027,"x_min":48,"x_max":1006,"o":"m 782 946 l 878 946 l 971 606 l 845 570 q 726 742 782 691 q 559 812 649 812 q 436 775 493 812 q 345 667 378 739 q 311 500 311 596 q 388 250 311 355 q 590 144 465 144 q 743 190 669 144 q 901 341 834 246 l 1006 263 q 819 68 903 123 q 527 -16 688 -16 q 285 48 393 -16 q 113 227 177 112 q 48 479 48 342 q 111 726 48 614 q 282 900 174 838 q 523 962 390 962 q 760 905 658 962 l 782 946 m 533 1211 q 603 1181 573 1211 q 632 1112 632 1152 q 604 1046 632 1074 q 536 1018 576 1018 q 468 1046 496 1018 q 439 1116 439 1075 q 466 1184 439 1157 q 533 1211 493 1211 z "},"ċ":{"ha":806,"x_min":51,"x_max":770,"o":"m 670 256 l 770 169 q 604 28 690 72 q 419 -16 517 -16 q 156 86 262 -16 q 51 336 51 189 q 100 518 51 435 q 235 647 149 601 q 437 693 321 693 q 666 628 577 693 q 754 492 754 564 q 740 437 754 461 q 698 398 726 413 q 637 383 669 383 q 591 393 612 383 q 557 419 571 404 q 534 461 551 426 q 499 519 511 505 q 470 542 487 534 q 431 549 453 549 q 364 527 396 549 q 311 458 332 504 q 290 355 290 412 q 315 242 290 292 q 380 167 339 193 q 471 141 421 141 q 566 167 518 141 q 670 256 614 193 m 408 967 q 478 937 448 967 q 507 867 507 907 q 479 802 507 829 q 412 774 451 774 q 343 802 372 774 q 314 871 314 831 q 341 940 314 913 q 408 967 368 967 z "},"Ē":{"ha":1000,"x_min":53,"x_max":995,"o":"m 53 946 l 842 946 l 950 647 l 827 603 q 754 721 796 676 q 662 780 713 766 q 545 795 612 795 l 400 795 l 400 559 l 448 559 q 520 567 501 559 q 547 591 538 574 q 555 657 555 608 l 555 693 l 675 693 l 675 293 l 555 293 l 555 334 q 545 394 555 375 q 518 420 535 413 q 443 427 501 427 l 400 427 l 400 210 q 404 168 400 175 q 417 156 407 160 q 459 152 427 152 l 538 152 q 688 177 627 152 q 797 259 749 203 q 871 394 845 316 l 995 351 l 871 0 l 53 0 l 53 131 l 77 131 q 140 138 124 131 q 163 161 157 144 q 167 219 167 172 l 167 734 q 161 789 167 777 q 143 809 155 802 q 95 815 131 815 l 53 815 l 53 946 m 709 1173 l 709 1051 l 271 1051 l 271 1173 l 709 1173 z "},"ē":{"ha":806,"x_min":50,"x_max":758,"o":"m 665 251 l 758 157 q 595 25 678 66 q 416 -16 512 -16 q 155 89 261 -16 q 50 342 50 193 q 97 520 50 439 q 229 647 144 602 q 419 693 313 693 q 543 673 487 693 q 640 617 598 654 q 707 529 682 581 q 742 421 732 477 q 746 333 746 393 l 290 333 q 340 194 291 247 q 460 140 389 140 q 559 168 506 140 q 665 251 613 195 m 530 447 q 510 511 525 488 q 471 548 496 534 q 419 562 446 562 q 364 548 391 562 q 322 509 338 534 q 301 447 306 485 l 530 447 m 631 929 l 631 807 l 193 807 l 193 929 l 631 929 z "},"Ĕ":{"ha":1000,"x_min":53,"x_max":995,"o":"m 53 946 l 842 946 l 950 647 l 827 603 q 754 721 796 676 q 662 780 713 766 q 545 795 612 795 l 400 795 l 400 559 l 448 559 q 520 567 501 559 q 547 591 538 574 q 555 657 555 608 l 555 693 l 675 693 l 675 293 l 555 293 l 555 334 q 545 394 555 375 q 518 420 535 413 q 443 427 501 427 l 400 427 l 400 210 q 404 168 400 175 q 417 156 407 160 q 459 152 427 152 l 538 152 q 688 177 627 152 q 797 259 749 203 q 871 394 845 316 l 995 351 l 871 0 l 53 0 l 53 131 l 77 131 q 140 138 124 131 q 163 161 157 144 q 167 219 167 172 l 167 734 q 161 789 167 777 q 143 809 155 802 q 95 815 131 815 l 53 815 l 53 946 m 685 1253 l 758 1217 q 658 1074 729 1129 q 509 1018 587 1018 q 255 1217 352 1018 l 326 1253 q 409 1190 361 1212 q 509 1168 457 1168 q 685 1253 607 1168 z "},"ĕ":{"ha":806,"x_min":50,"x_max":758,"o":"m 665 251 l 758 157 q 595 25 678 66 q 416 -16 512 -16 q 155 89 261 -16 q 50 342 50 193 q 97 520 50 439 q 229 647 144 602 q 419 693 313 693 q 543 673 487 693 q 640 617 598 654 q 707 529 682 581 q 742 421 732 477 q 746 333 746 393 l 290 333 q 340 194 291 247 q 460 140 389 140 q 559 168 506 140 q 665 251 613 195 m 530 447 q 510 511 525 488 q 471 548 496 534 q 419 562 446 562 q 364 548 391 562 q 322 509 338 534 q 301 447 306 485 l 530 447 m 591 1008 l 664 972 q 564 829 635 885 q 414 774 492 774 q 161 972 258 774 l 231 1008 q 315 946 267 968 q 414 924 363 924 q 591 1008 513 924 z "},"Ė":{"ha":1000,"x_min":53,"x_max":995,"o":"m 53 946 l 842 946 l 950 647 l 827 603 q 754 721 796 676 q 662 780 713 766 q 545 795 612 795 l 400 795 l 400 559 l 448 559 q 520 567 501 559 q 547 591 538 574 q 555 657 555 608 l 555 693 l 675 693 l 675 293 l 555 293 l 555 334 q 545 394 555 375 q 518 420 535 413 q 443 427 501 427 l 400 427 l 400 210 q 404 168 400 175 q 417 156 407 160 q 459 152 427 152 l 538 152 q 688 177 627 152 q 797 259 749 203 q 871 394 845 316 l 995 351 l 871 0 l 53 0 l 53 131 l 77 131 q 140 138 124 131 q 163 161 157 144 q 167 219 167 172 l 167 734 q 161 789 167 777 q 143 809 155 802 q 95 815 131 815 l 53 815 l 53 946 m 505 1211 q 574 1181 545 1211 q 604 1112 604 1152 q 575 1046 604 1074 q 508 1018 547 1018 q 439 1046 468 1018 q 410 1116 410 1075 q 437 1184 410 1157 q 505 1211 465 1211 z "},"ė":{"ha":806,"x_min":50,"x_max":758,"o":"m 665 251 l 758 157 q 595 25 678 66 q 416 -16 512 -16 q 155 89 261 -16 q 50 342 50 193 q 97 520 50 439 q 229 647 144 602 q 419 693 313 693 q 543 673 487 693 q 640 617 598 654 q 707 529 682 581 q 742 421 732 477 q 746 333 746 393 l 290 333 q 340 194 291 247 q 460 140 389 140 q 559 168 506 140 q 665 251 613 195 m 530 447 q 510 511 525 488 q 471 548 496 534 q 419 562 446 562 q 364 548 391 562 q 322 509 338 534 q 301 447 306 485 l 530 447 m 410 967 q 480 937 450 967 q 509 867 509 907 q 481 802 509 829 q 414 774 453 774 q 345 802 374 774 q 316 871 316 831 q 343 940 316 913 q 410 967 370 967 z "},"Ĝ":{"ha":1083,"x_min":50,"x_max":1072,"o":"m 610 505 l 1072 505 l 1072 372 l 1037 372 q 990 366 1003 372 q 972 347 978 360 q 966 296 966 334 l 966 0 l 827 0 l 791 68 q 659 5 727 26 q 516 -16 590 -16 q 280 47 387 -16 q 112 223 174 110 q 50 477 50 336 q 111 726 50 616 q 282 899 172 836 q 522 962 393 962 q 646 946 584 962 q 752 904 708 930 l 777 946 l 872 946 l 958 633 l 833 592 q 732 732 769 695 q 647 791 695 770 q 554 812 600 812 q 434 774 490 812 q 345 666 378 737 q 313 492 313 594 q 348 298 313 380 q 441 177 384 216 q 568 137 499 137 q 661 157 617 137 q 721 201 705 176 q 737 267 737 225 l 737 301 q 732 347 737 337 q 712 366 725 360 q 663 372 700 372 l 610 372 l 610 505 m 812 1105 l 759 1013 l 560 1087 l 361 1013 l 308 1105 l 560 1257 l 812 1105 z "},"ĝ":{"ha":806,"x_min":23,"x_max":808,"o":"m 574 637 q 646 710 610 688 q 722 731 682 731 q 785 708 762 731 q 808 648 808 684 q 786 592 808 614 q 732 570 764 570 l 709 571 l 686 572 q 650 558 668 572 q 687 440 687 496 q 650 324 687 380 q 548 237 613 268 q 391 205 482 205 q 337 209 364 205 q 283 218 311 212 q 256 195 265 206 q 246 175 246 184 q 290 148 246 154 l 570 108 q 751 41 696 90 q 807 -79 807 -9 q 765 -192 807 -140 q 628 -277 723 -243 q 387 -310 532 -310 q 176 -285 260 -310 q 58 -223 93 -260 q 23 -151 23 -185 q 49 -82 23 -113 q 157 -11 75 -51 q 81 34 106 7 q 47 106 47 69 q 79 186 47 147 q 174 264 111 226 q 118 312 138 286 q 86 374 98 337 q 73 449 73 410 q 156 622 73 551 q 375 693 239 693 q 485 679 435 693 q 574 637 535 665 m 382 564 q 310 532 338 564 q 282 446 282 500 q 309 366 282 395 q 379 336 336 336 q 449 367 421 336 q 477 446 477 397 q 451 532 477 500 q 382 564 424 564 m 283 -43 q 238 -86 248 -71 q 228 -118 228 -100 q 282 -170 228 -151 q 421 -189 336 -189 q 530 -178 483 -189 q 593 -151 578 -167 q 604 -123 604 -141 q 583 -91 604 -104 q 485 -68 563 -77 l 283 -43 m 668 861 l 614 769 l 416 843 l 217 769 l 163 861 l 416 1013 l 668 861 z "},"Ġ":{"ha":1083,"x_min":50,"x_max":1072,"o":"m 610 505 l 1072 505 l 1072 372 l 1037 372 q 990 366 1003 372 q 972 347 978 360 q 966 296 966 334 l 966 0 l 827 0 l 791 68 q 659 5 727 26 q 516 -16 590 -16 q 280 47 387 -16 q 112 223 174 110 q 50 477 50 336 q 111 726 50 616 q 282 899 172 836 q 522 962 393 962 q 646 946 584 962 q 752 904 708 930 l 777 946 l 872 946 l 958 633 l 833 592 q 732 732 769 695 q 647 791 695 770 q 554 812 600 812 q 434 774 490 812 q 345 666 378 737 q 313 492 313 594 q 348 298 313 380 q 441 177 384 216 q 568 137 499 137 q 661 157 617 137 q 721 201 705 176 q 737 267 737 225 l 737 301 q 732 347 737 337 q 712 366 725 360 q 663 372 700 372 l 610 372 l 610 505 m 558 1211 q 628 1181 598 1211 q 657 1112 657 1152 q 629 1046 657 1074 q 562 1018 601 1018 q 493 1046 522 1018 q 464 1116 464 1075 q 491 1184 464 1157 q 558 1211 518 1211 z "},"ġ":{"ha":806,"x_min":23,"x_max":808,"o":"m 574 637 q 646 710 610 688 q 722 731 682 731 q 785 708 762 731 q 808 648 808 684 q 786 592 808 614 q 732 570 764 570 l 709 571 l 686 572 q 650 558 668 572 q 687 440 687 496 q 650 324 687 380 q 548 237 613 268 q 391 205 482 205 q 337 209 364 205 q 283 218 311 212 q 256 195 265 206 q 246 175 246 184 q 290 148 246 154 l 570 108 q 751 41 696 90 q 807 -79 807 -9 q 765 -192 807 -140 q 628 -277 723 -243 q 387 -310 532 -310 q 176 -285 260 -310 q 58 -223 93 -260 q 23 -151 23 -185 q 49 -82 23 -113 q 157 -11 75 -51 q 81 34 106 7 q 47 106 47 69 q 79 186 47 147 q 174 264 111 226 q 118 312 138 286 q 86 374 98 337 q 73 449 73 410 q 156 622 73 551 q 375 693 239 693 q 485 679 435 693 q 574 637 535 665 m 382 564 q 310 532 338 564 q 282 446 282 500 q 309 366 282 395 q 379 336 336 336 q 449 367 421 336 q 477 446 477 397 q 451 532 477 500 q 382 564 424 564 m 283 -43 q 238 -86 248 -71 q 228 -118 228 -100 q 282 -170 228 -151 q 421 -189 336 -189 q 530 -178 483 -189 q 593 -151 578 -167 q 604 -123 604 -141 q 583 -91 604 -104 q 485 -68 563 -77 l 283 -43 m 397 967 q 466 937 437 967 q 496 867 496 907 q 468 802 496 829 q 400 774 439 774 q 331 802 360 774 q 302 871 302 831 q 330 940 302 913 q 397 967 357 967 z "},"Ģ":{"ha":1083,"x_min":50,"x_max":1072,"o":"m 610 505 l 1072 505 l 1072 372 l 1037 372 q 990 366 1003 372 q 972 347 978 360 q 966 296 966 334 l 966 0 l 827 0 l 791 68 q 659 5 727 26 q 516 -16 590 -16 q 280 47 387 -16 q 112 223 174 110 q 50 477 50 336 q 111 726 50 616 q 282 899 172 836 q 522 962 393 962 q 646 946 584 962 q 752 904 708 930 l 777 946 l 872 946 l 958 633 l 833 592 q 732 732 769 695 q 647 791 695 770 q 554 812 600 812 q 434 774 490 812 q 345 666 378 737 q 313 492 313 594 q 348 298 313 380 q 441 177 384 216 q 568 137 499 137 q 661 157 617 137 q 721 201 705 176 q 737 267 737 225 l 737 301 q 732 347 737 337 q 712 366 725 360 q 663 372 700 372 l 610 372 l 610 505 m 570 0 l 570 -62 q 616 -58 600 -58 q 700 -87 667 -58 q 732 -162 732 -117 q 688 -257 732 -218 q 569 -296 644 -296 q 468 -271 505 -296 q 432 -213 432 -245 q 445 -178 432 -191 q 481 -165 458 -165 q 522 -182 500 -165 q 550 -201 540 -197 q 572 -205 561 -205 q 603 -195 593 -205 q 617 -161 617 -179 q 596 -121 617 -137 q 535 -105 576 -105 q 485 -107 515 -105 l 498 0 l 570 0 z "},"ģ":{"ha":806,"x_min":23,"x_max":808,"o":"m 574 637 q 646 710 610 688 q 722 731 682 731 q 785 708 762 731 q 808 648 808 684 q 786 592 808 614 q 732 570 764 570 l 709 571 l 686 572 q 650 558 668 572 q 687 440 687 496 q 650 324 687 380 q 548 237 613 268 q 391 205 482 205 q 337 209 364 205 q 283 218 311 212 q 256 195 265 206 q 246 175 246 184 q 290 148 246 154 l 570 108 q 751 41 696 90 q 807 -79 807 -9 q 765 -192 807 -140 q 628 -277 723 -243 q 387 -310 532 -310 q 176 -285 260 -310 q 58 -223 93 -260 q 23 -151 23 -185 q 49 -82 23 -113 q 157 -11 75 -51 q 81 34 106 7 q 47 106 47 69 q 79 186 47 147 q 174 264 111 226 q 118 312 138 286 q 86 374 98 337 q 73 449 73 410 q 156 622 73 551 q 375 693 239 693 q 485 679 435 693 q 574 637 535 665 m 382 564 q 310 532 338 564 q 282 446 282 500 q 309 366 282 395 q 379 336 336 336 q 449 367 421 336 q 477 446 477 397 q 451 532 477 500 q 382 564 424 564 m 283 -43 q 238 -86 248 -71 q 228 -118 228 -100 q 282 -170 228 -151 q 421 -189 336 -189 q 530 -178 483 -189 q 593 -151 578 -167 q 604 -123 604 -141 q 583 -91 604 -104 q 485 -68 563 -77 l 283 -43 m 417 1056 l 464 1003 q 387 890 395 952 q 429 904 408 904 q 474 886 455 904 q 493 842 493 867 q 468 790 493 811 q 406 770 443 770 q 328 801 359 770 q 296 880 296 831 q 417 1056 296 970 z "},"Ĥ":{"ha":1139,"x_min":50,"x_max":1089,"o":"m 50 946 l 511 946 l 511 815 l 469 815 q 420 808 433 815 q 402 788 408 801 q 397 730 397 774 l 397 566 l 741 566 l 741 743 q 737 787 741 775 q 719 809 732 803 q 662 815 706 815 l 626 815 l 626 946 l 1089 946 l 1089 815 l 1050 815 q 998 809 1011 815 q 980 790 985 802 q 975 730 975 777 l 975 218 q 982 156 975 170 q 1001 137 988 142 q 1062 131 1015 131 l 1089 131 l 1089 0 l 626 0 l 626 131 l 656 131 q 714 138 699 131 q 735 157 730 144 q 741 218 741 170 l 741 418 l 397 418 l 397 218 q 401 159 397 170 q 422 136 408 142 q 479 131 436 131 l 511 131 l 511 0 l 50 0 l 50 131 l 81 131 q 136 138 120 131 q 157 157 151 144 q 163 210 163 169 l 163 724 q 157 787 163 772 q 139 808 151 802 q 92 815 127 815 l 50 815 l 50 946 m 821 1105 l 768 1013 l 569 1087 l 370 1013 l 317 1105 l 569 1257 l 821 1105 z "},"ĥ":{"ha":945,"x_min":58,"x_max":910,"o":"m 375 996 l 375 619 q 494 676 442 660 q 593 693 545 693 q 708 666 658 693 q 783 597 759 638 q 806 486 806 555 l 806 203 q 810 153 806 162 q 830 134 815 140 q 878 131 839 131 l 910 131 l 910 0 l 511 0 l 511 131 l 532 131 q 572 136 561 131 q 587 152 583 142 q 591 199 591 161 l 591 433 q 585 495 591 479 q 564 520 579 510 q 527 530 549 530 q 460 517 495 530 q 375 469 425 504 l 375 199 q 379 151 375 161 q 395 136 383 142 q 438 131 406 131 l 453 131 l 453 0 l 58 0 l 58 131 l 96 131 q 139 135 130 131 q 153 150 148 140 q 157 192 157 161 l 157 806 l 58 806 l 58 938 q 185 957 115 941 q 311 996 255 973 l 375 996 m 770 1138 l 716 1046 l 517 1120 l 319 1046 l 265 1138 l 517 1291 l 770 1138 z "},"Ħ":{"ha":1139,"x_min":50,"x_max":1089,"o":"m 397 746 l 741 746 q 727 803 741 791 q 662 815 713 815 l 626 815 l 626 946 l 1089 946 l 1089 815 l 1050 815 q 986 801 997 815 q 975 746 975 786 l 1081 746 l 1081 648 l 975 648 l 975 218 q 989 145 975 159 q 1062 131 1003 131 l 1089 131 l 1089 0 l 626 0 l 626 131 l 656 131 q 727 146 713 131 q 741 218 741 161 l 741 418 l 397 418 l 397 218 q 410 145 397 159 q 479 131 423 131 l 511 131 l 511 0 l 50 0 l 50 131 l 81 131 q 150 146 136 131 q 163 210 163 161 l 163 648 l 58 648 l 58 746 l 163 746 q 148 802 161 789 q 92 815 135 815 l 50 815 l 50 946 l 511 946 l 511 815 l 469 815 q 412 802 426 815 q 397 746 397 788 m 397 648 l 397 566 l 741 566 l 741 648 l 397 648 z "},"ħ":{"ha":945,"x_min":58,"x_max":909,"o":"m 374 814 l 573 814 l 573 742 l 374 742 l 374 619 q 593 693 494 693 q 740 644 673 693 q 806 486 806 595 l 806 203 q 818 142 806 153 q 878 131 829 131 l 909 131 l 909 0 l 511 0 l 511 131 l 531 131 q 580 143 570 131 q 589 199 589 155 l 589 433 q 576 508 589 486 q 526 530 564 530 q 374 469 458 530 l 374 199 q 385 142 374 154 q 437 131 395 131 l 452 131 l 452 0 l 58 0 l 58 131 l 96 131 q 147 141 136 131 q 157 192 157 151 l 157 742 l 58 742 l 58 814 l 157 814 l 157 864 l 58 864 l 58 938 q 311 995 186 946 l 374 995 l 374 814 z "}}}
